<?xml version="1.0" standalone="no"?>
<!DOCTYPE svg PUBLIC "-//W3C//DTD SVG 1.1//EN" "http://www.w3.org/Graphics/SVG/1.1/DTD/svg11.dtd" >
<svg xmlns="http://www.w3.org/2000/svg" xmlns:xlink="http://www.w3.org/1999/xlink" version="1.1">
<metadata>
Created by FontForge 20141024 at Sat Mar 28 08:09:24 2015
 By System Administrator
Copyright (c) 2008 by Luc(as) de Groot. All rights reserved.
</metadata>
<defs>
<font id="TheSans-Plain" horiz-adv-x="550" >
  <font-face 
    font-family="TheSans"
    font-weight="400"
    font-stretch="normal"
    units-per-em="1000"
    panose-1="2 11 5 3 4 3 2 2 2 3"
    ascent="750"
    descent="-250"
    x-height="497"
    cap-height="675"
    bbox="-149 -320 2985 960"
    underline-thickness="41"
    underline-position="-191"
    stemh="74"
    stemv="90"
    unicode-range="U+0020-FEFC"
  />
<missing-glyph 
d="M300 150h-150v250h50v-200h100v-50zM500 50h-450v450h450v-450zM350 350h-100v50h150v-250h-50v100h-100v50h100v50zM100 100h350v350h-350v-350z" />
    <glyph glyph-name="lam_alef_madda.isol" unicode="&#xfedf;&#xfe82;" horiz-adv-x="583" arabic-form="isolated" 
d="M135 711l160 -548h-93l-159 535zM488 0h-402v73h309v632h93v-705zM15 788l-37 48l89 67c7 -7 44 -41 94 -41c56 0 97 36 105 43v-73c-8 -7 -43 -38 -109 -38c-53 0 -85 27 -90 32z" />
    <glyph glyph-name="lam_alef_madda.fina" unicode="&#xfee0;&#xfe82;" horiz-adv-x="583" arabic-form="final" 
d="M86 0v73h309v632h93v-632h109v-73h-511zM135 711l160 -548h-93l-159 535zM15 788l-37 48l89 67c7 -7 44 -41 94 -41c56 0 97 36 105 43v-73c-8 -7 -43 -38 -109 -38c-53 0 -85 27 -90 32z" />
    <glyph glyph-name="lam_alef_hamza_above.isol" unicode="&#xfedf;&#xfe84;" horiz-adv-x="583" arabic-form="isolated" 
d="M135 702l160 -539h-93l-159 526zM488 0h-402v73h309v623h93v-696zM-20 767v53c29 0 55 -2 71 -5c-18 9 -28 31 -28 48c0 50 34 97 127 97c21 0 42 -2 53 -4l-8 -54c-10 2 -30 5 -49 5c-37 0 -55 -17 -55 -41c0 -26 20 -46 77 -46h54v-53h-242z" />
    <glyph glyph-name="lam_alef_hamza_above.fina" unicode="&#xfee0;&#xfe84;" horiz-adv-x="583" arabic-form="final" 
d="M598 0h-512v73h309v623h93v-623h110v-73zM135 702l160 -539h-93l-159 526zM-20 767v53c29 0 55 -2 71 -5c-18 9 -28 31 -28 48c0 50 34 97 127 97c21 0 42 -2 53 -4l-8 -54c-10 2 -30 5 -49 5c-37 0 -55 -17 -55 -41c0 -26 20 -46 77 -46h54v-53h-242z" />
    <glyph glyph-name="lam_alef_hamza_below.isol" unicode="&#xfedf;&#xfe88;" horiz-adv-x="583" arabic-form="isolated" 
d="M135 711l160 -548h-93l-159 535zM488 0h-402v73h309v632h93v-705zM98 -254v55c22 0 42 0 58 -3c-10 6 -18 20 -18 37c0 49 39 90 117 90c22 0 42 -2 55 -5l-9 -56c-12 3 -30 6 -47 6c-30 0 -47 -13 -47 -33c0 -22 20 -36 66 -36h59v-55h-234z" />
    <glyph glyph-name="lam_alef_hamza_below.fina" unicode="&#xfee0;&#xfe88;" horiz-adv-x="583" arabic-form="final" 
d="M86 0v73h309v632h93v-632h109v-73h-511zM135 711l160 -548h-93l-159 535zM98 -254v55c22 0 42 0 58 -3c-10 6 -18 20 -18 37c0 49 39 90 117 90c22 0 42 -2 55 -5l-9 -56c-12 3 -30 6 -47 6c-30 0 -47 -13 -47 -33c0 -22 20 -36 66 -36h59v-55h-234z" />
    <glyph glyph-name="lam_alef.isol" unicode="&#xfedf;&#xfe8e;" horiz-adv-x="583" arabic-form="isolated" 
d="M135 711l160 -548h-93l-159 535zM488 0h-402v73h309v632h93v-705z" />
    <glyph glyph-name="lam_alef.fina" unicode="&#xfee0;&#xfe8e;" horiz-adv-x="583" arabic-form="final" 
d="M597 0h-511v73h309v632h93v-632h109v-73zM135 711l160 -548h-93l-159 535z" />
    <glyph glyph-name="hamza.isol" unicode="&#x621;" horiz-adv-x="514" arabic-form="isolated" 
d="M50 0v72c47 0 91 -2 119 -5c-33 14 -52 46 -52 87c0 76 54 154 197 154c34 0 66 -4 85 -7l-11 -74c-16 3 -50 8 -83 8c-63 0 -96 -31 -96 -77c0 -48 36 -86 135 -86h90v-72h-384z" />
    <glyph glyph-name="alef_madda.isol" unicode="&#x622;" horiz-adv-x="282" arabic-form="isolated" 
d="M95 0v705h92v-705h-92zM17 788l-37 48l89 67c7 -7 44 -41 94 -41c56 0 97 36 105 43v-73c-8 -7 -43 -38 -109 -38c-53 0 -85 27 -90 32z" />
    <glyph glyph-name="alef_madda.fina" unicode="&#x622;" horiz-adv-x="282" arabic-form="final" 
d="M95 0v705h92v-632h110v-73h-202zM17 788l-37 48l89 67c7 -7 44 -41 94 -41c56 0 97 36 105 43v-73c-8 -7 -43 -38 -109 -38c-53 0 -85 27 -90 32z" />
    <glyph glyph-name="alef_hamza_above.isol" unicode="&#x623;" horiz-adv-x="282" arabic-form="isolated" 
d="M95 0v696h92v-696h-92zM11 767v53c28 0 54 -2 70 -5c-18 9 -27 31 -27 48c0 50 34 97 126 97c22 0 43 -2 54 -4l-9 -54c-9 2 -29 5 -49 5c-36 0 -55 -17 -55 -41c0 -26 21 -46 78 -46h54v-53h-242z" />
    <glyph glyph-name="alef_hamza_above.fina" unicode="&#x623;" horiz-adv-x="282" arabic-form="final" 
d="M95 0v696h92v-623h110v-73h-202zM11 767v53c28 0 54 -2 70 -5c-18 9 -27 31 -27 48c0 50 34 97 126 97c22 0 43 -2 54 -4l-9 -54c-9 2 -29 5 -49 5c-36 0 -55 -17 -55 -41c0 -26 21 -46 78 -46h54v-53h-242z" />
    <glyph glyph-name="waw_hamza.isol" unicode="&#x624;" horiz-adv-x="585" arabic-form="isolated" 
d="M207 -253c-77 0 -156 15 -156 15l6 77s84 -19 160 -19c109 0 191 41 191 156v24h-101c-192 0 -262 91 -262 233c0 132 81 248 252 248c110 0 201 -35 201 -35v-465c0 -117 -76 -234 -291 -234zM408 73v312s-49 23 -121 23c-93 0 -149 -66 -149 -165
c0 -114 53 -170 182 -170h88zM158 566v57c27 0 53 -2 69 -5c-18 8 -27 30 -27 48c0 49 35 99 127 99c22 0 43 -2 54 -4l-9 -56c-9 1 -29 4 -48 4c-37 0 -56 -16 -56 -41c0 -26 21 -45 78 -45h54v-57h-242z" />
    <glyph glyph-name="waw_hamza.fina" unicode="&#x624;" horiz-adv-x="594" arabic-form="final" 
d="M207 -253c-77 0 -156 15 -156 15l6 77s84 -19 160 -19c109 0 191 41 191 156v24h-101c-192 0 -262 91 -262 233c0 132 81 248 252 248c110 0 201 -35 201 -35v-373h111v-73h-111v-19c0 -117 -76 -234 -291 -234zM408 73v312s-49 23 -121 23c-93 0 -149 -66 -149 -165
c0 -114 53 -170 182 -170h88zM158 566v57c27 0 53 -2 69 -5c-18 8 -27 30 -27 48c0 49 35 99 127 99c22 0 43 -2 54 -4l-9 -56c-9 1 -29 4 -48 4c-37 0 -56 -16 -56 -41c0 -26 21 -45 78 -45h54v-57h-242z" />
    <glyph glyph-name="alef_hamza_below.isol" unicode="&#x625;" horiz-adv-x="282" arabic-form="isolated" 
d="M95 0v705h92v-705h-92zM9 -254v55c22 0 42 0 58 -3c-10 6 -18 20 -18 37c0 49 39 90 117 90c22 0 42 -2 55 -5l-9 -56c-12 3 -30 6 -47 6c-30 0 -47 -13 -47 -33c0 -22 20 -36 66 -36h59v-55h-234z" />
    <glyph glyph-name="alef_hamza_below.fina" unicode="&#x625;" horiz-adv-x="282" arabic-form="final" 
d="M95 0v705h92v-632h110v-73h-202zM9 -254v55c22 0 42 0 58 -3c-10 6 -18 20 -18 37c0 49 39 90 117 90c22 0 42 -2 55 -5l-9 -56c-12 3 -30 6 -47 6c-30 0 -47 -13 -47 -33c0 -22 20 -36 66 -36h59v-55h-234z" />
    <glyph glyph-name="yeh_hamza_above.isol" unicode="&#x626;" horiz-adv-x="1000" arabic-form="isolated" 
d="M599 0h-186c-253 0 -351 101 -351 291c0 60 15 127 33 166l98 17c-23 -47 -38 -116 -38 -172c0 -152 60 -229 269 -229h85v389s88 19 183 19c167 0 223 -82 223 -219v-134h-90v122c0 114 -41 158 -142 158c-41 0 -84 -8 -84 -8v-400zM47 566v57c27 0 53 -2 69 -5
c-18 8 -27 30 -27 48c0 49 35 99 127 99c22 0 43 -2 54 -4l-9 -56c-9 1 -29 4 -48 4c-37 0 -56 -16 -56 -41c0 -26 21 -45 78 -45h54v-57h-242z" />
    <glyph glyph-name="yeh_hamza_above.fina" unicode="&#x626;" horiz-adv-x="1000" arabic-form="final" 
d="M825 0v250c0 114 -41 158 -142 158c-41 0 -84 -8 -84 -8v-400h-186c-253 0 -351 101 -351 291c0 60 15 127 33 166l98 17c-23 -47 -38 -116 -38 -172c0 -152 60 -229 269 -229h85v389s88 19 183 19c167 0 223 -82 223 -219v-189h100v-73h-190zM47 566v57
c27 0 53 -2 69 -5c-18 8 -27 30 -27 48c0 49 35 99 127 99c22 0 43 -2 54 -4l-9 -56c-9 1 -29 4 -48 4c-37 0 -56 -16 -56 -41c0 -26 21 -45 78 -45h54v-57h-242z" />
    <glyph glyph-name="yeh_hamza_above.init" unicode="&#x626;" horiz-adv-x="326" arabic-form="initial" 
d="M0 0v73h146v397h92v-470h-238zM48 566v57c27 0 53 -2 69 -5c-18 8 -27 30 -27 48c0 49 35 99 127 99c22 0 43 -2 54 -4l-9 -56c-9 1 -29 4 -48 4c-37 0 -56 -16 -56 -41c0 -26 21 -45 78 -45h54v-57h-242z" />
    <glyph glyph-name="yeh_hamza_above.medi" unicode="&#x626;" horiz-adv-x="334" arabic-form="medial" 
d="M0 0v73h146v397h92v-397h111v-73h-349zM48 566v57c27 0 53 -2 69 -5c-18 8 -27 30 -27 48c0 49 35 99 127 99c22 0 43 -2 54 -4l-9 -56c-9 1 -29 4 -48 4c-37 0 -56 -16 -56 -41c0 -26 21 -45 78 -45h54v-57h-242z" />
    <glyph glyph-name="alef.isol" unicode="&#x627;" horiz-adv-x="282" arabic-form="isolated" 
d="M95 0v705h92v-705h-92z" />
    <glyph glyph-name="alef.fina" unicode="&#x627;" horiz-adv-x="282" arabic-form="final" 
d="M95 0v705h92v-632h110v-73h-202z" />
    <glyph glyph-name="beh.isol" unicode="&#x628;" horiz-adv-x="773" arabic-form="isolated" 
d="M393 -204c-30 0 -54 23 -54 54c0 30 24 54 54 54s55 -23 55 -54c0 -30 -25 -54 -55 -54zM686 0h-273c-253 0 -351 101 -351 291c0 60 15 127 33 166l98 17c-23 -47 -38 -116 -38 -172c0 -152 60 -229 269 -229h170v397h92v-470z" />
    <glyph glyph-name="beh.fina" unicode="&#x628;" horiz-adv-x="782" arabic-form="final" 
d="M796 0h-383c-253 0 -351 101 -351 291c0 60 15 127 33 166l98 17c-23 -47 -38 -116 -38 -172c0 -152 60 -229 269 -229h170v397h92v-397h110v-73zM393 -204c-30 0 -54 23 -54 54c0 30 24 54 54 54s55 -23 55 -54c0 -30 -25 -54 -55 -54z" />
    <glyph glyph-name="beh.init" unicode="&#x628;" horiz-adv-x="326" arabic-form="initial" 
d="M125 -204c-30 0 -54 23 -54 54c0 30 24 54 54 54s55 -23 55 -54c0 -30 -25 -54 -55 -54zM0 0v73h146v397h92v-470h-238z" />
    <glyph glyph-name="beh.medi" unicode="&#x628;" horiz-adv-x="334" arabic-form="medial" 
d="M0 0v73h146v397h92v-397h111v-73h-349zM125 -204c-30 0 -54 23 -54 54c0 30 24 54 54 54s55 -23 55 -54c0 -30 -25 -54 -55 -54z" />
    <glyph glyph-name="tehmarbuta.isol" unicode="&#x629;" horiz-adv-x="594" arabic-form="isolated" 
d="M363 562c-30 0 -54 23 -54 54c0 29 24 53 54 53c29 0 52 -23 52 -53s-23 -54 -52 -54zM215 562c-30 0 -53 23 -53 54c0 29 23 53 53 53c29 0 53 -23 53 -53s-24 -54 -53 -54zM509 0h-202c-192 0 -262 91 -262 233c0 134 84 248 250 248c143 0 214 -82 214 -224v-257z
M419 73v168c0 120 -49 167 -132 167c-93 0 -149 -66 -149 -166c0 -114 54 -169 182 -169h99z" />
    <glyph glyph-name="tehmarbuta.fina" unicode="&#x629;" horiz-adv-x="594" arabic-form="final" 
d="M363 562c-30 0 -54 23 -54 54c0 29 24 53 54 53c29 0 52 -23 52 -53s-23 -54 -52 -54zM215 562c-30 0 -53 23 -53 54c0 29 23 53 53 53c29 0 53 -23 53 -53s-24 -54 -53 -54zM609 0h-302c-192 0 -262 91 -262 233c0 132 81 248 252 248c110 0 201 -35 201 -35v-373h111
v-73zM408 73v312s-49 23 -121 23c-93 0 -149 -66 -149 -165c0 -114 53 -170 182 -170h88z" />
    <glyph glyph-name="teh.isol" unicode="&#x62a;" horiz-adv-x="773" arabic-form="isolated" 
d="M476 562c-30 0 -54 23 -54 54c0 29 24 53 54 53c29 0 52 -23 52 -53s-23 -54 -52 -54zM328 562c-30 0 -53 23 -53 54c0 29 23 53 53 53c29 0 53 -23 53 -53s-24 -54 -53 -54zM686 0h-273c-253 0 -351 101 -351 291c0 60 15 127 33 166l98 17c-23 -47 -38 -116 -38 -172
c0 -152 60 -229 269 -229h170v397h92v-470z" />
    <glyph glyph-name="teh.fina" unicode="&#x62a;" horiz-adv-x="782" arabic-form="final" 
d="M796 0h-383c-253 0 -351 101 -351 291c0 60 15 127 33 166l98 17c-23 -47 -38 -116 -38 -172c0 -152 60 -229 269 -229h170v397h92v-397h110v-73zM328 562c-30 0 -53 23 -53 54c0 29 23 53 53 53c29 0 53 -23 53 -53s-24 -54 -53 -54zM476 562c-30 0 -54 23 -54 54
c0 29 24 53 54 53c29 0 52 -23 52 -53s-23 -54 -52 -54z" />
    <glyph glyph-name="teh.init" unicode="&#x62a;" horiz-adv-x="326" arabic-form="initial" 
d="M250 562c-30 0 -54 23 -54 54c0 29 24 53 54 53c29 0 52 -23 52 -53s-23 -54 -52 -54zM102 562c-30 0 -53 23 -53 54c0 29 23 53 53 53c29 0 53 -23 53 -53s-24 -54 -53 -54zM0 0v73h146v397h92v-470h-238z" />
    <glyph glyph-name="teh.medi" unicode="&#x62a;" horiz-adv-x="326" arabic-form="medial" 
d="M0 0v73h146v397h92v-397h103v-73h-341zM102 562c-30 0 -53 23 -53 54c0 29 23 53 53 53c29 0 53 -23 53 -53s-24 -54 -53 -54zM250 562c-30 0 -54 23 -54 54c0 29 24 53 54 53c29 0 52 -23 52 -53s-23 -54 -52 -54z" />
    <glyph glyph-name="theh.isol" unicode="&#x62b;" horiz-adv-x="773" arabic-form="isolated" 
d="M402 681c-29 0 -51 22 -51 51s22 52 51 52c28 0 50 -23 50 -52c0 -28 -22 -51 -50 -51zM476 562c-30 0 -53 23 -53 54c0 29 23 53 53 53c29 0 53 -23 53 -53s-24 -54 -53 -54zM328 562c-30 0 -53 23 -53 54c0 29 23 53 53 53s53 -23 53 -53s-23 -54 -53 -54zM686 0h-273
c-253 0 -351 101 -351 291c0 60 15 127 33 166l98 17c-23 -47 -38 -116 -38 -172c0 -152 60 -229 269 -229h170v397h92v-470z" />
    <glyph glyph-name="theh.fina" unicode="&#x62b;" horiz-adv-x="782" arabic-form="final" 
d="M413 0c-253 0 -351 101 -351 291c0 60 15 127 33 166l98 17c-23 -47 -38 -116 -38 -172c0 -152 60 -229 269 -229h170v397h92v-397h110v-73h-383zM328 562c-30 0 -53 23 -53 54c0 29 23 53 53 53s53 -23 53 -53s-23 -54 -53 -54zM476 562c-30 0 -53 23 -53 54
c0 29 23 53 53 53c29 0 53 -23 53 -53s-24 -54 -53 -54zM402 681c-29 0 -51 22 -51 51s22 52 51 52c28 0 50 -23 50 -52c0 -28 -22 -51 -50 -51z" />
    <glyph glyph-name="theh.init" unicode="&#x62b;" horiz-adv-x="326" arabic-form="initial" 
d="M176 681c-29 0 -51 22 -51 51s22 52 51 52c28 0 50 -23 50 -52c0 -28 -22 -51 -50 -51zM250 562c-30 0 -53 23 -53 54c0 29 23 53 53 53c29 0 53 -23 53 -53s-24 -54 -53 -54zM102 562c-30 0 -53 23 -53 54c0 29 23 53 53 53s53 -23 53 -53s-23 -54 -53 -54zM0 0v73h146
v397h92v-470h-238z" />
    <glyph glyph-name="theh.medi" unicode="&#x62b;" horiz-adv-x="334" arabic-form="medial" 
d="M0 0v73h146v397h92v-397h111v-73h-349zM102 562c-30 0 -53 23 -53 54c0 29 23 53 53 53s53 -23 53 -53s-23 -54 -53 -54zM250 562c-30 0 -53 23 -53 54c0 29 23 53 53 53c29 0 53 -23 53 -53s-24 -54 -53 -54zM176 681c-29 0 -51 22 -51 51s22 52 51 52
c28 0 50 -23 50 -52c0 -28 -22 -51 -50 -51z" />
    <glyph glyph-name="jeem.isol" unicode="&#x62c;" horiz-adv-x="594" arabic-form="isolated" 
d="M370 -204c-30 0 -54 23 -54 54c0 30 24 54 54 54s55 -23 55 -54c0 -30 -25 -54 -55 -54zM501 0h-186c-170 0 -213 -55 -213 -125c0 -64 61 -122 188 -122l-6 -73c-184 0 -273 83 -273 188c0 117 82 205 309 205h98c5 35 7 70 7 103c0 151 -55 225 -219 225
c-39 0 -73 -2 -111 -7v72c34 5 76 8 120 8c220 0 302 -101 302 -291c0 -48 -4 -111 -16 -183z" />
    <glyph glyph-name="jeem.fina" unicode="&#x62c;" horiz-adv-x="588" arabic-form="final" 
d="M315 0c-170 0 -213 -55 -213 -125c0 -64 61 -122 188 -122l-6 -73c-184 0 -273 83 -273 188c0 117 82 205 309 205h98c5 35 7 70 7 103c0 151 -55 225 -219 225c-39 0 -73 -2 -111 -7v72c34 5 76 8 120 8c220 0 302 -101 302 -291c0 -31 -2 -68 -6 -110h92v-73h-288z
M370 -204c-30 0 -54 23 -54 54c0 30 24 54 54 54s55 -23 55 -54c0 -30 -25 -54 -55 -54z" />
    <glyph glyph-name="jeem.init" unicode="&#x62c;" horiz-adv-x="578" arabic-form="initial" 
d="M236 -204c-30 0 -54 23 -54 54c0 30 24 54 54 54s55 -23 55 -54c0 -30 -25 -54 -55 -54zM0 0v73h413c4 35 7 70 7 103c0 151 -55 225 -219 225c-40 0 -74 -2 -111 -7v72c33 5 75 8 119 8c220 0 302 -101 302 -291c0 -48 -4 -111 -16 -183h-495z" />
    <glyph glyph-name="jeem.medi" unicode="&#x62c;" horiz-adv-x="582" arabic-form="medial" 
d="M0 0v73h413c4 35 7 70 7 103c0 151 -55 225 -219 225c-40 0 -74 -2 -111 -7v72c33 5 75 8 119 8c220 0 302 -101 302 -291c0 -31 -2 -68 -6 -110h92v-73h-597zM236 -204c-30 0 -54 23 -54 54c0 30 24 54 54 54s55 -23 55 -54c0 -30 -25 -54 -55 -54z" />
    <glyph glyph-name="hah.isol" unicode="&#x62d;" horiz-adv-x="588" arabic-form="isolated" 
d="M294 -320c-184 0 -273 79 -273 189c0 116 82 204 309 204h93c4 35 7 70 7 103c0 151 -55 225 -219 225c-40 0 -74 -2 -111 -7v72c33 5 75 8 119 8c220 0 302 -101 302 -291c0 -48 -4 -111 -16 -183h-180c-170 0 -213 -55 -213 -124s61 -123 190 -123c55 0 115 7 180 21
l7 -72c-67 -15 -132 -22 -195 -22z" />
    <glyph glyph-name="hah.fina" unicode="&#x62d;" horiz-adv-x="592" arabic-form="final" 
d="M325 0c-170 0 -213 -55 -213 -124s61 -123 190 -123c55 0 115 7 180 21l7 -72c-67 -15 -132 -22 -195 -22c-184 0 -273 79 -273 189c0 116 82 204 309 204h93c4 35 7 70 7 103c0 151 -55 225 -219 225c-40 0 -74 -2 -111 -7v72c33 5 75 8 119 8c220 0 302 -101 302 -291
c0 -31 -2 -68 -6 -110h92v-73h-282z" />
    <glyph glyph-name="hah.init" unicode="&#x62d;" horiz-adv-x="578" arabic-form="initial" 
d="M0 0v73h413c4 35 7 70 7 103c0 151 -55 225 -219 225c-40 0 -74 -2 -111 -7v72c33 5 75 8 119 8c220 0 302 -101 302 -291c0 -48 -4 -111 -16 -183h-495z" />
    <glyph glyph-name="hah.medi" unicode="&#x62d;" horiz-adv-x="582" arabic-form="medial" 
d="M0 0v73h413c4 35 7 70 7 103c0 151 -55 225 -219 225c-40 0 -74 -2 -111 -7v72c33 5 75 8 119 8c220 0 302 -101 302 -291c0 -31 -2 -68 -6 -110h92v-73h-597z" />
    <glyph glyph-name="khah.isol" unicode="&#x62e;" horiz-adv-x="588" arabic-form="isolated" 
d="M246 577c-30 0 -54 24 -54 54s24 55 54 55s55 -24 55 -55c0 -30 -25 -54 -55 -54zM294 -320c-184 0 -273 79 -273 189c0 116 82 204 309 204h93c4 35 7 70 7 103c0 151 -55 225 -219 225c-40 0 -74 -2 -111 -7v72c33 5 75 8 119 8c220 0 302 -101 302 -291
c0 -48 -4 -111 -16 -183h-180c-170 0 -213 -55 -213 -124s61 -123 190 -123c55 0 115 7 180 21l7 -72c-67 -15 -132 -22 -195 -22z" />
    <glyph glyph-name="khah.fina" unicode="&#x62e;" horiz-adv-x="592" arabic-form="final" 
d="M325 0c-170 0 -213 -55 -213 -124s61 -123 190 -123c55 0 115 7 180 21l7 -72c-67 -15 -132 -22 -195 -22c-184 0 -273 79 -273 189c0 116 82 204 309 204h93c4 35 7 70 7 103c0 151 -55 225 -219 225c-40 0 -74 -2 -111 -7v72c33 5 75 8 119 8c220 0 302 -101 302 -291
c0 -31 -2 -68 -6 -110h92v-73h-282zM246 577c-30 0 -54 24 -54 54s24 55 54 55s55 -24 55 -55c0 -30 -25 -54 -55 -54z" />
    <glyph glyph-name="khah.init" unicode="&#x62e;" horiz-adv-x="578" arabic-form="initial" 
d="M236 577c-30 0 -54 24 -54 54s24 55 54 55s55 -24 55 -55c0 -30 -25 -54 -55 -54zM0 0v73h413c4 35 7 70 7 103c0 151 -55 225 -219 225c-40 0 -74 -2 -111 -7v72c33 5 75 8 119 8c220 0 302 -101 302 -291c0 -48 -4 -111 -16 -183h-495z" />
    <glyph glyph-name="khah.medi" unicode="&#x62e;" horiz-adv-x="582" arabic-form="medial" 
d="M0 0v73h413c4 35 7 70 7 103c0 151 -55 225 -219 225c-40 0 -74 -2 -111 -7v72c33 5 75 8 119 8c220 0 302 -101 302 -291c0 -31 -2 -68 -6 -110h92v-73h-597zM236 577c-30 0 -54 24 -54 54s24 55 54 55s55 -24 55 -55c0 -30 -25 -54 -55 -54z" />
    <glyph glyph-name="dal.isol" unicode="&#x62f;" horiz-adv-x="527" arabic-form="isolated" 
d="M52 0v73h321c-3 183 -75 285 -252 339l23 78c217 -67 320 -189 320 -440v-50h-412z" />
    <glyph glyph-name="dal.fina" unicode="&#x62f;" horiz-adv-x="527" arabic-form="final" 
d="M52 0v73h321c-3 183 -75 285 -252 339l23 78c210 -65 314 -182 320 -417h77v-73h-489z" />
    <glyph glyph-name="thal.isol" unicode="&#x630;" horiz-adv-x="527" arabic-form="isolated" 
d="M197 577c-30 0 -54 24 -54 54s24 55 54 55s55 -24 55 -55c0 -30 -25 -54 -55 -54zM52 0v73h321c-3 183 -75 285 -252 339l23 78c217 -67 320 -189 320 -440v-50h-412z" />
    <glyph glyph-name="thal.fina" unicode="&#x630;" horiz-adv-x="527" arabic-form="final" 
d="M52 0v73h321c-3 183 -75 285 -252 339l23 78c210 -65 314 -182 320 -417h77v-73h-489zM197 577c-30 0 -54 24 -54 54s24 55 54 55s55 -24 55 -55c0 -30 -25 -54 -55 -54z" />
    <glyph glyph-name="reh.isol" unicode="&#x631;" horiz-adv-x="409" arabic-form="isolated" 
d="M90 -257c-37 0 -74 6 -104 14l11 76c30 -11 63 -17 100 -17c83 0 133 40 133 171v483h92v-475c0 -142 -52 -252 -232 -252z" />
    <glyph glyph-name="reh.fina" unicode="&#x631;" horiz-adv-x="418" arabic-form="final" 
d="M90 -257c-37 0 -74 6 -104 14l11 76c30 -11 63 -17 100 -17c83 0 133 40 133 171v483h92v-397h110v-73h-110v-5c0 -142 -52 -252 -232 -252z" />
    <glyph glyph-name="zain.isol" unicode="&#x632;" horiz-adv-x="409" arabic-form="isolated" 
d="M274 577c-30 0 -54 24 -54 54s24 55 54 55s55 -24 55 -55c0 -30 -25 -54 -55 -54zM90 -257c-37 0 -74 6 -104 14l11 76c30 -11 63 -17 100 -17c83 0 133 40 133 171v483h92v-475c0 -142 -52 -252 -232 -252z" />
    <glyph glyph-name="zain.fina" unicode="&#x632;" horiz-adv-x="418" arabic-form="final" 
d="M90 -257c-37 0 -74 6 -104 14l11 76c30 -11 63 -17 100 -17c83 0 133 40 133 171v483h92v-397h110v-73h-110v-5c0 -142 -52 -252 -232 -252zM274 577c-30 0 -54 24 -54 54s24 55 54 55s55 -24 55 -55c0 -30 -25 -54 -55 -54z" />
    <glyph glyph-name="seen.isol" unicode="&#x633;" horiz-adv-x="1206" arabic-form="isolated" 
d="M307 -231c-138 0 -249 74 -249 279c0 65 9 131 25 190l95 18c-19 -66 -28 -134 -28 -199c0 -171 87 -215 166 -215c95 0 163 50 163 203v365h92v-205c0 -85 20 -139 94 -139c72 0 93 54 93 139v245h89v-241c0 -104 26 -136 132 -136h46c5 43 8 103 8 139
c0 109 -14 203 -33 276l90 16c20 -75 36 -175 36 -284c0 -68 -7 -153 -17 -220h-149c-95 0 -147 24 -168 80c-17 -55 -67 -87 -127 -87c-51 0 -83 17 -102 45c2 -7 3 -17 3 -27c0 -77 -33 -242 -259 -242z" />
    <glyph glyph-name="seen.fina" unicode="&#x633;" horiz-adv-x="1215" arabic-form="final" 
d="M307 -231c-138 0 -249 74 -249 279c0 65 9 131 25 190l95 18c-19 -66 -28 -134 -28 -199c0 -171 87 -215 166 -215c95 0 163 50 163 203v365h92v-205c0 -85 20 -139 94 -139c72 0 93 54 93 139v245h89v-241c0 -104 26 -136 132 -136h46c5 43 8 103 8 139
c0 109 -14 203 -33 276l90 16c20 -75 36 -175 36 -284c0 -45 -3 -98 -8 -147h111v-73h-269c-95 0 -147 24 -168 80c-17 -55 -67 -87 -127 -87c-51 0 -83 17 -102 45c2 -7 3 -17 3 -27c0 -77 -33 -242 -259 -242z" />
    <glyph glyph-name="seen.init" unicode="&#x633;" horiz-adv-x="865" arabic-form="initial" 
d="M0 0v73h35c71 0 103 32 103 140v197h92v-205c0 -86 20 -139 94 -139c72 0 93 54 93 139v245h89v-241c0 -104 26 -136 132 -136h46c5 43 8 102 8 139c0 109 -14 203 -33 276l90 16c20 -75 35 -175 35 -284c0 -68 -6 -153 -16 -220h-149c-95 0 -147 24 -168 80
c-20 -57 -76 -88 -141 -88c-80 0 -126 36 -141 88c-18 -50 -58 -80 -135 -80h-34z" />
    <glyph glyph-name="seen.medi" unicode="&#x633;" horiz-adv-x="874" arabic-form="medial" 
d="M619 0c-95 0 -147 24 -168 80c-20 -57 -76 -88 -141 -88c-80 0 -126 36 -141 88c-18 -50 -58 -80 -135 -80h-34v73h35c71 0 103 32 103 140v197h92v-205c0 -86 20 -139 94 -139c72 0 93 54 93 139v245h89v-241c0 -104 26 -136 132 -136h46c5 43 8 102 8 139
c0 109 -14 203 -33 276l90 16c20 -75 35 -175 35 -284c0 -45 -3 -98 -7 -147h111v-73h-269z" />
    <glyph glyph-name="sheen.isol" unicode="&#x634;" horiz-adv-x="1206" arabic-form="isolated" 
d="M799 681c-29 0 -51 22 -51 51s22 52 51 52c28 0 50 -23 50 -52c0 -28 -22 -51 -50 -51zM873 562c-30 0 -53 23 -53 54c0 29 23 53 53 53c29 0 53 -23 53 -53s-24 -54 -53 -54zM725 562c-30 0 -53 23 -53 54c0 29 23 53 53 53s53 -23 53 -53s-23 -54 -53 -54zM307 -231
c-138 0 -249 74 -249 279c0 65 9 131 25 190l95 18c-19 -66 -28 -134 -28 -199c0 -171 87 -215 166 -215c95 0 163 50 163 203v365h92v-205c0 -85 20 -139 94 -139c72 0 93 54 93 139v245h89v-241c0 -104 26 -136 132 -136h46c5 43 8 103 8 139c0 109 -14 203 -33 276l90 16
c20 -75 36 -175 36 -284c0 -68 -7 -153 -17 -220h-149c-95 0 -147 24 -168 80c-17 -55 -67 -87 -127 -87c-51 0 -83 17 -102 45c2 -7 3 -17 3 -27c0 -77 -33 -242 -259 -242z" />
    <glyph glyph-name="sheen.fina" unicode="&#x634;" horiz-adv-x="1215" arabic-form="final" 
d="M307 -231c-138 0 -249 74 -249 279c0 65 9 131 25 190l95 18c-19 -66 -28 -134 -28 -199c0 -171 87 -215 166 -215c95 0 163 50 163 203v365h92v-205c0 -85 20 -139 94 -139c72 0 93 54 93 139v245h89v-241c0 -104 26 -136 132 -136h46c5 43 8 103 8 139
c0 109 -14 203 -33 276l90 16c20 -75 36 -175 36 -284c0 -45 -3 -98 -8 -147h111v-73h-269c-95 0 -147 24 -168 80c-17 -55 -67 -87 -127 -87c-51 0 -83 17 -102 45c2 -7 3 -17 3 -27c0 -77 -33 -242 -259 -242zM725 562c-30 0 -53 23 -53 54c0 29 23 53 53 53
s53 -23 53 -53s-23 -54 -53 -54zM873 562c-30 0 -53 23 -53 54c0 29 23 53 53 53c29 0 53 -23 53 -53s-24 -54 -53 -54zM799 681c-29 0 -51 22 -51 51s22 52 51 52c28 0 50 -23 50 -52c0 -28 -22 -51 -50 -51z" />
    <glyph glyph-name="sheen.init" unicode="&#x634;" horiz-adv-x="865" arabic-form="initial" 
d="M457 681c-29 0 -51 22 -51 51s22 52 51 52c28 0 50 -23 50 -52c0 -28 -22 -51 -50 -51zM531 562c-30 0 -53 23 -53 54c0 29 23 53 53 53c29 0 53 -23 53 -53s-24 -54 -53 -54zM383 562c-30 0 -53 23 -53 54c0 29 23 53 53 53s53 -23 53 -53s-23 -54 -53 -54zM0 0v73h35
c71 0 103 32 103 140v197h92v-205c0 -86 20 -139 94 -139c72 0 93 54 93 139v245h89v-241c0 -104 26 -136 132 -136h46c5 43 8 102 8 139c0 109 -14 203 -33 276l90 16c20 -75 35 -175 35 -284c0 -68 -6 -153 -16 -220h-149c-95 0 -147 24 -168 80c-20 -57 -76 -88 -141 -88
c-80 0 -126 36 -141 88c-18 -50 -58 -80 -135 -80h-34z" />
    <glyph glyph-name="sheen.medi" unicode="&#x634;" horiz-adv-x="874" arabic-form="medial" 
d="M0 0v73h35c71 0 103 32 103 140v197h92v-205c0 -86 20 -139 94 -139c72 0 93 54 93 139v245h89v-241c0 -104 26 -136 132 -136h46c5 43 8 102 8 139c0 109 -14 203 -33 276l90 16c20 -75 35 -175 35 -284c0 -45 -3 -98 -7 -147h111v-73h-269c-95 0 -147 24 -168 80
c-20 -57 -76 -88 -141 -88c-80 0 -126 36 -141 88c-18 -50 -58 -80 -135 -80h-34zM383 562c-30 0 -53 23 -53 54c0 29 23 53 53 53s53 -23 53 -53s-23 -54 -53 -54zM531 562c-30 0 -53 23 -53 54c0 29 23 53 53 53c29 0 53 -23 53 -53s-24 -54 -53 -54zM457 681
c-29 0 -51 22 -51 51s22 52 51 52c28 0 50 -23 50 -52c0 -28 -22 -51 -50 -51z" />
    <glyph glyph-name="sad.isol" unicode="&#x635;" horiz-adv-x="1106" arabic-form="isolated" 
d="M307 -231c-138 0 -249 74 -249 279c0 65 9 131 25 190l95 18c-19 -66 -28 -134 -28 -199c0 -171 87 -215 166 -215c95 0 163 50 163 203v425h92v-39c0 -54 -3 -124 -11 -179h1c49 146 160 229 273 229c132 0 195 -94 195 -247c0 -78 -5 -158 -13 -234h-449
c-13 -160 -112 -231 -260 -231zM570 73h358c4 49 6 103 6 151c0 111 -30 183 -116 183c-134 0 -230 -173 -248 -334z" />
    <glyph glyph-name="sad.fina" unicode="&#x635;" horiz-adv-x="1114" arabic-form="final" 
d="M307 -231c-138 0 -249 74 -249 279c0 65 9 131 25 190l95 18c-19 -66 -28 -134 -28 -199c0 -171 87 -215 166 -215c95 0 163 50 163 203v425h92v-39c0 -54 -3 -124 -11 -179h1c49 146 160 229 273 229c132 0 195 -94 195 -247c0 -54 -2 -108 -6 -161h106v-73h-562
c-13 -160 -112 -231 -260 -231zM570 73h358c4 49 6 103 6 151c0 111 -30 183 -116 183c-134 0 -230 -173 -248 -334z" />
    <glyph glyph-name="sad.init" unicode="&#x635;" horiz-adv-x="765" arabic-form="initial" 
d="M688 234c0 -77 -5 -158 -13 -234h-675v73h138v397h92v-39c0 -54 -3 -124 -11 -179h1c49 146 160 229 273 229c132 0 195 -94 195 -247zM593 224c0 111 -30 183 -116 183c-134 0 -230 -173 -248 -334h358c4 49 6 103 6 151z" />
    <glyph glyph-name="sad.medi" unicode="&#x635;" horiz-adv-x="773" arabic-form="medial" 
d="M688 234c0 -53 -2 -108 -6 -161h106v-73h-788v73h138v397h92v-39c0 -54 -3 -124 -11 -179h1c49 146 160 229 273 229c132 0 195 -94 195 -247zM593 224c0 111 -30 183 -116 183c-134 0 -230 -173 -248 -334h358c4 49 6 103 6 151z" />
    <glyph glyph-name="dad.isol" unicode="&#x636;" horiz-adv-x="1106" arabic-form="isolated" 
d="M822 577c-30 0 -54 24 -54 54s24 55 54 55s55 -24 55 -55c0 -30 -25 -54 -55 -54zM307 -231c-138 0 -249 74 -249 279c0 65 9 131 25 190l95 18c-19 -66 -28 -134 -28 -199c0 -171 87 -215 166 -215c95 0 163 50 163 203v425h92v-39c0 -54 -3 -124 -11 -179h1
c49 146 160 229 273 229c132 0 195 -94 195 -247c0 -78 -5 -158 -13 -234h-449c-13 -160 -112 -231 -260 -231zM570 73h358c4 49 6 103 6 151c0 111 -30 183 -116 183c-134 0 -230 -173 -248 -334z" />
    <glyph glyph-name="dad.fina" unicode="&#x636;" horiz-adv-x="1114" arabic-form="final" 
d="M567 0c-13 -160 -112 -231 -260 -231c-138 0 -249 74 -249 279c0 65 9 131 25 190l95 18c-19 -66 -28 -134 -28 -199c0 -171 87 -215 166 -215c95 0 163 50 163 203v425h92v-39c0 -54 -3 -124 -11 -179h1c49 146 160 229 273 229c132 0 195 -94 195 -247
c0 -54 -2 -108 -6 -161h106v-73h-562zM570 73h358c4 49 6 103 6 151c0 111 -30 183 -116 183c-134 0 -230 -173 -248 -334zM822 577c-30 0 -54 24 -54 54s24 55 54 55s55 -24 55 -55c0 -30 -25 -54 -55 -54z" />
    <glyph glyph-name="dad.init" unicode="&#x636;" horiz-adv-x="765" arabic-form="initial" 
d="M481 577c-30 0 -54 24 -54 54s24 55 54 55s55 -24 55 -55c0 -30 -25 -54 -55 -54zM688 234c0 -77 -5 -158 -13 -234h-675v73h138v397h92v-39c0 -54 -3 -124 -11 -179h1c49 146 160 229 273 229c132 0 195 -94 195 -247zM593 224c0 111 -30 183 -116 183
c-134 0 -230 -173 -248 -334h358c4 49 6 103 6 151z" />
    <glyph glyph-name="dad.medi" unicode="&#x636;" horiz-adv-x="773" arabic-form="medial" 
d="M0 0v73h138v397h92v-39c0 -54 -3 -124 -11 -179h1c49 146 160 229 273 229c132 0 195 -94 195 -247c0 -53 -2 -108 -6 -161h106v-73h-788zM593 224c0 111 -30 183 -116 183c-134 0 -230 -173 -248 -334h358c4 49 6 103 6 151zM481 577c-30 0 -54 24 -54 54s24 55 54 55
s55 -24 55 -55c0 -30 -25 -54 -55 -54z" />
    <glyph glyph-name="tah.isol" unicode="&#x637;" horiz-adv-x="765" arabic-form="isolated" 
d="M0 0v73h138v632h92v-274c0 -54 -3 -124 -11 -179h1c49 146 160 229 273 229c132 0 195 -94 195 -247c0 -78 -5 -158 -13 -234h-675zM229 73h358c4 49 6 103 6 151c0 111 -30 183 -116 183c-134 0 -230 -173 -248 -334z" />
    <glyph glyph-name="tah.fina" unicode="&#x637;" horiz-adv-x="773" arabic-form="final" 
d="M0 0v73h138v632h92v-274c0 -54 -3 -124 -11 -179h1c49 146 160 229 273 229c132 0 195 -94 195 -247c0 -54 -2 -108 -6 -161h106v-73h-788zM229 73h358c4 49 6 103 6 151c0 111 -30 183 -116 183c-134 0 -230 -173 -248 -334z" />
    <glyph glyph-name="tah.init" unicode="&#x637;" horiz-adv-x="765" arabic-form="initial" 
d="M0 0v73h138v632h92v-274c0 -54 -3 -124 -11 -179h1c49 146 160 229 273 229c132 0 195 -94 195 -247c0 -78 -5 -158 -13 -234h-675zM229 73h358c4 49 6 103 6 151c0 111 -30 183 -116 183c-134 0 -230 -173 -248 -334z" />
    <glyph glyph-name="tah.medi" unicode="&#x637;" horiz-adv-x="773" arabic-form="medial" 
d="M0 0v73h138v632h92v-274c0 -54 -3 -124 -11 -179h1c49 146 160 229 273 229c132 0 195 -94 195 -247c0 -54 -2 -108 -6 -161h105v-73h-787zM229 73h358c4 49 6 103 6 151c0 111 -30 183 -116 183c-134 0 -230 -173 -248 -334z" />
    <glyph glyph-name="zah.isol" unicode="&#x638;" horiz-adv-x="765" arabic-form="isolated" 
d="M481 577c-30 0 -54 24 -54 54s24 55 54 55s55 -24 55 -55c0 -30 -25 -54 -55 -54zM0 0v73h138v632h92v-274c0 -54 -3 -124 -11 -179h1c49 146 160 229 273 229c132 0 195 -94 195 -247c0 -78 -5 -158 -13 -234h-675zM229 73h358c4 49 6 103 6 151c0 111 -30 183 -116 183
c-134 0 -230 -173 -248 -334z" />
    <glyph glyph-name="zah.fina" unicode="&#x638;" horiz-adv-x="773" arabic-form="final" 
d="M0 0v73h138v632h92v-274c0 -54 -3 -124 -11 -179h1c49 146 160 229 273 229c132 0 195 -94 195 -247c0 -54 -2 -108 -6 -161h106v-73h-788zM229 73h358c4 49 6 103 6 151c0 111 -30 183 -116 183c-134 0 -230 -173 -248 -334zM481 577c-30 0 -54 24 -54 54s24 55 54 55
s55 -24 55 -55c0 -30 -25 -54 -55 -54z" />
    <glyph glyph-name="zah.init" unicode="&#x638;" horiz-adv-x="765" arabic-form="initial" 
d="M481 577c-30 0 -54 24 -54 54s24 55 54 55s55 -24 55 -55c0 -30 -25 -54 -55 -54zM0 0v73h138v632h92v-274c0 -54 -3 -124 -11 -179h1c49 146 160 229 273 229c132 0 195 -94 195 -247c0 -78 -5 -158 -13 -234h-675zM229 73h358c4 49 6 103 6 151c0 111 -30 183 -116 183
c-134 0 -230 -173 -248 -334z" />
    <glyph glyph-name="zah.medi" unicode="&#x638;" horiz-adv-x="773" arabic-form="medial" 
d="M0 0v73h138v632h92v-274c0 -54 -3 -124 -11 -179h1c49 146 160 229 273 229c132 0 195 -94 195 -247c0 -54 -2 -108 -6 -161h106v-73h-788zM229 73h358c4 49 6 103 6 151c0 111 -30 183 -116 183c-134 0 -230 -173 -248 -334zM481 577c-30 0 -54 24 -54 54s24 55 54 55
s55 -24 55 -55c0 -30 -25 -54 -55 -54z" />
    <glyph glyph-name="ain.isol" unicode="&#x639;" horiz-adv-x="492" arabic-form="isolated" 
d="M283 -320c-188 0 -268 84 -268 189c0 93 59 162 171 180c-71 22 -132 92 -132 194c0 144 94 238 255 238c63 0 110 -12 110 -12l-15 -74s-42 14 -100 14c-97 0 -157 -61 -157 -161c0 -97 67 -175 222 -175h70v-73h-130c-169 0 -201 -65 -201 -127c0 -68 57 -120 184 -120
c82 0 157 15 157 15l6 -70s-82 -18 -172 -18z" />
    <glyph glyph-name="ain.fina" unicode="&#x639;" horiz-adv-x="626" arabic-form="final" 
d="M311 -258c-194 0 -273 79 -273 172c0 121 131 175 247 231c-63 61 -127 124 -219 154l8 64c78 59 189 120 289 120c136 0 193 -74 193 -155c0 -91 -62 -149 -138 -194c47 -36 98 -61 162 -61h61v-73h-74c-97 0 -165 40 -226 93c-105 -52 -209 -94 -209 -171
c0 -60 52 -107 190 -107c76 0 157 14 157 14l5 -70s-89 -17 -173 -17zM160 334c79 -31 139 -94 200 -151c60 35 104 74 104 133c0 54 -34 98 -111 98c-69 0 -149 -49 -193 -80z" />
    <glyph glyph-name="ain.init" unicode="&#x639;" horiz-adv-x="573" arabic-form="initial" 
d="M0 0v73h193c-60 27 -107 93 -107 177c0 124 81 231 247 231c70 0 130 -22 130 -22l-17 -74s-55 24 -119 24c-88 0 -149 -58 -149 -155c0 -102 79 -181 266 -181h82v-73h-526z" />
    <glyph glyph-name="ain.medi" unicode="&#x639;" horiz-adv-x="626" arabic-form="medial" 
d="M0 0v73h33c111 0 203 20 273 52c-71 67 -138 141 -240 174l8 64c78 59 189 120 289 120c136 0 193 -74 193 -155c0 -70 -41 -146 -120 -207c42 -29 88 -48 144 -48h61v-73h-74c-85 0 -148 31 -203 74c-86 -45 -200 -74 -339 -74h-25zM160 334c87 -33 150 -106 217 -166
c57 43 87 96 87 148c0 54 -34 98 -111 98c-69 0 -149 -49 -193 -80z" />
    <glyph glyph-name="ghain.isol" unicode="&#x63a;" horiz-adv-x="492" arabic-form="isolated" 
d="M269 580c-30 0 -54 24 -54 54s24 55 54 55s55 -24 55 -55c0 -30 -25 -54 -55 -54zM283 -320c-188 0 -268 84 -268 189c0 93 59 162 171 180c-71 22 -132 92 -132 194c0 144 94 238 255 238c63 0 110 -12 110 -12l-15 -74s-42 14 -100 14c-97 0 -157 -61 -157 -161
c0 -97 67 -175 222 -175h70v-73h-130c-169 0 -201 -65 -201 -127c0 -68 57 -120 184 -120c82 0 157 15 157 15l6 -70s-82 -18 -172 -18z" />
    <glyph glyph-name="ghain.fina" unicode="&#x63a;" horiz-adv-x="626" arabic-form="final" 
d="M311 -258c-194 0 -273 79 -273 172c0 121 131 175 247 231c-63 61 -127 124 -219 154l8 64c78 59 189 120 289 120c136 0 193 -74 193 -155c0 -91 -62 -149 -138 -194c47 -36 98 -61 162 -61h61v-73h-74c-97 0 -165 40 -226 93c-105 -52 -209 -94 -209 -171
c0 -60 52 -107 190 -107c76 0 157 14 157 14l5 -70s-89 -17 -173 -17zM160 334c79 -31 139 -94 200 -151c60 35 104 74 104 133c0 54 -34 98 -111 98c-69 0 -149 -49 -193 -80zM344 580c-30 0 -54 24 -54 54s24 55 54 55s55 -24 55 -55c0 -30 -25 -54 -55 -54z" />
    <glyph glyph-name="ghain.init" unicode="&#x63a;" horiz-adv-x="573" arabic-form="initial" 
d="M310 577c-30 0 -54 24 -54 54s24 55 54 55s55 -24 55 -55c0 -30 -25 -54 -55 -54zM0 0v73h193c-60 27 -107 93 -107 177c0 124 81 231 247 231c70 0 130 -22 130 -22l-17 -74s-55 24 -119 24c-88 0 -149 -58 -149 -155c0 -102 79 -181 266 -181h82v-73h-526z" />
    <glyph glyph-name="ghain.medi" unicode="&#x63a;" horiz-adv-x="626" arabic-form="medial" 
d="M0 0v73h33c111 0 203 20 273 52c-71 67 -138 141 -240 174l8 64c78 59 189 120 289 120c136 0 193 -74 193 -155c0 -70 -41 -146 -120 -207c42 -29 88 -48 144 -48h61v-73h-74c-85 0 -148 31 -203 74c-86 -45 -200 -74 -339 -74h-25zM160 334c87 -33 150 -106 217 -166
c57 43 87 96 87 148c0 54 -34 98 -111 98c-69 0 -149 -49 -193 -80zM344 580c-30 0 -54 24 -54 54s24 55 54 55s55 -24 55 -55c0 -30 -25 -54 -55 -54z" />
    <glyph glyph-name="feh.isol" unicode="&#x641;" horiz-adv-x="922" arabic-form="isolated" 
d="M640 579c-30 0 -54 24 -54 54s24 55 54 55s55 -24 55 -55c0 -30 -25 -54 -55 -54zM869 248c0 -140 -95 -248 -243 -248h-213c-253 0 -351 101 -351 291c0 60 15 127 33 166l98 17c-23 -47 -38 -116 -38 -172c0 -152 62 -229 258 -229h55c-42 30 -64 88 -64 164
c0 136 92 244 242 244c127 0 223 -65 223 -233zM776 243c0 105 -46 165 -138 165c-72 0 -141 -50 -141 -165c0 -110 50 -170 140 -170c75 0 139 53 139 170z" />
    <glyph glyph-name="feh.fina" unicode="&#x641;" horiz-adv-x="932" arabic-form="final" 
d="M640 579c-30 0 -54 24 -54 54s24 55 54 55s55 -24 55 -55c0 -30 -25 -54 -55 -54zM947 73v-73h-534c-253 0 -351 101 -351 291c0 60 15 127 33 166l98 17c-23 -47 -38 -116 -38 -172c0 -152 62 -229 258 -229h55c-42 30 -64 88 -64 164c0 136 92 244 242 244
c127 0 223 -65 223 -232c0 -71 -27 -142 -78 -179c0 0 51 3 87 3h69zM776 243c0 105 -46 165 -138 165c-72 0 -141 -50 -141 -165c0 -110 50 -170 140 -170c75 0 139 53 139 170z" />
    <glyph glyph-name="feh.init" unicode="&#x641;" horiz-adv-x="612" arabic-form="initial" 
d="M302 579c-30 0 -54 24 -54 54s24 55 54 55s55 -24 55 -55c0 -30 -25 -54 -55 -54zM527 0h-527v73h79c35 0 58 -5 58 -5c-49 31 -74 84 -74 169c0 130 84 244 250 244c143 0 214 -82 214 -224v-257zM437 73v168c0 120 -49 167 -132 167c-93 0 -149 -66 -149 -166
c0 -114 54 -169 182 -169h99z" />
    <glyph glyph-name="feh.medi" unicode="&#x641;" horiz-adv-x="591" arabic-form="medial" 
d="M299 579c-30 0 -54 24 -54 54s24 55 54 55s55 -24 55 -55c0 -30 -25 -54 -55 -54zM0 0v73h58c34 0 71 -3 71 -3c-42 31 -66 87 -66 167c0 136 92 244 242 244c127 0 223 -65 223 -232c0 -71 -27 -142 -78 -179c0 0 51 3 87 3h69v-73h-606zM296 73c75 0 139 53 139 170
c0 105 -46 165 -138 165c-72 0 -141 -50 -141 -164c0 -111 50 -171 140 -171z" />
    <glyph glyph-name="qaf.isol" unicode="&#x642;" horiz-adv-x="881" arabic-form="isolated" 
d="M794 446v-684s-164 -13 -302 -13c-309 0 -434 92 -434 303c0 61 9 127 25 186l95 18c-19 -66 -28 -134 -28 -194c0 -173 96 -240 354 -240c98 0 200 8 200 8v170h-101c-192 0 -262 91 -262 233c0 132 81 248 252 248c110 0 201 -35 201 -35zM704 73v312s-49 23 -121 23
c-92 0 -149 -66 -149 -165c0 -114 54 -170 182 -170h88zM659 562c-30 0 -54 23 -54 54c0 29 24 53 54 53c29 0 52 -23 52 -53s-23 -54 -52 -54zM511 562c-30 0 -53 23 -53 54c0 29 23 53 53 53c29 0 53 -23 53 -53s-24 -54 -53 -54z" />
    <glyph glyph-name="qaf.fina" unicode="&#x642;" horiz-adv-x="890" arabic-form="final" 
d="M794 446v-373h110v-73h-110v-238s-164 -13 -302 -13c-309 0 -434 92 -434 303c0 61 9 127 25 186l95 18c-19 -66 -28 -134 -28 -194c0 -173 96 -240 354 -240c98 0 200 8 200 8v170h-101c-192 0 -262 91 -262 233c0 132 81 248 252 248c110 0 201 -35 201 -35zM704 73
v312s-49 23 -121 23c-92 0 -149 -66 -149 -165c0 -114 54 -170 182 -170h88zM511 562c-30 0 -53 23 -53 54c0 29 23 53 53 53c29 0 53 -23 53 -53s-24 -54 -53 -54zM659 562c-30 0 -54 23 -54 54c0 29 24 53 54 53c29 0 52 -23 52 -53s-23 -54 -52 -54z" />
    <glyph glyph-name="qaf.init" unicode="&#x642;" horiz-adv-x="612" arabic-form="initial" 
d="M377 562c-30 0 -54 23 -54 54c0 29 24 53 54 53c29 0 52 -23 52 -53s-23 -54 -52 -54zM229 562c-30 0 -53 23 -53 54c0 29 23 53 53 53c29 0 53 -23 53 -53s-24 -54 -53 -54zM527 0h-527v73h79c35 0 58 -5 58 -5c-49 31 -74 84 -74 169c0 130 84 244 250 244
c143 0 214 -82 214 -224v-257zM437 73v168c0 120 -49 167 -132 167c-93 0 -149 -66 -149 -166c0 -114 54 -169 182 -169h99z" />
    <glyph glyph-name="qaf.medi" unicode="&#x642;" horiz-adv-x="591" arabic-form="medial" 
d="M374 562c-30 0 -54 23 -54 54c0 29 24 53 54 53c29 0 52 -23 52 -53s-23 -54 -52 -54zM226 562c-30 0 -53 23 -53 54c0 29 23 53 53 53c29 0 53 -23 53 -53s-24 -54 -53 -54zM0 0v73h58c34 0 71 -3 71 -3c-42 31 -66 87 -66 167c0 136 92 244 242 244
c127 0 223 -65 223 -232c0 -71 -27 -142 -78 -179c0 0 51 3 87 3h69v-73h-606zM296 73c75 0 139 53 139 170c0 105 -46 165 -138 165c-72 0 -141 -50 -141 -164c0 -111 50 -171 140 -171z" />
    <glyph glyph-name="kaf.isol" unicode="&#x643;" horiz-adv-x="851" arabic-form="isolated" 
d="M413 0c-253 0 -351 101 -351 291c0 60 15 127 33 166l98 17c-23 -47 -38 -116 -38 -172c0 -152 60 -229 269 -229h240v632h92v-705h-343zM311 408v57c27 0 53 -2 69 -5c-18 8 -27 30 -27 48c0 49 35 99 127 99c22 0 43 -2 54 -4l-9 -56c-9 1 -29 4 -48 4
c-37 0 -56 -16 -56 -41c0 -26 21 -45 78 -45h54v-57h-242z" />
    <glyph glyph-name="kaf.fina" unicode="&#x643;" horiz-adv-x="851" arabic-form="final" 
d="M413 0c-253 0 -351 101 -351 291c0 60 15 127 33 166l98 17c-23 -47 -38 -116 -38 -172c0 -152 60 -229 269 -229h240v632h92v-632h110v-73h-453zM311 408v57c27 0 53 -2 69 -5c-18 8 -27 30 -27 48c0 49 35 99 127 99c22 0 43 -2 54 -4l-9 -56c-9 1 -29 4 -48 4
c-37 0 -56 -16 -56 -41c0 -26 21 -45 78 -45h54v-57h-242z" />
    <glyph glyph-name="kaf.init" unicode="&#x643;" horiz-adv-x="489" arabic-form="initial" 
d="M0 0v73h321c-3 196 -87 292 -262 342v68l379 238v-93l-272 -167c156 -64 246 -175 246 -410v-51h-412z" />
    <glyph glyph-name="kaf.medi" unicode="&#x643;" horiz-adv-x="489" arabic-form="medial" 
d="M0 0v73h321c-3 196 -87 292 -262 342v68l379 238v-93l-272 -167c151 -62 240 -168 246 -388h92v-73h-504z" />
    <glyph glyph-name="lam.isol" unicode="&#x644;" horiz-adv-x="643" arabic-form="isolated" 
d="M459 51v654h92v-645c0 -206 -103 -291 -247 -291c-138 0 -246 74 -246 279c0 65 9 131 25 190l95 18c-19 -66 -28 -134 -28 -199c0 -171 84 -215 163 -215c80 0 146 50 146 209z" />
    <glyph glyph-name="lam.fina" unicode="&#x644;" horiz-adv-x="643" arabic-form="final" 
d="M459 51v654h92v-632h107v-73h-110c-19 -162 -115 -231 -244 -231c-138 0 -246 74 -246 279c0 65 9 131 25 190l95 18c-19 -66 -28 -134 -28 -199c0 -171 84 -215 163 -215c80 0 146 50 146 209z" />
    <glyph glyph-name="lam.init" unicode="&#x644;" horiz-adv-x="327" arabic-form="initial" 
d="M0 0v73h140v632h92v-705h-232z" />
    <glyph glyph-name="lam.medi" unicode="&#x644;" horiz-adv-x="327" arabic-form="medial" 
d="M0 0v73h140v632h92v-632h110v-73h-342z" />
    <glyph glyph-name="meem.isol" unicode="&#x645;" horiz-adv-x="799" arabic-form="isolated" 
d="M714 0h-202c-182 0 -255 81 -262 211h-28c-71 0 -95 -43 -78 -145l52 -326h-90l-51 318c-21 135 28 226 171 226h28c19 110 101 197 246 197c143 0 214 -82 214 -224v-257zM624 73v168c0 120 -49 167 -132 167c-93 0 -149 -66 -149 -166c0 -114 54 -169 182 -169h99z" />
    <glyph glyph-name="meem.fina" unicode="&#x645;" horiz-adv-x="799" arabic-form="final" 
d="M814 0h-302c-182 0 -255 81 -262 211h-28c-71 0 -95 -43 -78 -145l52 -326h-90l-51 318c-21 135 28 226 171 226h28c19 110 101 197 246 197c143 0 214 -82 214 -224v-184h100v-73zM624 73v168c0 120 -49 167 -132 167c-93 0 -149 -66 -149 -166c0 -114 54 -169 182 -169
h99z" />
    <glyph glyph-name="meem.init" unicode="&#x645;" horiz-adv-x="656" arabic-form="initial" 
d="M571 0h-215c-115 0 -177 31 -208 85c-22 -55 -69 -85 -133 -85h-15v73h19c51 0 88 29 88 147c0 147 85 261 244 261c150 0 220 -84 220 -237v-244zM481 73v156c0 129 -48 179 -137 179s-145 -67 -145 -179c0 -106 48 -156 169 -156h113z" />
    <glyph glyph-name="meem.medi" unicode="&#x645;" horiz-adv-x="656" arabic-form="medial" 
d="M356 0c-115 0 -177 31 -208 85c-22 -55 -69 -85 -133 -85h-15v73h19c51 0 88 29 88 147c0 147 85 261 244 261c150 0 220 -84 220 -237v-171h100v-73h-315zM481 73v156c0 129 -48 179 -137 179s-145 -67 -145 -179c0 -106 48 -156 169 -156h113z" />
    <glyph glyph-name="noon.isol" unicode="&#x646;" horiz-adv-x="658" arabic-form="isolated" 
d="M313 373c-30 0 -54 24 -54 54s24 55 54 55s55 -24 55 -55c0 -30 -25 -54 -55 -54zM571 470v-419c0 -188 -90 -282 -264 -282c-138 0 -249 74 -249 279c0 65 9 131 25 190l95 18c-19 -66 -28 -134 -28 -199c0 -171 87 -215 166 -215c95 0 163 50 163 203v425h92z" />
    <glyph glyph-name="noon.fina" unicode="&#x646;" horiz-adv-x="667" arabic-form="final" 
d="M571 470v-397h111v-73h-114c-15 -154 -104 -231 -261 -231c-138 0 -249 74 -249 279c0 65 9 131 25 190l95 18c-19 -66 -28 -134 -28 -199c0 -171 87 -215 166 -215c95 0 163 50 163 203v425h92zM313 373c-30 0 -54 24 -54 54s24 55 54 55s55 -24 55 -55
c0 -30 -25 -54 -55 -54z" />
    <glyph glyph-name="noon.init" unicode="&#x646;" horiz-adv-x="326" arabic-form="initial" 
d="M192 577c-30 0 -54 24 -54 54s24 55 54 55s55 -24 55 -55c0 -30 -25 -54 -55 -54zM0 0v73h146v397h92v-470h-238z" />
    <glyph glyph-name="noon.medi" unicode="&#x646;" horiz-adv-x="334" arabic-form="medial" 
d="M0 0v73h146v397h92v-397h111v-73h-349zM192 577c-30 0 -54 24 -54 54s24 55 54 55s55 -24 55 -55c0 -30 -25 -54 -55 -54z" />
    <glyph glyph-name="heh.isol" unicode="&#x647;" horiz-adv-x="594" arabic-form="isolated" 
d="M509 0h-202c-192 0 -262 91 -262 233c0 134 84 248 250 248c143 0 214 -82 214 -224v-257zM419 73v168c0 120 -49 167 -132 167c-93 0 -149 -66 -149 -166c0 -114 54 -169 182 -169h99z" />
    <glyph glyph-name="heh.fina" unicode="&#x647;" horiz-adv-x="594" arabic-form="final" 
d="M609 0h-302c-192 0 -262 91 -262 233c0 132 81 248 252 248c110 0 201 -35 201 -35v-373h111v-73zM408 73v312s-49 23 -121 23c-93 0 -149 -66 -149 -165c0 -114 53 -170 182 -170h88z" />
    <glyph glyph-name="heh.init" unicode="&#x647;" horiz-adv-x="765" arabic-form="initial" 
d="M692 0h-692v73h118c21 0 39 -3 39 -3s-41 31 -41 91c0 97 69 166 180 166c119 0 175 -83 175 -210v-44h132v20c0 248 -94 351 -300 351c-65 0 -149 -14 -212 -35l-10 67c68 21 156 37 235 37c241 0 376 -120 376 -420v-93zM391 71v43c0 86 -29 150 -101 150
c-63 0 -93 -42 -93 -93c0 -65 49 -100 112 -100h82z" />
    <glyph glyph-name="heh.medi" unicode="&#x647;" horiz-adv-x="765" arabic-form="medial" 
d="M780 0h-780v73h118c20 0 37 -3 38 -3c-2 1 -40 32 -40 91c0 97 69 166 180 166c119 0 175 -83 175 -210v-44h132v20c0 248 -94 351 -300 351c-65 0 -149 -14 -212 -35l-10 67c68 21 156 37 235 37c241 0 376 -120 376 -420v-20h88v-73zM391 71v43c0 86 -29 150 -101 150
c-63 0 -93 -42 -93 -93c0 -65 49 -100 112 -100h82z" />
    <glyph glyph-name="waw.isol" unicode="&#x648;" horiz-adv-x="585" arabic-form="isolated" 
d="M207 -253c-77 0 -156 15 -156 15l6 77s84 -19 160 -19c109 0 191 41 191 156v24h-101c-192 0 -262 91 -262 233c0 132 81 248 252 248c110 0 201 -35 201 -35v-465c0 -117 -76 -234 -291 -234zM408 73v312s-49 23 -121 23c-93 0 -149 -66 -149 -165
c0 -114 53 -170 182 -170h88z" />
    <glyph glyph-name="waw.fina" unicode="&#x648;" horiz-adv-x="594" arabic-form="final" 
d="M207 -253c-77 0 -156 15 -156 15l6 77s84 -19 160 -19c109 0 191 41 191 156v24h-101c-192 0 -262 91 -262 233c0 132 81 248 252 248c110 0 201 -35 201 -35v-373h111v-73h-111v-19c0 -117 -76 -234 -291 -234zM408 73v312s-49 23 -121 23c-93 0 -149 -66 -149 -165
c0 -114 53 -170 182 -170h88z" />
    <glyph glyph-name="alefmaksura.isol" unicode="&#x649;" horiz-adv-x="1000" arabic-form="isolated" 
d="M599 0h-186c-253 0 -351 101 -351 291c0 60 15 127 33 166l98 17c-23 -47 -38 -116 -38 -172c0 -152 60 -229 269 -229h85v389s88 19 183 19c167 0 223 -82 223 -219v-134h-90v122c0 114 -41 158 -142 158c-41 0 -84 -8 -84 -8v-400z" />
    <glyph glyph-name="alefmaksura.fina" unicode="&#x649;" horiz-adv-x="1000" arabic-form="final" 
d="M599 0h-186c-253 0 -351 101 -351 291c0 60 15 127 33 166l98 17c-23 -47 -38 -116 -38 -172c0 -152 60 -229 269 -229h85v389s88 19 183 19c167 0 223 -82 223 -219v-189h100v-73h-190v250c0 114 -41 158 -142 158c-41 0 -84 -8 -84 -8v-400z" />
    <glyph glyph-name="yeh.isol" unicode="&#x64a;" horiz-adv-x="1000" arabic-form="isolated" 
d="M523 -149c0 -30 -23 -54 -52 -54c-30 0 -54 23 -54 54c0 29 24 53 54 53c29 0 52 -23 52 -53zM376 -149c0 -30 -24 -54 -53 -54c-30 0 -53 23 -53 54c0 29 23 53 53 53c29 0 53 -23 53 -53zM599 0h-186c-253 0 -351 101 -351 291c0 60 15 127 33 166l98 17
c-23 -47 -38 -116 -38 -172c0 -152 60 -229 269 -229h85v389s88 19 183 19c167 0 223 -82 223 -219v-134h-90v122c0 114 -41 158 -142 158c-41 0 -84 -8 -84 -8v-400z" />
    <glyph glyph-name="yeh.fina" unicode="&#x64a;" horiz-adv-x="1000" arabic-form="final" 
d="M599 0h-186c-253 0 -351 101 -351 291c0 60 15 127 33 166l98 17c-23 -47 -38 -116 -38 -172c0 -152 60 -229 269 -229h85v389s88 19 183 19c167 0 223 -82 223 -219v-189h100v-73h-190v250c0 114 -41 158 -142 158c-41 0 -84 -8 -84 -8v-400zM376 -149
c0 -30 -24 -54 -53 -54c-30 0 -53 23 -53 54c0 29 23 53 53 53c29 0 53 -23 53 -53zM523 -149c0 -30 -23 -54 -52 -54c-30 0 -54 23 -54 54c0 29 24 53 54 53c29 0 52 -23 52 -53z" />
    <glyph glyph-name="yeh.init" unicode="&#x64a;" horiz-adv-x="380" arabic-form="initial" 
d="M285 -149c0 -30 -23 -54 -52 -54c-30 0 -54 23 -54 54c0 29 24 53 54 53c29 0 52 -23 52 -53zM138 -149c0 -30 -24 -54 -53 -54c-30 0 -53 23 -53 54c0 29 23 53 53 53c29 0 53 -23 53 -53zM0 0v73h201v397h92v-470h-293z" />
    <glyph glyph-name="yeh.medi" unicode="&#x64a;" horiz-adv-x="389" arabic-form="medial" 
d="M0 0v73h201v397h92v-397h110v-73h-403zM138 -149c0 -30 -24 -54 -53 -54c-30 0 -53 23 -53 54c0 29 23 53 53 53c29 0 53 -23 53 -53zM285 -149c0 -30 -23 -54 -52 -54c-30 0 -54 23 -54 54c0 29 24 53 54 53c29 0 52 -23 52 -53z" />
    <glyph glyph-name="fathatan" unicode="&#xfe70;" horiz-adv-x="0" arabic-form="isolated" 
d="M-112 0v51l224 32v-51zM-111 94v51l224 32v-51z" />
    <glyph glyph-name="dammatan" unicode="&#xfe72;" horiz-adv-x="0" arabic-form="isolated" 
d="M-113 0l-28 134l46 10l21 -92l53 11s-6 23 -6 43c0 51 40 88 92 88c47 0 77 -31 77 -72c0 -48 -33 -75 -80 -85zM27 73l30 6c22 5 37 21 37 40c0 18 -11 31 -32 31c-26 0 -42 -18 -42 -42c0 -17 7 -35 7 -35z" />
    <glyph glyph-name="kasratan" unicode="&#xfe74;" horiz-adv-x="0" arabic-form="isolated" 
d="M-112 -177v51l224 32v-51zM-111 -83v51l224 32v-51z" />
    <glyph glyph-name="fatha" unicode="&#xfe76;" horiz-adv-x="0" arabic-form="isolated" 
d="M-112 0v56l224 32v-56z" />
    <glyph glyph-name="damma" unicode="&#xfe78;" horiz-adv-x="0" arabic-form="isolated" 
d="M-111 0l-9 41l78 17s-6 23 -6 43c0 51 40 88 92 88c47 0 77 -31 77 -72c0 -48 -33 -75 -80 -85zM6 68l30 6c22 5 37 21 37 40c0 18 -11 31 -32 31c-26 0 -42 -18 -42 -42c0 -17 7 -35 7 -35z" />
    <glyph glyph-name="kasra" unicode="&#xfe7a;" horiz-adv-x="0" arabic-form="isolated" 
d="M-112 -88v56l224 32v-56z" />
    <glyph glyph-name="shadda" unicode="&#xfe7c;" horiz-adv-x="0" arabic-form="isolated" 
d="M1 35c-12 -21 -39 -35 -66 -35c-29 0 -53 18 -60 64l-7 52l48 7l7 -50c3 -18 12 -29 25 -29c20 1 32 16 29 38l-8 51l48 7l8 -52c4 -19 14 -30 29 -30c25 0 31 20 28 45l-8 53l48 7l8 -51c9 -53 -19 -98 -82 -98c-16 0 -37 8 -47 21z" />
    <glyph glyph-name="sukun" unicode="&#xfe7e;" horiz-adv-x="0" arabic-form="isolated" 
d="M-39 80c0 -23 17 -38 40 -38s37 17 37 40s-16 38 -39 38c-22 0 -38 -17 -38 -40zM-89 80c0 47 42 82 90 82c51 0 88 -28 88 -80c0 -47 -42 -82 -90 -82c-51 0 -88 28 -88 80z" />
    <glyph glyph-name="alef_wasla.isol" unicode="&#x671;" horiz-adv-x="282" arabic-form="isolated" 
d="M187 696v-696h-92v696h92zM91 820h123v13c0 57 -15 75 -42 75c-42 0 -69 -42 -81 -88zM-22 767v53h54c23 78 70 140 149 140c61 0 96 -33 96 -126v-67h-299z" />
    <glyph glyph-name="alef_wasla.fina" unicode="&#x671;" horiz-adv-x="282" arabic-form="final" 
d="M95 0v696h92v-623h110v-73h-202zM91 820h123v13c0 57 -15 75 -42 75c-42 0 -69 -42 -81 -88zM-22 767v53h54c23 78 70 140 149 140c61 0 96 -33 96 -126v-67h-299z" />
    <glyph glyph-name="tteh.isol" unicode="&#x679;" horiz-adv-x="773" arabic-form="isolated" 
d="M686 0h-273c-253 0 -351 101 -351 291c0 60 15 127 33 166l98 17c-23 -47 -38 -116 -38 -172c0 -152 60 -229 269 -229h170v397h92v-470zM496 660c0 32 -13 54 -43 54c-52 0 -103 -65 -110 -121h73c57 0 80 27 80 67zM344 830v-83c0 -18 -3 -42 -7 -63h1
c26 44 74 77 123 77c61 0 95 -35 95 -94c0 -73 -50 -120 -148 -120h-122v283h58z" />
    <glyph glyph-name="uniFB67" unicode="&#x679;" horiz-adv-x="782" arabic-form="final" 
d="M413 0c-253 0 -351 101 -351 291c0 60 15 127 33 166l98 17c-23 -47 -38 -116 -38 -172c0 -152 60 -229 269 -229h170v397h92v-397h110v-73h-383zM344 830v-83c0 -18 -3 -42 -7 -63h1c26 44 74 77 123 77c61 0 95 -35 95 -94c0 -73 -50 -120 -148 -120h-122v283h58z
M496 660c0 32 -13 54 -43 54c-52 0 -103 -65 -110 -121h73c57 0 80 27 80 67z" />
    <glyph glyph-name="uniFB68" unicode="&#x679;" horiz-adv-x="380" arabic-form="initial" 
d="M0 0v73h201v397h92v-470h-293zM277 690c0 32 -13 54 -43 54c-52 0 -103 -65 -110 -121h73c57 0 80 27 80 67zM125 860v-83c0 -18 -3 -42 -7 -63h1c26 44 74 77 123 77c61 0 95 -35 95 -94c0 -73 -50 -120 -148 -120h-122v283h58z" />
    <glyph glyph-name="uniFB69" unicode="&#x679;" horiz-adv-x="389" arabic-form="medial" 
d="M0 0v73h201v397h92v-397h110v-73h-403zM125 860v-83c0 -18 -3 -42 -7 -63h1c26 44 74 77 123 77c61 0 95 -35 95 -94c0 -73 -50 -120 -148 -120h-122v283h58zM277 690c0 32 -13 54 -43 54c-52 0 -103 -65 -110 -121h73c57 0 80 27 80 67z" />
    <glyph glyph-name="peh.isol" unicode="&#x67e;" horiz-adv-x="773" arabic-form="isolated" 
d="M415 -271c-27 0 -49 21 -49 48c0 28 22 49 49 49s49 -21 49 -49c0 -27 -22 -48 -49 -48zM488 -163c-28 0 -51 22 -51 51c0 28 23 50 51 50s50 -21 50 -50c0 -28 -22 -51 -50 -51zM342 -163c-28 0 -50 22 -50 51c0 28 22 50 50 50s50 -21 50 -50c0 -28 -22 -51 -50 -51z
M686 0h-273c-253 0 -351 101 -351 291c0 60 15 127 33 166l98 17c-23 -47 -38 -116 -38 -172c0 -152 60 -229 269 -229h170v397h92v-470z" />
    <glyph glyph-name="peh.fina" unicode="&#x67e;" horiz-adv-x="782" arabic-form="final" 
d="M413 0c-253 0 -351 101 -351 291c0 60 15 127 33 166l98 17c-23 -47 -38 -116 -38 -172c0 -152 60 -229 269 -229h170v397h92v-397h110v-73h-383zM488 -163c-28 0 -51 22 -51 51c0 28 23 50 51 50s50 -21 50 -50c0 -28 -22 -51 -50 -51zM342 -163c-28 0 -50 22 -50 51
c0 28 22 50 50 50s50 -21 50 -50c0 -28 -22 -51 -50 -51zM415 -271c-27 0 -49 21 -49 48c0 28 22 49 49 49s49 -21 49 -49c0 -27 -22 -48 -49 -48z" />
    <glyph glyph-name="peh.init" unicode="&#x67e;" horiz-adv-x="380" arabic-form="initial" 
d="M176 -271c-27 0 -49 21 -49 48c0 28 22 49 49 49s49 -21 49 -49c0 -27 -22 -48 -49 -48zM249 -163c-28 0 -51 22 -51 51c0 28 23 50 51 50s50 -21 50 -50c0 -28 -22 -51 -50 -51zM103 -163c-28 0 -50 22 -50 51c0 28 22 50 50 50s50 -21 50 -50c0 -28 -22 -51 -50 -51z
M0 0v73h201v397h92v-470h-293z" />
    <glyph glyph-name="peh.medi" unicode="&#x67e;" horiz-adv-x="389" arabic-form="medial" 
d="M0 0v73h201v397h92v-397h110v-73h-403zM249 -163c-28 0 -51 22 -51 51c0 28 23 50 51 50s50 -21 50 -50c0 -28 -22 -51 -50 -51zM103 -163c-28 0 -50 22 -50 51c0 28 22 50 50 50s50 -21 50 -50c0 -28 -22 -51 -50 -51zM176 -271c-27 0 -49 21 -49 48c0 28 22 49 49 49
s49 -21 49 -49c0 -27 -22 -48 -49 -48z" />
    <glyph glyph-name="tcheh.isol" unicode="&#x686;" horiz-adv-x="602" arabic-form="isolated" 
d="M519 0h-194c-170 0 -213 -55 -213 -126c0 -60 45 -103 128 -116l-19 -75c-123 18 -200 84 -200 184c0 118 82 206 309 206h107c4 35 7 70 7 103c0 151 -55 225 -219 225c-40 0 -74 -2 -111 -7v72c33 5 76 8 119 8c221 0 302 -101 302 -291c0 -48 -4 -111 -16 -183z
M380 -270c-27 0 -49 21 -49 48c0 28 22 49 49 49s49 -21 49 -49c0 -27 -22 -48 -49 -48zM453 -162c-28 0 -51 22 -51 51c0 28 23 50 51 50s50 -21 50 -50c0 -28 -22 -51 -50 -51zM307 -162c-28 0 -50 22 -50 51c0 28 22 50 50 50s50 -21 50 -50c0 -28 -22 -51 -50 -51z" />
    <glyph glyph-name="tcheh.fina" unicode="&#x686;" horiz-adv-x="607" arabic-form="final" 
d="M622 0h-297c-170 0 -213 -55 -213 -126c0 -60 45 -103 128 -116l-19 -75c-123 18 -200 84 -200 184c0 118 82 206 309 206h107c4 35 7 70 7 103c0 151 -55 225 -219 225c-40 0 -74 -2 -111 -7v72c33 5 76 8 119 8c221 0 302 -101 302 -291c0 -31 -2 -68 -6 -110h93v-73z
M453 -162c-28 0 -51 22 -51 51c0 28 23 50 51 50s50 -21 50 -50c0 -28 -22 -51 -50 -51zM307 -162c-28 0 -50 22 -50 51c0 28 22 50 50 50s50 -21 50 -50c0 -28 -22 -51 -50 -51zM380 -270c-27 0 -49 21 -49 48c0 28 22 49 49 49s49 -21 49 -49c0 -27 -22 -48 -49 -48z" />
    <glyph glyph-name="tcheh.init" unicode="&#x686;" horiz-adv-x="578" arabic-form="initial" 
d="M237 -270c-27 0 -49 21 -49 48c0 28 22 49 49 49s49 -21 49 -49c0 -27 -22 -48 -49 -48zM310 -162c-28 0 -51 22 -51 51c0 28 23 50 51 50s50 -21 50 -50c0 -28 -22 -51 -50 -51zM164 -162c-28 0 -50 22 -50 51c0 28 22 50 50 50s50 -21 50 -50c0 -28 -22 -51 -50 -51z
M0 0v73h413c4 35 7 70 7 103c0 151 -55 225 -219 225c-40 0 -74 -2 -111 -7v72c33 5 75 8 119 8c220 0 302 -101 302 -291c0 -48 -4 -111 -16 -183h-495z" />
    <glyph glyph-name="tcheh.medi" unicode="&#x686;" horiz-adv-x="582" arabic-form="medial" 
d="M0 0v73h413c4 35 7 70 7 103c0 151 -55 225 -219 225c-40 0 -74 -2 -111 -7v72c33 5 75 8 119 8c220 0 302 -101 302 -291c0 -31 -2 -68 -6 -110h92v-73h-597zM310 -162c-28 0 -51 22 -51 51c0 28 23 50 51 50s50 -21 50 -50c0 -28 -22 -51 -50 -51zM164 -162
c-28 0 -50 22 -50 51c0 28 22 50 50 50s50 -21 50 -50c0 -28 -22 -51 -50 -51zM237 -270c-27 0 -49 21 -49 48c0 28 22 49 49 49s49 -21 49 -49c0 -27 -22 -48 -49 -48z" />
    <glyph glyph-name="ddal.isol" unicode="&#x688;" horiz-adv-x="527" arabic-form="isolated" 
d="M52 0v73h321c-3 183 -75 285 -252 339l23 78c217 -67 320 -189 320 -440v-50h-412zM330 690c0 32 -13 54 -43 54c-52 0 -103 -65 -110 -121h73c57 0 80 27 80 67zM178 860v-83c0 -18 -3 -42 -7 -63h1c26 44 74 77 123 77c61 0 95 -35 95 -94c0 -73 -50 -120 -148 -120
h-122v283h58z" />
    <glyph glyph-name="ddal.fina" unicode="&#x688;" horiz-adv-x="527" arabic-form="final" 
d="M52 0v73h321c-3 183 -75 285 -252 339l23 78c210 -65 314 -182 320 -417h77v-73h-489zM178 860v-83c0 -18 -3 -42 -7 -63h1c26 44 74 77 123 77c61 0 95 -35 95 -94c0 -73 -50 -120 -148 -120h-122v283h58zM330 690c0 32 -13 54 -43 54c-52 0 -103 -65 -110 -121h73
c57 0 80 27 80 67z" />
    <glyph glyph-name="uni0691" unicode="&#x691;" horiz-adv-x="409" arabic-form="isolated" 
d="M90 -257c-37 0 -74 6 -104 14l11 76c30 -11 63 -17 100 -17c83 0 133 40 133 171v483h92v-475c0 -142 -52 -252 -232 -252zM350 690c0 32 -13 54 -43 54c-52 0 -103 -65 -110 -121h73c57 0 80 27 80 67zM198 860v-83c0 -18 -3 -42 -7 -63h1c26 44 74 77 123 77
c61 0 95 -35 95 -94c0 -73 -50 -120 -148 -120h-122v283h58z" />
    <glyph glyph-name="uniFB8D" unicode="&#x691;" horiz-adv-x="418" arabic-form="final" 
d="M90 -257c-37 0 -74 6 -104 14l11 76c30 -11 63 -17 100 -17c83 0 133 40 133 171v483h92v-397h111v-73h-111v-5c0 -142 -52 -252 -232 -252zM198 860v-83c0 -18 -3 -42 -7 -63h1c26 44 74 77 123 77c61 0 95 -35 95 -94c0 -73 -50 -120 -148 -120h-122v283h58zM350 690
c0 32 -13 54 -43 54c-52 0 -103 -65 -110 -121h73c57 0 80 27 80 67z" />
    <glyph glyph-name="uni0698" unicode="&#x698;" horiz-adv-x="409" arabic-form="isolated" 
d="M269 681c-29 0 -51 22 -51 51s22 52 51 52c28 0 50 -23 50 -52c0 -28 -22 -51 -50 -51zM343 562c-30 0 -53 23 -53 54c0 29 23 53 53 53c29 0 53 -23 53 -53s-24 -54 -53 -54zM195 562c-30 0 -53 23 -53 54c0 29 23 53 53 53s53 -23 53 -53s-23 -54 -53 -54zM90 -257
c-37 0 -74 6 -104 14l11 76c30 -11 63 -17 100 -17c83 0 133 40 133 171v483h92v-475c0 -142 -52 -252 -232 -252z" />
    <glyph glyph-name="uniFB8B" unicode="&#x698;" horiz-adv-x="418" arabic-form="final" 
d="M90 -257c-37 0 -74 6 -104 14l11 76c30 -11 63 -17 100 -17c83 0 133 40 133 171v483h92v-397h111v-73h-111v-5c0 -142 -52 -252 -232 -252zM195 562c-30 0 -53 23 -53 54c0 29 23 53 53 53s53 -23 53 -53s-23 -54 -53 -54zM343 562c-30 0 -53 23 -53 54
c0 29 23 53 53 53c29 0 53 -23 53 -53s-24 -54 -53 -54zM269 681c-29 0 -51 22 -51 51s22 52 51 52c28 0 50 -23 50 -52c0 -28 -22 -51 -50 -51z" />
    <glyph glyph-name="veh.isol" unicode="&#x6a4;" horiz-adv-x="922" arabic-form="isolated" 
d="M640 681c-29 0 -51 22 -51 51s22 52 51 52c28 0 50 -23 50 -52c0 -28 -22 -51 -50 -51zM714 562c-30 0 -53 23 -53 54c0 29 23 53 53 53c29 0 53 -23 53 -53s-24 -54 -53 -54zM566 562c-30 0 -53 23 -53 54c0 29 23 53 53 53s53 -23 53 -53s-23 -54 -53 -54zM869 248
c0 -140 -95 -248 -243 -248h-213c-253 0 -351 101 -351 291c0 60 15 127 33 166l98 17c-23 -47 -38 -116 -38 -172c0 -152 62 -229 258 -229h55c-42 30 -64 88 -64 164c0 136 92 244 242 244c127 0 223 -65 223 -233zM776 243c0 105 -46 165 -138 165
c-72 0 -141 -50 -141 -165c0 -110 50 -170 140 -170c75 0 139 53 139 170z" />
    <glyph glyph-name="veh.fina" unicode="&#x6a4;" horiz-adv-x="932" arabic-form="final" 
d="M640 681c-29 0 -51 22 -51 51s22 52 51 52c28 0 50 -23 50 -52c0 -28 -22 -51 -50 -51zM714 562c-30 0 -53 23 -53 54c0 29 23 53 53 53c29 0 53 -23 53 -53s-24 -54 -53 -54zM566 562c-30 0 -53 23 -53 54c0 29 23 53 53 53s53 -23 53 -53s-23 -54 -53 -54zM947 73v-73
h-534c-253 0 -351 101 -351 291c0 60 15 127 33 166l98 17c-23 -47 -38 -116 -38 -172c0 -152 62 -229 258 -229h55c-42 30 -64 88 -64 164c0 136 92 244 242 244c127 0 223 -65 223 -232c0 -71 -27 -142 -78 -179c0 0 51 3 87 3h69zM776 243c0 105 -46 165 -138 165
c-72 0 -141 -50 -141 -165c0 -110 50 -170 140 -170c75 0 139 53 139 170z" />
    <glyph glyph-name="veh.init" unicode="&#x6a4;" horiz-adv-x="612" arabic-form="initial" 
d="M302 681c-29 0 -51 22 -51 51s22 52 51 52c28 0 50 -23 50 -52c0 -28 -22 -51 -50 -51zM376 562c-30 0 -53 23 -53 54c0 29 23 53 53 53c29 0 53 -23 53 -53s-24 -54 -53 -54zM228 562c-30 0 -53 23 -53 54c0 29 23 53 53 53s53 -23 53 -53s-23 -54 -53 -54zM527 0h-527
v73h79c35 0 58 -5 58 -5c-49 31 -74 84 -74 169c0 130 84 244 250 244c143 0 214 -82 214 -224v-257zM437 73v168c0 120 -49 167 -132 167c-93 0 -149 -66 -149 -166c0 -114 54 -169 182 -169h99z" />
    <glyph glyph-name="veh.medi" unicode="&#x6a4;" horiz-adv-x="591" arabic-form="medial" 
d="M299 681c-29 0 -51 22 -51 51s22 52 51 52c28 0 50 -23 50 -52c0 -28 -22 -51 -50 -51zM373 562c-30 0 -53 23 -53 54c0 29 23 53 53 53c29 0 53 -23 53 -53s-24 -54 -53 -54zM225 562c-30 0 -53 23 -53 54c0 29 23 53 53 53s53 -23 53 -53s-23 -54 -53 -54zM0 0v73h58
c34 0 71 -3 71 -3c-42 31 -66 87 -66 167c0 136 92 244 242 244c127 0 223 -65 223 -232c0 -71 -27 -142 -78 -179c0 0 51 3 87 3h69v-73h-606zM296 73c75 0 139 53 139 170c0 105 -46 165 -138 165c-72 0 -141 -50 -141 -164c0 -111 50 -171 140 -171z" />
    <glyph glyph-name="kheh.isol" unicode="&#x6a9;" horiz-adv-x="847" arabic-form="isolated" 
d="M770 0h-357c-253 0 -351 101 -351 291c0 60 15 127 33 166l98 17c-23 -47 -38 -116 -38 -172c0 -152 60 -229 269 -229h255c-3 196 -87 292 -262 342v68l379 238v-93l-272 -167c155 -64 246 -175 246 -410v-51z" />
    <glyph glyph-name="kheh.fina" unicode="&#x6a9;" horiz-adv-x="847" arabic-form="final" 
d="M862 0h-449c-253 0 -351 101 -351 291c0 60 15 127 33 166l98 17c-23 -47 -38 -116 -38 -172c0 -152 60 -229 269 -229h255c-3 196 -87 292 -262 342v68l379 238v-93l-272 -167c150 -62 240 -168 246 -388h92v-73z" />
    <glyph glyph-name="kheh.init" unicode="&#x6a9;" horiz-adv-x="489" arabic-form="initial" 
d="M0 0v73h321c-3 196 -87 292 -262 342v68l379 238v-93l-272 -167c156 -64 246 -175 246 -410v-51h-412z" />
    <glyph glyph-name="kheh.medi" unicode="&#x6a9;" horiz-adv-x="489" arabic-form="medial" 
d="M0 0v73h321c-3 196 -87 292 -262 342v68l379 238v-93l-272 -167c151 -62 240 -168 246 -388h92v-73h-504z" />
    <glyph glyph-name="Gaf.isol" unicode="&#x6af;" horiz-adv-x="847" arabic-form="isolated" 
d="M770 0h-357c-253 0 -351 101 -351 291c0 60 15 127 33 166l98 17c-23 -47 -38 -116 -38 -172c0 -152 60 -229 269 -229h255c-3 196 -87 292 -262 342v62l379 238v-87l-272 -167c155 -64 246 -175 246 -410v-51zM417 566v84l379 238v-84z" />
    <glyph glyph-name="Gaf.fina" unicode="&#x6af;" horiz-adv-x="847" arabic-form="final" 
d="M862 0h-449c-253 0 -351 101 -351 291c0 60 15 127 33 166l98 17c-23 -47 -38 -116 -38 -172c0 -152 60 -229 269 -229h255c-3 196 -87 292 -262 342v62l379 238v-87l-272 -167c150 -62 240 -168 246 -388h92v-73zM417 566v84l379 238v-84z" />
    <glyph glyph-name="Gaf.init" unicode="&#x6af;" horiz-adv-x="489" arabic-form="initial" 
d="M0 0v73h321c-3 196 -87 292 -262 342v62l379 238v-87l-272 -167c156 -64 246 -175 246 -410v-51h-412zM59 566v84l379 238v-84z" />
    <glyph glyph-name="Gaf.medi" unicode="&#x6af;" horiz-adv-x="489" arabic-form="medial" 
d="M0 0v73h321c-3 196 -87 292 -262 342v62l379 238v-87l-272 -167c151 -62 240 -168 246 -388h92v-73h-504zM59 566v84l379 238v-84z" />
    <glyph glyph-name="ghunna.isol" unicode="&#x6ba;" horiz-adv-x="658" arabic-form="isolated" 
d="M571 470v-419c0 -188 -90 -282 -264 -282c-138 0 -249 74 -249 279c0 65 9 131 25 190l95 18c-19 -66 -28 -134 -28 -199c0 -171 87 -215 166 -215c95 0 163 50 163 203v425h92z" />
    <glyph glyph-name="ghunna.fina" unicode="&#x6ba;" horiz-adv-x="667" arabic-form="final" 
d="M571 470v-397h111v-73h-114c-15 -154 -104 -231 -261 -231c-138 0 -249 74 -249 279c0 65 9 131 25 190l95 18c-19 -66 -28 -134 -28 -199c0 -171 87 -215 166 -215c95 0 163 50 163 203v425h92z" />
    <glyph glyph-name="uni06BE" unicode="&#x6be;" horiz-adv-x="765" arabic-form="isolated" 
d="M692 0h-692v73h112c20 0 37 -3 38 -3c-1 1 -34 30 -34 82c0 97 67 161 175 161c120 0 173 -85 173 -203v-37h139v20c0 248 -94 349 -300 349c-65 0 -149 -14 -212 -35l-10 68c68 21 156 36 235 36c241 0 376 -118 376 -418v-93zM384 71v36c0 89 -31 144 -99 144
c-58 0 -88 -38 -88 -89c0 -64 49 -91 105 -91h82z" />
    <glyph glyph-name="uniFBAB" unicode="&#x6be;" horiz-adv-x="661" arabic-form="final" 
d="M676 73v-73h-124c-23 0 -44 2 -73 4v-1c61 -18 101 -64 101 -134c0 -118 -79 -189 -205 -189c-169 0 -250 124 -259 320h-116v73h116c8 166 78 325 218 423c138 -77 226 -170 226 -274c0 -79 -33 -130 -81 -151v-1c28 2 49 3 74 3h123zM339 388
c-77 -67 -128 -184 -133 -315h112c116 0 152 65 152 136c0 75 -60 134 -131 179zM307 0h-100c10 -166 71 -247 175 -247c69 0 106 44 106 111c0 78 -67 136 -181 136z" />
    <glyph glyph-name="hehhamza" unicode="&#x6c0;" horiz-adv-x="594" arabic-form="isolated" 
d="M509 0h-202c-192 0 -262 91 -262 233c0 134 84 248 250 248c143 0 214 -82 214 -224v-257zM419 73v168c0 120 -49 167 -132 167c-93 0 -149 -66 -149 -166c0 -114 54 -169 182 -169h99zM153 566v57c27 0 53 -2 69 -5c-18 8 -27 30 -27 48c0 49 35 99 127 99
c22 0 43 -2 54 -4l-9 -56c-9 1 -29 4 -48 4c-37 0 -56 -16 -56 -41c0 -26 21 -45 78 -45h54v-57h-242z" />
    <glyph glyph-name="hehhamza.fina" unicode="&#x6c0;" horiz-adv-x="594" arabic-form="final" 
d="M609 0h-302c-192 0 -262 91 -262 233c0 132 81 248 252 248c110 0 201 -35 201 -35v-373h111v-73zM408 73v312s-49 23 -121 23c-93 0 -149 -66 -149 -165c0 -114 53 -170 182 -170h88zM153 566v57c27 0 53 -2 69 -5c-18 8 -27 30 -27 48c0 49 35 99 127 99
c22 0 43 -2 54 -4l-9 -56c-9 1 -29 4 -48 4c-37 0 -56 -16 -56 -41c0 -26 21 -45 78 -45h54v-57h-242z" />
    <glyph glyph-name="uni06C1" unicode="&#x6c1;" horiz-adv-x="594" arabic-form="isolated" 
d="M509 0h-202c-192 0 -262 91 -262 233c0 134 84 248 250 248c143 0 214 -82 214 -224v-257zM419 73v168c0 120 -49 167 -132 167c-93 0 -149 -66 -149 -166c0 -114 54 -169 182 -169h99z" />
    <glyph glyph-name="hehfinaltone" unicode="&#x6c1;" horiz-adv-x="557" arabic-form="final" 
d="M572 73v-73h-26c-146 0 -217 69 -217 216v48c-86 -15 -160 -66 -219 -160l-61 49c78 115 193 193 339 193c14 0 31 -1 31 -1v-110c0 -117 40 -162 135 -162h18z" />
    <glyph glyph-name="hehinitialaltone" unicode="&#x6c1;" horiz-adv-x="326" arabic-form="initial" 
d="M110 -240c-31 0 -51 25 -51 57c0 40 27 90 109 134l23 -34c-35 -26 -46 -49 -46 -67c0 -21 12 -24 12 -44c0 -24 -17 -46 -47 -46zM0 0v73h146v397h92v-470h-238z" />
    <glyph glyph-name="hehmedialaltone" unicode="&#x6c1;" horiz-adv-x="705" arabic-form="medial" 
d="M720 73v-73h-127v-261h-88c-175 0 -281 96 -281 266c0 35 3 75 9 107l-2 1c-28 -69 -88 -113 -170 -113h-61v73h72c91 0 151 84 151 198v99h89v-347c0 -140 67 -211 191 -212v262h217zM95 -263c-33 0 -53 27 -53 61c0 36 19 86 90 144l30 -30c-29 -29 -39 -55 -39 -71
c0 -26 19 -29 19 -57c0 -24 -19 -47 -47 -47z" />
    <glyph glyph-name="uni06CC" unicode="&#x6cc;" horiz-adv-x="1057" arabic-form="isolated" 
d="M599 0h-186c-253 0 -351 101 -351 291c0 60 15 127 33 166l98 17c-23 -47 -38 -116 -38 -172c0 -152 60 -229 269 -229h85v389s88 19 183 19c167 0 223 -82 223 -219v-134h-90v122c0 114 -41 158 -142 158c-41 0 -84 -8 -84 -8v-400z" />
    <glyph glyph-name="alefmaksura.init" unicode="&#x649;" horiz-adv-x="326" arabic-form="initial" 
d="M0 0v73h146v397h92v-470h-238z" />
    <glyph glyph-name="alefmaksura.medi" unicode="&#x649;" horiz-adv-x="334" arabic-form="medial" 
d="M0 0v73h146v397h92v-397h111v-73h-349z" />
    <glyph glyph-name="uniFBFD" unicode="&#x6cc;" horiz-adv-x="576" arabic-form="final" 
d="M386 0v73h205v-73h-89c20 -10 34 -38 34 -72c0 -69 -62 -169 -229 -169c-141 0 -249 79 -249 283c0 71 9 137 25 196l95 18c-19 -66 -28 -134 -28 -205c0 -171 84 -219 167 -219c94 0 128 58 127 102c-1 39 -24 66 -58 66z" />
    <glyph glyph-name="uniFBFE" unicode="&#x6cc;" horiz-adv-x="380" arabic-form="initial" 
d="M285 -149c0 -30 -23 -54 -52 -54c-30 0 -54 23 -54 54c0 29 24 53 54 53c29 0 52 -23 52 -53zM138 -149c0 -30 -24 -54 -53 -54c-30 0 -53 23 -53 54c0 29 23 53 53 53c29 0 53 -23 53 -53zM0 0v73h201v397h92v-470h-293z" />
    <glyph glyph-name="uniFBFF" unicode="&#x6cc;" horiz-adv-x="389" arabic-form="medial" 
d="M0 0v73h201v397h92v-397h110v-73h-403zM138 -149c0 -30 -24 -54 -53 -54c-30 0 -53 23 -53 54c0 29 23 53 53 53c29 0 53 -23 53 -53zM285 -149c0 -30 -23 -54 -52 -54c-30 0 -54 23 -54 54c0 29 24 53 54 53c29 0 52 -23 52 -53z" />
    <glyph glyph-name="yehbarree" unicode="&#x6d2;" horiz-adv-x="750" arabic-form="isolated" 
d="M688 0h-613c-23 235 117 481 317 481c121 0 159 -70 159 -166v-65h-90v43c0 73 -19 114 -85 114c-123 0 -212 -191 -212 -334h524v-73z" />
    <glyph glyph-name="yehbarree.fina" unicode="&#x6d2;" horiz-adv-x="781" arabic-form="final" 
d="M688 -320h-613c-18 206 112 393 371 393h350v-73h-362c-186 0 -270 -139 -270 -247h524v-73z" />
    <glyph glyph-name="uni06D3" unicode="&#x6d3;" horiz-adv-x="750" arabic-form="isolated" 
d="M688 0h-613c-23 235 117 481 317 481c121 0 159 -70 159 -166v-65h-90v43c0 73 -19 114 -85 114c-123 0 -212 -191 -212 -334h524v-73zM195 566v57c27 0 53 -2 69 -5c-18 8 -27 30 -27 48c0 49 35 99 127 99c22 0 43 -2 54 -4l-9 -56c-9 1 -29 4 -48 4
c-37 0 -56 -16 -56 -41c0 -26 21 -45 78 -45h54v-57h-242z" />
    <glyph glyph-name="uniFBB1" unicode="&#x6d3;" horiz-adv-x="781" arabic-form="final" 
d="M688 -320h-613c-18 206 112 393 371 393h350v-73h-362c-186 0 -270 -139 -270 -247h524v-73zM207 169v57c27 0 53 -2 69 -5c-18 8 -27 30 -27 48c0 49 35 99 127 99c22 0 43 -2 54 -4l-9 -56c-9 1 -29 4 -48 4c-37 0 -56 -16 -56 -41c0 -26 21 -45 78 -45h54v-57h-242z
" />
    <glyph glyph-name="shadda_dammatan" unicode="&#xfc5e;" horiz-adv-x="0" arabic-form="isolated" 
d="M-111 139l-26 123l43 9l19 -84l51 10s-6 18 -6 35c0 50 39 86 90 86c44 0 69 -25 69 -64c0 -44 -28 -73 -77 -83zM20 206l23 5c26 6 40 17 40 41c0 16 -11 25 -28 25c-24 0 -40 -17 -40 -42c0 -15 5 -29 5 -29zM29 34c-10 -21 -31 -34 -58 -34c-28 0 -44 17 -53 58l-7 36
l41 8l7 -34c4 -18 10 -25 23 -25c17 0 25 15 22 35l-6 36l41 8l7 -36c4 -19 12 -27 24 -27c21 0 27 18 23 42l-7 37l42 8l6 -36c11 -55 -13 -93 -68 -93c-14 0 -28 5 -37 17z" />
    <glyph glyph-name="shadda_kasratan" unicode="&#xfc5f;" horiz-adv-x="0" arabic-form="isolated" 
d="M-88 72l-8 40l204 32l8 -41zM-77 0l-7 40l204 32l6 -41zM-9 193c-10 -21 -31 -34 -56 -34c-30 0 -46 18 -54 59l-7 36l41 7l7 -34c3 -18 9 -25 23 -25c17 0 25 15 22 35l-5 36l40 8l7 -37c3 -19 11 -27 24 -27c22 1 26 18 23 42l-6 37l41 7l7 -36c9 -54 -15 -90 -68 -92
c-15 0 -30 6 -39 18z" />
    <glyph glyph-name="shadda_fatha" unicode="&#xfc60;" horiz-adv-x="0" arabic-form="isolated" 
d="M-111 160l-8 41l204 31l7 -40zM10 33c-9 -20 -30 -33 -56 -33c-30 0 -46 17 -53 59l-7 36l41 7l6 -34c4 -18 10 -25 23 -25c17 0 26 15 22 35l-5 36l40 7l7 -36c4 -19 12 -27 24 -27c22 1 27 18 23 42l-6 37l42 7l6 -36c10 -55 -14 -91 -68 -92c-15 0 -30 6 -39 17z" />
    <glyph glyph-name="shadda_damma" unicode="&#xfc61;" horiz-adv-x="0" arabic-form="isolated" 
d="M-116 140l-8 40l88 17s-6 18 -6 35c0 50 39 86 90 86c44 0 69 -25 69 -64c0 -44 -28 -73 -77 -83zM8 206l23 5c26 6 40 17 40 41c0 16 -11 25 -28 25c-24 0 -40 -17 -40 -42c0 -15 5 -29 5 -29zM17 34c-10 -21 -31 -34 -58 -34c-28 0 -44 17 -53 58l-7 36l41 8l7 -34
c4 -18 10 -25 23 -25c17 0 25 15 22 35l-6 36l41 8l7 -36c4 -19 12 -27 24 -27c21 0 27 18 23 42l-7 37l42 8l6 -36c11 -55 -13 -93 -68 -93c-14 0 -28 5 -37 17z" />
    <glyph glyph-name="shadda_kasra" unicode="&#xfc62;" horiz-adv-x="0" arabic-form="isolated" 
d="M-83 0l-7 41l204 31l6 -40zM-2 123c-9 -21 -31 -34 -56 -34c-30 0 -46 18 -54 59l-7 36l42 7l6 -34c4 -18 10 -25 23 -25c17 0 25 15 22 35l-5 36l40 8l7 -37c4 -19 12 -27 24 -27c22 1 27 18 23 42l-6 37l42 7l6 -36c10 -54 -15 -90 -68 -92c-15 0 -30 6 -39 18z" />
    <glyph glyph-name="shadda_alefsuperscript" unicode="&#xfc63;" horiz-adv-x="0" arabic-form="isolated" 
d="M4 32c-9 -20 -30 -32 -55 -32c-30 -1 -47 15 -55 55l-7 34l41 8l7 -33c4 -18 10 -24 23 -24c17 0 25 14 22 34l-6 34l40 8l8 -35c4 -19 12 -26 24 -26c22 1 26 18 23 41l-7 35l42 8l6 -35c11 -52 -13 -86 -66 -88c-15 -1 -30 5 -40 16zM10 156l-42 -8v93h42v-85z" />
    <glyph glyph-name="alah" unicode="&#xfdf2;" horiz-adv-x="1248" arabic-form="isolated" 
d="M307 0c-192 0 -262 91 -262 233c0 132 81 248 252 248c110 0 201 -35 201 -35v-373h236v598h92v-598h235v632h92v-705h-846zM408 73v312s-49 23 -121 23c-93 0 -149 -66 -149 -165c0 -114 53 -170 182 -170h88z" />
    <glyph glyph-name=".notdef" 
d="M300 150h-150v250h50v-200h100v-50zM500 50h-450v450h450v-450zM350 350h-100v50h150v-250h-50v100h-100v50h100v50zM100 100h350v350h-350v-350z" />
    <glyph glyph-name=".null" horiz-adv-x="0" 
 />
    <glyph glyph-name="CR" horiz-adv-x="500" 
 />
    <glyph glyph-name="space" unicode=" " horiz-adv-x="244" 
 />
    <glyph glyph-name="uni00A0" unicode="&#xa0;" horiz-adv-x="120" 
 />
    <glyph glyph-name="A" unicode="A" horiz-adv-x="615" 
d="M606 0h-103l-56 158h-287l-56 -158h-94l245 675h104zM423 231l-90 253c-12 33 -21 63 -29 92h-2c-8 -29 -17 -59 -28 -90l-91 -255h240z" />
    <glyph glyph-name="AE" unicode="&#xc6;" horiz-adv-x="781" 
d="M711 0h-349v163h-224l-85 -163h-96l359 675h386v-76h-250v-214h241v-74h-241v-234h259v-77zM362 236v362h-2c-17 -38 -34 -75 -66 -137l-122 -225h190z" />
    <glyph glyph-name="B" unicode="B" horiz-adv-x="570" 
d="M519 202c0 -92 -62 -205 -262 -205c-49 0 -106 2 -172 3v675c49 1 116 3 197 3c145 0 216 -61 216 -162c0 -71 -42 -132 -116 -157v-2c82 -11 137 -72 137 -155zM402 501c0 60 -32 104 -135 104c-32 0 -64 -1 -90 -2v-219c19 -1 37 -1 61 -1c111 0 164 44 164 118z
M422 197c0 85 -72 117 -182 117c-11 0 -47 0 -63 -1v-237c18 -2 57 -5 86 -5c110 0 159 55 159 126z" />
    <glyph glyph-name="C" unicode="C" horiz-adv-x="583" 
d="M538 28c-51 -21 -117 -36 -185 -36c-217 0 -307 138 -307 329c0 206 102 360 330 360c52 0 107 -7 155 -21l-15 -84c-47 16 -99 26 -150 26c-154 0 -220 -118 -220 -266c0 -166 72 -262 229 -262c49 0 108 14 148 34z" />
    <glyph glyph-name="D" unicode="D" horiz-adv-x="678" 
d="M632 345c0 -231 -155 -349 -376 -349c-68 0 -121 4 -171 4v674c52 1 128 4 202 4c216 0 345 -101 345 -333zM535 339c0 172 -82 264 -257 264c-35 0 -76 -2 -101 -3v-520c25 -4 62 -6 89 -6c158 0 269 82 269 265z" />
    <glyph glyph-name="Eth" unicode="&#xd0;" horiz-adv-x="687" 
d="M641 345c0 -228 -153 -348 -377 -349c-67 0 -121 4 -170 4v312h-91v70h91v292c52 1 128 4 201 4c217 0 346 -101 346 -333zM544 339c0 172 -83 264 -258 264c-35 0 -76 -2 -101 -3v-218h143v-70h-143v-232c25 -4 62 -6 89 -6c159 0 270 82 270 265z" />
    <glyph glyph-name="E" unicode="E" horiz-adv-x="501" 
d="M432 0h-347v675h347v-76h-255v-214h243v-74h-243v-234h255v-77z" />
    <glyph glyph-name="F" unicode="F" horiz-adv-x="469" 
d="M429 599h-252v-219h239v-74h-239v-306h-92v675h344v-76z" />
    <glyph glyph-name="G" unicode="G" horiz-adv-x="682" 
d="M601 30c-67 -25 -149 -39 -223 -39c-211 0 -335 124 -335 330c0 211 124 363 363 363c66 0 129 -11 187 -29l-20 -83c-55 21 -115 33 -176 33c-182 0 -256 -128 -256 -270c0 -168 93 -264 250 -264c45 0 83 7 119 18v255h91v-314z" />
    <glyph glyph-name="H" unicode="H" horiz-adv-x="698" 
d="M613 0h-92v311h-344v-311h-92v675h92v-286h344v286h92v-675z" />
    <glyph glyph-name="I" unicode="I" horiz-adv-x="262" 
d="M177 0h-92v675h92v-675z" />
    <glyph glyph-name="J" unicode="J" horiz-adv-x="329" 
d="M245 176c0 -112 -46 -183 -169 -183c-29 0 -54 3 -75 8v80c18 -6 44 -11 69 -11c53 0 83 22 83 112v493h92v-499z" />
    <glyph glyph-name="K" unicode="K" horiz-adv-x="584" 
d="M569 0h-125l-267 334v-334h-92v675h92v-318l268 318h114l-286 -326z" />
    <glyph glyph-name="L" unicode="L" horiz-adv-x="426" 
d="M419 0h-334v675h92v-596h242v-79z" />
    <glyph glyph-name="M" unicode="M" horiz-adv-x="889" 
d="M841 0h-96l-57 391c-10 73 -17 131 -21 171h-2c-8 -33 -19 -78 -35 -127l-144 -435h-98l-137 407c-18 54 -33 108 -43 155h-2c-3 -56 -9 -113 -18 -179l-46 -383h-94l99 675h112l143 -426c12 -34 27 -88 39 -134h1c12 47 24 89 37 128l146 432h114z" />
    <glyph glyph-name="N" unicode="N" horiz-adv-x="707" 
d="M622 0h-122l-262 433c-29 48 -52 90 -71 133c4 -71 7 -263 7 -378v-188h-89v675h122l259 -425c26 -44 52 -92 74 -137c-3 84 -7 273 -7 390v172h89v-675z" />
    <glyph glyph-name="O" unicode="O" horiz-adv-x="705" 
d="M663 346c0 -226 -145 -356 -320 -356c-203 0 -301 135 -301 339c0 226 144 356 320 356c203 0 301 -135 301 -339zM565 332c0 162 -70 272 -212 272c-117 0 -213 -94 -213 -261c0 -162 69 -271 212 -271c117 0 213 93 213 260z" />
    <glyph glyph-name="OE" unicode="&#x152;" horiz-adv-x="863" 
d="M794 0h-341c-36 -6 -73 -10 -110 -10c-203 0 -301 135 -301 340c0 225 144 355 318 355c36 0 69 -4 101 -10h333v-76h-256v-214h244v-74h-244v-234h256v-77zM447 86v504c-30 9 -58 14 -93 14c-114 0 -214 -91 -214 -261c0 -161 68 -271 211 -271c30 0 66 5 96 14z" />
    <glyph glyph-name="P" unicode="P" horiz-adv-x="528" 
d="M495 482c0 -134 -96 -229 -256 -229c-33 0 -62 3 -62 3v-256h-92v675s89 4 169 4c156 0 241 -77 241 -197zM400 470c0 86 -50 133 -156 133c-36 0 -67 -2 -67 -2v-266s32 -6 70 -6c103 0 153 56 153 141z" />
    <glyph glyph-name="Thorn" unicode="&#xde;" horiz-adv-x="530" 
d="M512 367c0 -139 -113 -233 -274 -233c-23 0 -42 1 -61 4v-138h-92v675h92v-102c27 1 52 2 84 2c156 0 251 -71 251 -208zM417 360c0 84 -50 140 -173 140c-22 0 -45 -2 -67 -5v-281c20 -3 43 -4 69 -4c106 0 171 53 171 150z" />
    <glyph glyph-name="Q" unicode="Q" horiz-adv-x="704" 
d="M704 -67c-169 -21 -192 57 -335 57h-26c-203 0 -301 135 -301 339c0 226 144 356 320 356c203 0 301 -135 301 -339c0 -142 -58 -257 -164 -303c67 1 109 -40 205 -29v-81zM565 332c0 162 -70 272 -212 272c-117 0 -213 -94 -213 -261c0 -162 69 -271 212 -271
c116 0 213 94 213 260z" />
    <glyph glyph-name="R" unicode="R" horiz-adv-x="553" 
d="M527 0h-117l-221 302h-12v-302h-92v675c46 3 95 4 169 4c133 0 229 -47 229 -176c0 -115 -91 -182 -198 -190c20 -24 41 -50 58 -72zM387 491c0 81 -51 113 -149 113c-23 0 -43 -1 -61 -2v-230c10 -1 30 -2 57 -2c97 0 153 49 153 121z" />
    <glyph glyph-name="S" unicode="S" horiz-adv-x="503" 
d="M455 198c0 -121 -99 -207 -250 -207c-55 0 -106 7 -148 19l11 88c43 -17 92 -27 142 -27c78 0 146 32 146 115c0 152 -305 92 -305 307c0 111 84 191 236 191c39 0 84 -4 122 -13l-11 -81c-36 11 -77 18 -116 18c-92 0 -136 -42 -136 -105c0 -145 309 -93 309 -305z" />
    <glyph glyph-name="T" unicode="T" horiz-adv-x="516" 
d="M499 598h-195v-598h-92v598h-194v77h481v-77z" />
    <glyph glyph-name="U" unicode="U" horiz-adv-x="693" 
d="M607 258c0 -177 -93 -268 -269 -268c-211 0 -253 117 -253 237v448h92v-441c0 -93 31 -168 167 -168c118 0 173 49 173 185v424h90v-417z" />
    <glyph glyph-name="V" unicode="V" horiz-adv-x="618" 
d="M606 675l-249 -675h-103l-243 675h102l151 -434c13 -39 31 -92 43 -138h2c12 46 29 97 47 145l155 427h95z" />
    <glyph glyph-name="W" unicode="W" horiz-adv-x="952" 
d="M918 675l-178 -675h-113l-129 454c-10 39 -19 79 -25 117h-1c-5 -39 -14 -77 -24 -117l-126 -454h-110l-178 675h98l114 -440c12 -45 20 -86 27 -130h1c7 43 16 85 27 125l125 445h104l129 -448c10 -36 20 -79 27 -120h1c7 40 14 74 23 110l117 458h91z" />
    <glyph glyph-name="X" unicode="X" horiz-adv-x="599" 
d="M582 0h-115l-172 279l-171 -279h-107l222 348l-208 327h106l160 -258l157 258h104l-205 -324z" />
    <glyph glyph-name="Y" unicode="Y" horiz-adv-x="537" 
d="M527 675l-215 -432v-243h-92v243l-211 432h101l107 -228c19 -40 36 -79 51 -117h1c16 41 37 85 58 129l104 216h96z" />
    <glyph glyph-name="Z" unicode="Z" horiz-adv-x="539" 
d="M495 0h-449v68l283 446c19 29 35 54 55 81c-32 -1 -78 -2 -148 -2h-180v82h435v-70l-298 -464l-40 -59c21 2 81 2 168 2h174v-84z" />
    <glyph glyph-name="a" unicode="a" horiz-adv-x="521" 
d="M438 0h-88c0 35 0 71 5 99h-2c-24 -61 -87 -108 -169 -108s-138 54 -138 134c0 107 109 171 299 171v23c0 79 -27 117 -105 117c-47 0 -107 -16 -150 -36l-17 71c48 20 114 36 179 36c139 0 183 -67 183 -174v-190c0 -47 1 -100 3 -143zM345 220v13
c-163 0 -210 -45 -210 -95c0 -43 30 -76 76 -76c80 0 134 80 134 158z" />
    <glyph glyph-name="ae" unicode="&#xe6;" horiz-adv-x="807" 
d="M761 297c0 -12 -1 -27 -3 -47h-324c-5 -130 51 -186 156 -186c48 0 98 10 142 30l13 -72c-50 -20 -110 -31 -172 -31c-112 0 -175 50 -198 114h-1c-29 -60 -95 -114 -189 -114c-83 0 -139 54 -139 134c0 107 109 171 299 171v33c0 69 -27 107 -109 107
c-47 0 -104 -16 -144 -37l-19 73c48 20 114 35 177 35c73 0 128 -22 154 -78h1c30 44 86 77 158 77c139 0 198 -95 198 -209zM669 314c2 76 -41 124 -110 124c-65 0 -112 -48 -123 -124h233zM345 220v13c-164 0 -210 -45 -210 -95c0 -43 29 -76 75 -76c81 0 135 80 135 158z
" />
    <glyph glyph-name="b" unicode="b" horiz-adv-x="558" 
d="M515 272c0 -174 -99 -279 -259 -279c-69 0 -118 6 -171 20v717h90v-241c0 -29 -3 -68 -9 -93l2 -1c27 70 89 111 164 111c117 0 183 -82 183 -234zM421 264c0 107 -35 168 -110 168c-90 0 -136 -105 -136 -191v-165c26 -8 53 -12 88 -12c94 0 158 57 158 200z" />
    <glyph glyph-name="c" unicode="c" horiz-adv-x="435" 
d="M407 19c-42 -17 -97 -27 -148 -27c-119 0 -218 57 -218 240c0 160 82 273 242 273c45 0 88 -8 122 -21l-17 -77c-31 13 -72 23 -113 23c-90 0 -139 -77 -139 -186c0 -97 31 -174 141 -174c42 0 82 8 116 24z" />
    <glyph glyph-name="d" unicode="d" horiz-adv-x="557" 
d="M472 0h-87c0 28 2 72 8 101l-2 1c-28 -67 -89 -111 -167 -111c-122 0 -183 89 -183 234c0 174 100 279 257 279c27 0 54 -2 84 -5v231h90v-730zM382 257v165c-30 7 -60 11 -88 11c-95 0 -158 -57 -158 -200c0 -107 35 -168 110 -168c90 0 136 105 136 192z" />
    <glyph glyph-name="eth" unicode="&#xf0;" horiz-adv-x="546" 
d="M503 273c0 -191 -104 -282 -237 -282c-135 0 -226 81 -226 253c0 148 91 261 235 261c42 0 85 -13 105 -45c-11 21 -24 41 -30 51c-16 28 -36 56 -64 86l-102 -46l-38 47l94 42c-23 21 -50 42 -81 66l90 38c26 -21 51 -43 75 -68l100 44l39 -47l-97 -42
c86 -104 137 -227 137 -358zM410 261c0 103 -46 170 -138 170c-72 0 -139 -56 -139 -180c0 -118 54 -184 143 -184c74 0 134 56 134 194z" />
    <glyph glyph-name="e" unicode="e" horiz-adv-x="508" 
d="M462 302c0 -12 -1 -36 -3 -56h-325c-3 -124 49 -182 157 -182c48 0 98 10 142 29l13 -71c-50 -20 -110 -31 -172 -31c-151 0 -233 80 -233 255c0 148 83 260 224 260c139 0 197 -93 197 -204zM370 310c2 81 -41 128 -111 128c-65 0 -112 -47 -123 -128h234z" />
    <glyph glyph-name="f" unicode="f" horiz-adv-x="350" 
d="M382 727l-8 -75c-23 8 -49 11 -73 11c-71 0 -102 -40 -102 -128v-38h138v-70h-138v-427h-90v427h-102v70h102v37c0 137 67 202 191 202c28 0 55 -3 82 -9z" />
    <glyph glyph-name="g" unicode="g" horiz-adv-x="541" 
d="M512 -67c0 -105 -107 -189 -263 -189c-128 0 -209 53 -209 149c0 58 38 107 83 132c-30 13 -49 41 -49 74c0 35 22 68 55 84c-45 27 -73 72 -73 137c0 100 75 186 211 186c27 0 45 -3 70 -9h169v-71h-82c25 -20 40 -53 40 -92c0 -102 -69 -180 -210 -180
c-20 0 -35 2 -53 7c-21 -10 -32 -26 -32 -42c0 -28 25 -37 85 -39l91 -3c107 -4 167 -54 167 -144zM375 328c0 68 -40 111 -112 111c-75 0 -118 -48 -118 -111c0 -69 41 -109 115 -109c71 0 115 40 115 109zM421 -78c0 48 -32 78 -102 80l-96 4c-9 0 -21 0 -29 1
c-39 -27 -64 -60 -64 -98c0 -59 56 -94 134 -94c101 0 157 46 157 107z" />
    <glyph glyph-name="h" unicode="h" horiz-adv-x="575" 
d="M491 0h-90v320c0 70 -19 112 -85 112c-82 0 -141 -84 -141 -194v-238h-90v730h90v-236c0 -32 -2 -72 -9 -99l2 -1c29 68 90 112 173 112c114 0 150 -71 150 -159v-347z" />
    <glyph glyph-name="i" unicode="i" horiz-adv-x="260" 
d="M190 654c0 -32 -27 -58 -60 -58s-60 25 -60 58s27 59 60 59s60 -26 60 -59zM175 0h-90v497h90v-497z" />
    <glyph glyph-name="j" unicode="j" horiz-adv-x="266" 
d="M196 654c0 -32 -27 -58 -59 -58c-33 0 -60 25 -60 58s27 59 60 59c32 0 59 -26 59 -59zM181 -55c0 -133 -41 -199 -171 -199c-22 0 -49 3 -69 9l8 79c19 -7 42 -12 63 -12c62 0 80 26 80 115v560h89v-552z" />
    <glyph glyph-name="k" unicode="k" horiz-adv-x="493" 
d="M474 0h-115l-184 256v-256h-90v730h90v-451l175 218h109l-191 -227z" />
    <glyph glyph-name="l" unicode="l" horiz-adv-x="260" 
d="M175 0h-90v730h90v-730z" />
    <glyph glyph-name="m" unicode="m" horiz-adv-x="879" 
d="M794 0h-90v319c0 68 -16 113 -81 113c-71 0 -139 -75 -139 -196v-236h-89v319c0 63 -13 113 -81 113c-76 0 -139 -82 -139 -196v-236h-90v497h87c0 -30 -2 -75 -7 -105l1 -1c29 70 93 115 173 115c105 0 133 -72 137 -113c21 47 74 113 170 113c94 0 148 -50 148 -163
v-343z" />
    <glyph glyph-name="n" unicode="n" horiz-adv-x="575" 
d="M491 0h-90v320c0 70 -19 112 -85 112c-82 0 -141 -84 -141 -194v-238h-90v497h87c0 -30 -2 -75 -8 -105h2c29 68 90 114 175 114c114 0 150 -71 150 -159v-347z" />
    <glyph glyph-name="o" unicode="o" horiz-adv-x="545" 
d="M505 257c0 -150 -95 -266 -242 -266c-136 0 -223 78 -223 253c0 146 92 262 242 262c127 0 223 -70 223 -249zM412 252c0 113 -46 179 -138 179c-72 0 -141 -55 -141 -178c0 -120 50 -186 141 -186c74 0 138 58 138 185z" />
    <glyph glyph-name="oe" unicode="&#x153;" horiz-adv-x="872" 
d="M827 297c0 -12 -1 -27 -3 -47h-325c-4 -130 51 -186 157 -186c48 0 98 10 142 30l13 -72c-50 -20 -111 -31 -172 -31c-99 0 -159 39 -192 101c-36 -58 -97 -101 -185 -101c-135 0 -223 78 -223 253c0 146 92 262 242 262c72 0 141 -29 178 -94c34 56 91 94 169 94
c140 0 199 -95 199 -209zM735 314c2 76 -41 124 -111 124c-65 0 -112 -48 -122 -124h233zM411 252c0 113 -46 179 -138 179c-71 0 -140 -55 -140 -178c0 -120 49 -186 140 -186c74 0 138 58 138 185z" />
    <glyph glyph-name="p" unicode="p" horiz-adv-x="558" 
d="M515 272c0 -177 -95 -278 -256 -278c-31 0 -55 1 -84 6v-247h-90v744h87c0 -28 -2 -73 -8 -101l2 -1c28 69 88 111 167 111c116 0 182 -82 182 -234zM421 264c0 107 -35 168 -110 168c-90 0 -136 -105 -136 -192v-164c26 -8 54 -12 88 -12c94 0 158 57 158 200z" />
    <glyph glyph-name="thorn" unicode="&#xfe;" horiz-adv-x="558" 
d="M515 272c0 -177 -95 -278 -256 -278c-31 0 -55 1 -84 6v-247h-90v977h90v-218c0 -36 -2 -84 -6 -111l2 -1c26 64 84 106 162 106c116 0 182 -82 182 -234zM421 264c0 107 -35 168 -110 168c-90 0 -136 -105 -136 -192v-164c26 -8 54 -12 88 -12c94 0 158 57 158 200z" />
    <glyph glyph-name="q" unicode="q" horiz-adv-x="558" 
d="M473 -247h-89v258c0 23 1 59 7 89l-2 1c-27 -68 -88 -110 -162 -110c-117 0 -184 78 -184 233c0 175 98 281 262 281c60 0 117 -6 168 -14v-738zM384 258v165c-30 7 -59 10 -89 10c-94 0 -157 -57 -157 -200c0 -107 34 -168 109 -168c90 0 137 105 137 193z" />
    <glyph glyph-name="r" unicode="r" horiz-adv-x="355" 
d="M334 506l-4 -89c-105 19 -155 -58 -155 -217v-200h-90v497h87c0 -31 -3 -77 -11 -118h2c21 69 72 137 171 127z" />
    <glyph glyph-name="s" unicode="s" horiz-adv-x="425" 
d="M375 150c0 -91 -80 -159 -210 -159c-38 0 -79 4 -110 13l8 80c32 -13 73 -20 110 -20c64 0 108 29 108 76c0 112 -231 42 -231 217c0 85 66 149 198 149c30 0 66 -4 96 -10l-7 -74c-29 9 -64 15 -97 15c-66 0 -97 -28 -97 -71c0 -110 232 -47 232 -216z" />
    <glyph glyph-name="germandbls" unicode="&#xdf;" horiz-adv-x="593" 
d="M552 149c0 -92 -77 -159 -199 -159c-39 0 -74 5 -99 11l6 79c28 -10 61 -17 92 -17c76 0 108 36 108 75c0 107 -197 88 -197 245c0 120 135 116 135 209c0 49 -39 73 -95 73c-81 0 -128 -47 -128 -160v-505h-90v500c0 173 99 235 223 235c116 0 182 -56 182 -135
c0 -135 -136 -120 -136 -207c0 -103 198 -90 198 -244z" />
    <glyph glyph-name="t" unicode="t" horiz-adv-x="371" 
d="M338 3c-29 -7 -68 -11 -100 -11c-102 0 -133 42 -133 149v286h-102v70h102v161l90 25v-186h139v-70h-139v-254c0 -82 16 -104 71 -104c23 0 45 3 63 8z" />
    <glyph glyph-name="u" unicode="u" horiz-adv-x="575" 
d="M490 0h-87c0 30 2 75 8 105h-2c-29 -68 -90 -114 -175 -114c-114 0 -149 71 -149 159v347h89v-320c0 -70 20 -112 85 -112c82 0 141 84 141 194v238h90v-497z" />
    <glyph glyph-name="v" unicode="v" horiz-adv-x="486" 
d="M476 497l-183 -497h-103l-181 497h100l105 -304c12 -38 21 -68 29 -101h2c8 32 17 64 28 99l107 306h96z" />
    <glyph glyph-name="w" unicode="w" horiz-adv-x="793" 
d="M777 497l-161 -497h-101l-99 293c-10 31 -19 64 -28 99h-1c-10 -44 -22 -83 -35 -125l-83 -267h-100l-153 497h99l76 -265c13 -46 26 -91 36 -130h1c10 44 22 87 34 128l85 267h96l86 -264c19 -62 29 -94 38 -132h1c10 42 20 78 34 128l80 268h95z" />
    <glyph glyph-name="x" unicode="x" horiz-adv-x="518" 
d="M498 0h-117l-125 191l-126 -191h-109l182 249l-173 248h110l123 -187l125 187h102l-172 -245z" />
    <glyph glyph-name="y" unicode="y" horiz-adv-x="480" 
d="M472 497l-204 -539c-60 -160 -122 -213 -234 -213c-18 0 -42 3 -58 6l10 80c16 -5 41 -8 60 -8c51 0 94 25 131 123l20 54l-188 497h102l94 -258c16 -45 27 -84 38 -123h2c9 35 30 99 49 153l80 228h98z" />
    <glyph glyph-name="z" unicode="z" horiz-adv-x="447" 
d="M396 0h-348v64l238 355c-28 -1 -77 -2 -131 -2h-102v80h338v-63l-235 -353c27 1 91 2 135 2h105v-83z" />
    <glyph glyph-name="ordfeminine" unicode="&#xaa;" horiz-adv-x="389" 
d="M320 343h-74c0 15 1 36 5 53l-2 1c-13 -32 -56 -61 -101 -61c-69 0 -100 36 -100 86c0 76 75 122 197 122v18c0 26 -8 60 -65 60c-39 0 -76 -11 -105 -26l-7 66c34 13 77 21 123 21c99 0 128 -54 128 -111v-142c0 -47 0 -70 1 -87zM345 211h-288v71h288v-71zM245 484v9
c-88 0 -123 -22 -123 -59c0 -23 16 -38 43 -38c56 0 80 60 80 88z" />
    <glyph glyph-name="ordmasculine" unicode="&#xba;" horiz-adv-x="419" 
d="M368 515c0 -107 -71 -178 -169 -178c-89 0 -152 47 -152 173c0 103 70 174 165 174c78 0 156 -36 156 -169zM354 211h-292v71h292v-71zM288 514c0 54 -19 103 -80 103c-40 0 -81 -29 -81 -105c0 -54 16 -108 78 -108c48 0 83 33 83 110z" />
    <glyph glyph-name="grave" unicode="`" horiz-adv-x="369" 
d="M270 619l-38 -49l-151 114l49 60z" />
    <glyph glyph-name="acute" unicode="&#xb4;" horiz-adv-x="389" 
d="M299 684l-151 -114l-38 48l140 126z" />
    <glyph glyph-name="circumflex" unicode="&#x2c6;" horiz-adv-x="433" 
d="M353 614l-40 -44l-99 85l-100 -85l-39 42l140 132z" />
    <glyph glyph-name="tilde" unicode="&#x2dc;" horiz-adv-x="489" 
d="M416 671c-26 -50 -63 -78 -109 -78c-65 0 -86 55 -128 55c-22 0 -42 -16 -59 -47l-45 35c26 50 63 78 109 78c65 0 86 -54 128 -54c22 0 42 15 59 46z" />
    <glyph glyph-name="dieresis" unicode="&#xa8;" horiz-adv-x="546" 
d="M414 654c0 -30 -23 -54 -53 -54s-54 24 -54 54s24 54 54 54s53 -24 53 -54zM222 654c0 -30 -23 -54 -53 -54s-54 24 -54 54s24 54 54 54s53 -24 53 -54z" />
    <glyph glyph-name="macron" unicode="&#xaf;" horiz-adv-x="395" 
d="M324 616h-253v68h253v-68z" />
    <glyph glyph-name="macron" unicode="&#x2c9;" horiz-adv-x="395" 
d="M324 616h-253v68h253v-68z" />
    <glyph glyph-name="cedilla" unicode="&#xb8;" horiz-adv-x="400" 
d="M258 -40c51 -67 36 -130 -21 -195h-73c52 65 64 107 17 165z" />
    <glyph glyph-name="mu" unicode="&#xb5;" horiz-adv-x="586" 
d="M550 -4c-14 -3 -27 -4 -38 -4c-76 0 -102 42 -99 111l-1 1c-26 -67 -83 -112 -163 -112c-36 0 -66 12 -83 35l11 -274h-92v744h90v-328c0 -70 26 -104 84 -104c84 0 142 81 142 195v237h90v-325c0 -88 12 -105 59 -105v-71z" />
    <glyph glyph-name="mu" unicode="&#x3bc;" horiz-adv-x="586" 
d="M550 -4c-14 -3 -27 -4 -38 -4c-76 0 -102 42 -99 111l-1 1c-26 -67 -83 -112 -163 -112c-36 0 -66 12 -83 35l11 -274h-92v744h90v-328c0 -70 26 -104 84 -104c84 0 142 81 142 195v237h90v-325c0 -88 12 -105 59 -105v-71z" />
    <glyph glyph-name="exclam" unicode="!" horiz-adv-x="320" 
d="M222 703l-15 -535h-75l-16 535h106zM229 50c0 -33 -26 -59 -60 -59s-61 26 -61 59s27 59 61 59s60 -26 60 -59z" />
    <glyph glyph-name="exclamdown" unicode="&#xa1;" horiz-adv-x="320" 
d="M211 447c0 -33 -26 -59 -60 -59s-60 26 -60 59s26 59 60 59s60 -26 60 -59zM204 -206h-107l15 535h76z" />
    <glyph glyph-name="question" unicode="?" horiz-adv-x="445" 
d="M385 516c0 -165 -205 -164 -150 -348h-88c-64 198 139 220 139 339c0 66 -78 116 -202 121l11 82c186 -6 290 -95 290 -194zM252 50c0 -33 -27 -59 -61 -59s-60 26 -60 59s26 59 60 59s61 -26 61 -59z" />
    <glyph glyph-name="questiondown" unicode="&#xbf;" horiz-adv-x="445" 
d="M314 447c0 -33 -26 -59 -60 -59s-60 26 -60 59s26 59 60 59s60 -26 60 -59zM362 -131l-12 -82c-186 6 -290 95 -290 194c0 165 205 164 151 348h88c63 -198 -140 -220 -140 -339c0 -66 79 -116 203 -121z" />
    <glyph glyph-name="comma" unicode="," horiz-adv-x="228" 
d="M112 113c74 0 107 -126 -48 -267l-38 34c64 69 66 115 43 144c-28 35 -5 89 43 89z" />
    <glyph glyph-name="semicolon" unicode=";" horiz-adv-x="286" 
d="M220 346c0 -35 -28 -62 -62 -62s-62 27 -62 62c0 34 28 62 62 62s62 -28 62 -62zM157 113c74 0 107 -126 -48 -267l-38 34c64 69 66 115 43 144c-28 35 -5 89 43 89z" />
    <glyph glyph-name="semicolon" unicode="&#x37e;" horiz-adv-x="286" 
d="M220 346c0 -35 -28 -62 -62 -62s-62 27 -62 62c0 34 28 62 62 62s62 -28 62 -62zM157 113c74 0 107 -126 -48 -267l-38 34c64 69 66 115 43 144c-28 35 -5 89 43 89z" />
    <glyph glyph-name="colon" unicode=":" horiz-adv-x="286" 
d="M220 346c0 -35 -28 -62 -62 -62s-62 27 -62 62c0 34 28 62 62 62s62 -28 62 -62zM220 53c0 -34 -28 -62 -62 -62s-62 28 -62 62s28 62 62 62s62 -28 62 -62z" />
    <glyph glyph-name="period" unicode="." horiz-adv-x="228" 
d="M176 53c0 -34 -27 -62 -62 -62c-34 0 -62 28 -62 62s28 62 62 62c35 0 62 -28 62 -62z" />
    <glyph glyph-name="ellipsis" unicode="&#x2026;" horiz-adv-x="665" 
d="M603 51c0 -33 -27 -60 -61 -60c-33 0 -60 27 -60 60c0 34 27 61 60 61c34 0 61 -27 61 -61zM388 51c0 -33 -27 -60 -61 -60c-33 0 -60 27 -60 60c0 34 27 61 60 61c34 0 61 -27 61 -61zM173 51c0 -33 -27 -60 -60 -60c-34 0 -61 27 -61 60c0 34 27 61 61 61
c33 0 60 -27 60 -61z" />
    <glyph glyph-name="quoteleft" unicode="&#x2018;" horiz-adv-x="244" 
d="M203 715c-64 -69 -66 -114 -43 -143c28 -36 5 -90 -44 -90c-73 0 -107 126 48 268z" />
    <glyph glyph-name="quoteright" unicode="&#x2019;" horiz-adv-x="244" 
d="M126 743c73 0 107 -126 -48 -268l-39 35c64 69 66 114 43 143c-28 36 -5 90 44 90z" />
    <glyph glyph-name="quotedblleft" unicode="&#x201c;" horiz-adv-x="433" 
d="M393 715c-64 -69 -66 -114 -43 -143c28 -36 5 -90 -44 -90c-73 0 -107 126 48 268zM203 715c-64 -69 -66 -114 -43 -143c28 -36 5 -90 -44 -90c-73 0 -107 126 48 268z" />
    <glyph glyph-name="quotedblright" unicode="&#x201d;" horiz-adv-x="433" 
d="M316 743c73 0 107 -126 -48 -268l-39 35c64 69 66 114 43 143c-28 36 -5 90 44 90zM126 743c73 0 107 -126 -48 -268l-39 35c64 69 66 114 43 143c-28 36 -5 90 44 90z" />
    <glyph glyph-name="quotesinglbase" unicode="&#x201a;" horiz-adv-x="244" 
d="M126 113c73 0 107 -126 -48 -267l-39 34c64 69 66 115 43 144c-28 35 -5 89 44 89z" />
    <glyph glyph-name="quotedblbase" unicode="&#x201e;" horiz-adv-x="433" 
d="M316 113c73 0 107 -126 -48 -267l-39 34c64 69 66 115 43 144c-28 35 -5 89 44 89zM126 113c73 0 107 -126 -48 -267l-39 34c64 69 66 115 43 144c-28 35 -5 89 44 89z" />
    <glyph glyph-name="guilsinglleft" unicode="&#x2039;" horiz-adv-x="313" 
d="M240 152l-68 -37l-119 178l120 181l66 -36l-96 -144z" />
    <glyph glyph-name="guilsinglright" unicode="&#x203a;" horiz-adv-x="313" 
d="M260 296l-121 -181l-66 36l98 144l-97 142l68 37z" />
    <glyph glyph-name="guillemotleft" unicode="&#xab;" horiz-adv-x="509" 
d="M437 152l-68 -36l-122 177l123 180l66 -35l-100 -144zM237 150l-70 -36l-113 179l114 182l68 -35l-92 -146z" />
    <glyph glyph-name="guillemotright" unicode="&#xbb;" horiz-adv-x="509" 
d="M455 296l-115 -182l-67 35l92 146l-92 144l70 36zM263 296l-125 -180l-66 35l101 144l-100 142l68 36z" />
    <glyph glyph-name="slash" unicode="/" horiz-adv-x="438" 
d="M439 757l-350 -918h-86l350 918h86z" />
    <glyph glyph-name="bar" unicode="|" horiz-adv-x="285" 
d="M177 -247h-71v1000h71v-1000z" />
    <glyph glyph-name="brokenbar" unicode="&#xa6;" horiz-adv-x="285" 
d="M177 385h-71v368h71v-368zM177 -247h-71v378h71v-378z" />
    <glyph glyph-name="backslash" unicode="\" horiz-adv-x="442" 
d="M448 -161h-87l-350 918h87z" />
    <glyph glyph-name="hyphen" unicode="-" horiz-adv-x="330" 
d="M283 250h-236v74h236v-74z" />
    <glyph glyph-name="hyphen" unicode="&#xad;" horiz-adv-x="330" 
d="M283 250h-236v74h236v-74z" />
    <glyph glyph-name="uni00AD" horiz-adv-x="330" 
d="M283 250h-236v74h236v-74z" />
    <glyph glyph-name="endash" unicode="&#x2013;" 
d="M550 259h-550v78h550v-78z" />
    <glyph glyph-name="emdash" unicode="&#x2014;" horiz-adv-x="1000" 
d="M882 259h-764v78h764v-78z" />
    <glyph glyph-name="underscore" unicode="_" 
d="M550 -249h-550v71h550v-71z" />
    <glyph glyph-name="bullet" unicode="&#x2022;" horiz-adv-x="420" 
d="M331 297c0 -67 -54 -121 -121 -121s-121 54 -121 121s54 121 121 121s121 -54 121 -121z" />
    <glyph glyph-name="periodcentered" unicode="&#xb7;" horiz-adv-x="234" 
d="M181 297c0 -35 -28 -64 -64 -64s-64 29 -64 64c0 36 28 65 64 65s64 -29 64 -65z" />
    <glyph glyph-name="periodcentered" unicode="&#x2219;" horiz-adv-x="234" 
d="M181 297c0 -35 -28 -64 -64 -64s-64 29 -64 64c0 36 28 65 64 65s64 -29 64 -65z" />
    <glyph glyph-name="parenleft" unicode="(" horiz-adv-x="303" 
d="M283 -176l-67 -33c-118 187 -146 346 -146 493c0 146 34 318 147 497l65 -31c-81 -139 -124 -298 -124 -461c0 -171 41 -324 125 -465z" />
    <glyph glyph-name="parenright" unicode=")" horiz-adv-x="303" 
d="M238 289c0 -146 -33 -318 -147 -498l-65 32c82 139 124 298 124 460c0 171 -41 324 -125 466l68 32c117 -186 145 -345 145 -492z" />
    <glyph glyph-name="bracketleft" unicode="[" horiz-adv-x="322" 
d="M284 -199h-198v970h198v-69h-114v-830h114v-71z" />
    <glyph glyph-name="bracketright" unicode="]" horiz-adv-x="322" 
d="M236 -199h-198v71h114v830h-114v69h198v-970z" />
    <glyph glyph-name="braceleft" unicode="{" horiz-adv-x="341" 
d="M309 -199h-18c-114 0 -156 65 -156 195v175c0 79 -29 106 -106 110v71c79 4 106 27 106 108v117c0 115 38 194 156 194h18v-69c-69 0 -91 -28 -91 -122v-116c0 -89 -32 -135 -93 -146v-2c60 -9 93 -60 93 -148v-174c0 -94 22 -122 91 -122v-71z" />
    <glyph glyph-name="braceright" unicode="}" horiz-adv-x="338" 
d="M318 281c-77 -4 -106 -31 -106 -110v-175c0 -130 -42 -195 -156 -195h-18v71c69 0 91 28 91 122v174c0 88 33 139 93 148v2c-62 8 -93 57 -93 142v120c0 94 -22 122 -91 122v69h18c118 0 156 -79 156 -194v-113c0 -85 27 -108 106 -112v-71z" />
    <glyph glyph-name="asterisk" unicode="*" horiz-adv-x="374" 
d="M330 535l-34 -58l-90 66l11 -112h-67l11 112l-90 -66l-33 58l103 45l-103 46l34 58l90 -66l-11 112h67l-12 -112l91 66l33 -58l-103 -45z" />
    <glyph glyph-name="dagger" unicode="&#x2020;" horiz-adv-x="449" 
d="M400 557h-140l17 -98l-19 -251h-67l-19 251l16 98h-140v70h140l-16 137h105l-17 -137h140v-70z" />
    <glyph glyph-name="daggerdbl" unicode="&#x2021;" horiz-adv-x="449" 
d="M400 295h-139l16 -130h-106l17 130h-140v70h140l-16 100l16 99h-140v70h140l-16 130h105l-16 -130h139v-70h-139l16 -99l-16 -100h139v-70z" />
    <glyph glyph-name="section" unicode="&#xa7;" horiz-adv-x="520" 
d="M434 235c0 -55 -29 -104 -79 -141c23 -31 39 -64 39 -105c0 -79 -59 -154 -189 -154c-23 0 -53 4 -79 11l7 76c29 -9 51 -12 75 -12c59 0 91 32 91 76c0 106 -227 185 -227 353c0 55 28 103 79 142c-24 31 -39 64 -39 103c0 83 56 152 180 152c23 0 52 -3 75 -8l-6 -76
c-25 7 -46 10 -70 10c-56 0 -84 -27 -84 -72c0 -104 227 -189 227 -355zM349 223c0 76 -78 134 -149 208c-30 -22 -43 -52 -43 -81c0 -72 72 -130 150 -207c30 21 42 52 42 80z" />
    <glyph glyph-name="paragraph" unicode="&#xb6;" horiz-adv-x="576" 
d="M516 605h-71v-701h-154v70h73v701h152v-70zM289 247c-153 0 -223 99 -223 216c0 123 90 212 223 212v-428z" />
    <glyph glyph-name="asciicircum" unicode="^" 
d="M474 377l-66 -34l-144 265l-138 -265l-62 33l165 299h73z" />
    <glyph glyph-name="asciitilde" unicode="~" 
d="M497 564c0 -86 -51 -146 -133 -146c-111 0 -112 110 -182 110c-42 0 -60 -36 -61 -89h-67v10c0 87 52 147 134 147c111 0 112 -111 182 -111c41 0 59 36 60 89h67v-10z" />
    <glyph glyph-name="quotesingle" unicode="'" horiz-adv-x="199" 
d="M147 699l-14 -230h-67l-14 230h95z" />
    <glyph glyph-name="quotedbl" unicode="&#x22;" horiz-adv-x="366" 
d="M314 699l-14 -230h-67l-14 230h95zM147 699l-14 -230h-67l-14 230h95z" />
    <glyph glyph-name="ampersand" unicode="&#x26;" horiz-adv-x="795" 
d="M739 50l-58 -69c-48 33 -104 74 -142 106c-65 -57 -154 -97 -264 -97c-144 0 -219 86 -219 196c0 91 57 153 139 217c-70 81 -93 127 -93 182c0 81 63 151 178 151c104 0 160 -57 160 -135c0 -68 -35 -127 -125 -197c58 -60 144 -141 221 -203v-1c44 62 73 149 68 248h90
c3 -113 -30 -217 -92 -297c50 -39 101 -76 137 -101zM350 592c0 41 -23 75 -78 75c-47 0 -81 -32 -81 -78c0 -33 19 -71 73 -133c56 46 86 85 86 136zM476 136c-82 67 -174 154 -229 214c-70 -56 -99 -101 -99 -153c0 -70 55 -130 143 -130c80 0 142 32 185 69z" />
    <glyph glyph-name="at" unicode="@" horiz-adv-x="978" 
d="M883 406c0 -179 -98 -277 -227 -277c-82 0 -113 54 -105 109h-3c-16 -41 -78 -109 -150 -109c-65 0 -98 48 -98 135c0 147 75 268 227 268c45 0 91 -6 122 -14l-38 -213c-13 -72 9 -102 59 -102c74 0 131 66 131 198c0 130 -78 260 -282 260c-195 0 -350 -152 -350 -368
c0 -187 106 -304 309 -304c59 0 113 9 168 26l13 -73c-59 -19 -134 -28 -192 -28c-242 0 -381 143 -381 367c0 264 199 452 438 452c242 0 359 -154 359 -327zM566 463c-16 4 -36 6 -58 6c-92 0 -132 -113 -132 -189c0 -51 14 -77 43 -77c49 0 109 67 136 207z" />
    <glyph glyph-name="copyright" unicode="&#xa9;" horiz-adv-x="756" 
d="M712 336c0 -186 -150 -336 -336 -336c-190 0 -336 148 -336 334s150 335 336 335c187 0 336 -147 336 -333zM641 334c0 146 -118 267 -265 267c-146 0 -264 -118 -264 -265s118 -268 264 -268c147 0 265 119 265 266zM475 175c-30 -11 -64 -17 -99 -17
c-110 0 -158 72 -158 172c0 96 48 183 174 183c30 0 57 -5 79 -13l-8 -64c-20 10 -46 16 -72 16c-70 0 -95 -51 -95 -119c0 -71 28 -111 91 -111c28 0 54 5 78 15z" />
    <glyph glyph-name="registered" unicode="&#xae;" horiz-adv-x="562" 
d="M501 529c0 -120 -100 -219 -220 -219c-124 0 -221 96 -221 219c0 121 99 218 221 218c123 0 220 -95 220 -218zM441 527c0 89 -71 164 -160 164s-160 -72 -160 -161s71 -164 160 -164s160 73 160 161zM373 416h-60l-53 95h-4v-95h-49v228h79c56 0 78 -24 78 -60
c0 -38 -21 -60 -53 -66c5 -5 12 -17 19 -29zM312 578c0 19 -9 28 -35 28h-21v-63h14c31 0 42 18 42 35z" />
    <glyph glyph-name="trademark" unicode="&#x2122;" horiz-adv-x="699" 
d="M647 394h-69l-22 147l-7 54l-12 -47l-45 -154h-69l-44 157l-11 44l-3 -37l-24 -164h-64l44 281h86l45 -154l10 -46l9 42l47 158h86zM260 620h-73v-226h-69v226h-74v55h216v-55z" />
    <glyph glyph-name="degree" unicode="&#xb0;" horiz-adv-x="376" 
d="M319 611c0 -80 -67 -128 -137 -128c-79 0 -129 49 -129 126c0 81 68 128 135 128c90 0 131 -58 131 -126zM249 610c0 31 -16 69 -63 69c-35 0 -62 -28 -62 -69c0 -43 25 -68 61 -68c37 0 64 28 64 68z" />
    <glyph glyph-name="currency" unicode="&#xa4;" 
d="M501 110l-66 -50l-80 108c-26 -16 -56 -24 -88 -24c-26 0 -49 5 -68 13l-72 -97l-67 49l73 90c-25 29 -40 72 -40 130c0 51 16 94 45 125l-78 96l66 48l74 -101c24 13 53 18 82 18c25 0 54 -4 80 -17l75 101l64 -49l-77 -97c20 -26 33 -65 33 -118
c0 -48 -15 -90 -40 -121zM376 334c0 66 -28 114 -104 114c-54 0 -98 -44 -98 -117c0 -66 27 -120 103 -120c52 0 99 45 99 123z" />
    <glyph glyph-name="Euro" unicode="&#x20ac;" horiz-adv-x="592" 
d="M564 45c-55 -34 -112 -55 -194 -55c-155 0 -248 84 -268 240h-89v59h84c-1 10 -1 20 -1 31c0 21 1 41 2 60h-85v58h92c30 172 142 247 284 247c62 0 127 -18 166 -40l-26 -72c-35 21 -88 38 -147 38c-87 0 -159 -51 -179 -173h223v-58h-230c-1 -14 -1 -29 -1 -45
s0 -31 1 -46h230v-59h-224c15 -105 76 -165 184 -165c51 0 107 19 151 48z" />
    <glyph glyph-name="dollar" unicode="$" horiz-adv-x="489" 
d="M435 178c0 -91 -62 -163 -168 -183v-130h-67v126c-47 1 -85 5 -124 15l6 84c36 -14 91 -23 130 -23c73 0 129 29 129 99c0 135 -283 84 -283 286c0 87 64 153 160 168v105h67v-101c39 -1 75 -5 106 -12l-6 -80c-37 11 -78 18 -113 18c-92 0 -123 -43 -123 -87
c0 -130 286 -88 286 -285z" />
    <glyph glyph-name="cent" unicode="&#xa2;" horiz-adv-x="455" 
d="M413 65c-29 -13 -66 -24 -106 -27v-106h-71v106c-124 12 -193 97 -193 235c0 128 73 224 193 242v92h71v-88c33 -1 69 -7 103 -20l-7 -78c-33 16 -71 25 -112 25c-95 0 -155 -62 -155 -168c0 -90 40 -164 153 -164c43 0 85 12 117 30z" />
    <glyph glyph-name="sterling" unicode="&#xa3;" horiz-adv-x="471" 
d="M442 0h-400v63c76 58 100 105 100 182c0 17 -1 39 -5 76h-107v70h97c-5 38 -11 82 -11 115c0 115 69 178 189 178c33 0 74 -4 105 -13l-16 -77c-27 10 -61 17 -89 17c-62 0 -99 -35 -99 -99c0 -25 5 -70 12 -121h151v-70h-142c3 -27 4 -47 4 -67c0 -80 -20 -126 -83 -180
c26 3 69 5 102 5h192v-79z" />
    <glyph glyph-name="florin" unicode="&#x192;" horiz-adv-x="442" 
d="M226 340l-26 -244c-20 -186 -71 -257 -204 -257c-23 0 -50 3 -73 9l15 79c19 -6 46 -13 70 -13c64 0 86 34 100 159l27 267h-121v70h128l13 127c14 127 74 202 195 202c20 0 48 -3 71 -7l-11 -75c-21 5 -47 8 -70 8c-55 0 -85 -35 -94 -118l-14 -137h162v-70h-168z" />
    <glyph glyph-name="yen" unicode="&#xa5;" horiz-adv-x="591" 
d="M557 675l-194 -384h142v-61h-164v-70h164v-61h-164v-99h-91v99h-165v61h165v70h-165v61h143l-190 384h100l107 -222c22 -44 37 -82 51 -121h1c16 44 37 89 59 132l104 211h97z" />
    <glyph glyph-name="numbersign" unicode="#" horiz-adv-x="577" 
d="M544 429h-96l-19 -177h91v-62h-98l-20 -190h-72l19 190h-153l-20 -190h-72l20 190h-92v62h98l20 177h-93v62h98l20 184h73l-20 -184h153l20 184h73l-20 -184h90v-62zM375 429h-153l-19 -177h153z" />
    <glyph glyph-name="zero" unicode="0" horiz-adv-x="585" 
d="M537 344c0 -241 -113 -353 -252 -353c-144 0 -237 95 -237 340c0 241 113 352 252 352c145 0 237 -94 237 -339zM441 336c0 187 -50 272 -147 272c-85 0 -150 -73 -150 -269c0 -187 51 -272 148 -272c85 0 149 73 149 269z" />
    <glyph glyph-name="one" unicode="1" horiz-adv-x="352" 
d="M261 0h-93v583l-127 -50l-15 84l162 58h73v-675z" />
    <glyph glyph-name="two" unicode="2" horiz-adv-x="501" 
d="M453 0h-393v74l127 146c114 130 143 197 143 268c0 64 -38 116 -118 116c-44 0 -94 -17 -132 -41l-13 82c46 23 100 39 169 39c126 0 192 -79 192 -182c0 -93 -43 -178 -164 -315l-89 -104v-1c60 3 164 4 278 4v-86z" />
    <glyph glyph-name="three" unicode="3" horiz-adv-x="489" 
d="M429 203c0 -123 -110 -211 -262 -211c-41 0 -83 4 -109 11l10 81c27 -9 66 -14 104 -14c100 0 160 56 160 128c0 70 -60 118 -176 118c-23 0 -43 -2 -62 -4v73c152 -4 213 45 213 125c0 61 -40 98 -111 98c-42 0 -82 -11 -117 -30l-8 77c42 18 93 29 145 29
c127 0 186 -70 186 -157c0 -77 -44 -136 -113 -161l-1 -2c83 -18 141 -78 141 -161z" />
    <glyph glyph-name="four" unicode="4" horiz-adv-x="544" 
d="M524 158h-113v-158h-89v158h-299l-6 70l273 447h121v-435h113v-82zM323 239v351h-1l-217 -353c59 2 180 2 218 2z" />
    <glyph glyph-name="five" unicode="5" horiz-adv-x="462" 
d="M426 223c0 -139 -113 -231 -270 -231c-36 0 -75 5 -100 10l10 82c25 -8 63 -13 97 -13c104 0 168 56 168 141c0 82 -60 125 -195 125c-17 0 -39 0 -57 -2v340h311v-86h-226v-178c178 1 262 -70 262 -188z" />
    <glyph glyph-name="six" unicode="6" horiz-adv-x="576" 
d="M528 225c0 -134 -95 -235 -237 -235c-185 0 -225 168 -225 291c0 281 152 402 341 402c24 0 47 -1 60 -3v-80c-21 4 -43 5 -66 5c-126 0 -204 -66 -232 -209l-8 -42l1 -1c30 40 87 73 162 73c126 0 204 -81 204 -201zM434 211c0 83 -46 140 -132 140
c-83 0 -136 -61 -136 -131c0 -92 49 -153 133 -153c79 0 135 57 135 144z" />
    <glyph glyph-name="seven" unicode="7" horiz-adv-x="455" 
d="M426 597c-80 -173 -159 -411 -199 -597h-102c51 213 141 460 200 589c-31 -2 -241 -2 -300 -2v88h401v-78z" />
    <glyph glyph-name="eight" unicode="8" horiz-adv-x="551" 
d="M493 173c0 -117 -102 -183 -228 -183c-136 0 -209 71 -209 169c0 84 65 139 136 184c-80 46 -125 96 -125 167c0 107 87 178 217 178c121 0 195 -69 195 -160c0 -79 -62 -129 -130 -174c83 -45 144 -99 144 -181zM385 520c0 52 -36 95 -110 95c-72 0 -116 -39 -116 -95
c0 -54 45 -89 117 -128c77 48 109 82 109 128zM398 164c0 67 -64 105 -133 141c-61 -37 -114 -76 -114 -137c0 -62 47 -102 124 -102c68 0 123 34 123 98z" />
    <glyph glyph-name="nine" unicode="9" horiz-adv-x="582" 
d="M516 394c0 -273 -137 -403 -342 -403c-27 0 -58 2 -81 6v84c29 -8 64 -11 91 -11c122 0 196 64 222 199c5 19 8 38 11 49l-1 1c-28 -40 -84 -73 -159 -73c-125 0 -203 80 -203 203c0 132 95 235 235 235c188 0 227 -168 227 -290zM414 454c0 94 -50 154 -133 154
c-76 0 -133 -57 -133 -145c0 -82 45 -140 131 -140c82 0 135 64 135 131z" />
    <glyph glyph-name="onesuperior" unicode="&#xb9;" horiz-adv-x="276" 
d="M204 364h-86v340l-88 -34l-15 70l118 42h71v-418z" />
    <glyph glyph-name="twosuperior" unicode="&#xb2;" horiz-adv-x="357" 
d="M319 364h-280v62l93 93c52 52 81 94 81 134c0 41 -22 69 -70 69c-31 0 -64 -10 -87 -23l-13 64c31 14 77 26 120 26c87 0 139 -46 139 -121c0 -62 -28 -109 -84 -166l-69 -69c45 2 105 2 170 2v-71z" />
    <glyph glyph-name="threesuperior" unicode="&#xb3;" horiz-adv-x="348" 
d="M301 491c0 -81 -73 -134 -178 -134c-26 0 -61 4 -87 9l9 63c21 -7 53 -11 80 -11c56 0 89 27 89 68c0 45 -48 74 -149 61v59c86 0 136 19 136 70c0 34 -25 53 -67 53c-27 0 -58 -7 -83 -18l-9 59c34 12 75 19 110 19c83 0 134 -35 134 -103c0 -50 -24 -81 -69 -97
c54 -12 84 -52 84 -98z" />
    <glyph glyph-name="onehalf" unicode="&#xbd;" horiz-adv-x="844" 
d="M735 763l-639 -904l-58 41l639 904zM204 364h-86v340l-88 -34l-15 70l118 42h71v-418zM794 -106h-280v62l94 93c51 52 80 94 80 134c0 41 -22 69 -70 69c-30 0 -64 -10 -87 -23l-12 64c30 14 77 26 119 26c88 0 139 -46 139 -121c0 -62 -27 -109 -83 -166l-70 -69
c45 2 105 2 170 2v-71z" />
    <glyph glyph-name="onequarter" unicode="&#xbc;" horiz-adv-x="821" 
d="M204 364h-86v340l-88 -34l-15 70l118 42h71v-418zM735 763l-639 -904l-58 41l639 904zM783 -13h-66v-93h-79v93h-195l-5 56l162 269h117v-258h66v-67zM637 53v202l-121 -203c33 1 96 1 121 1z" />
    <glyph glyph-name="threequarters" unicode="&#xbe;" horiz-adv-x="842" 
d="M756 763l-639 -904l-59 41l640 904zM301 491c0 -81 -73 -134 -178 -134c-26 0 -61 4 -87 9l9 63c21 -7 53 -11 80 -11c56 0 89 27 89 68c0 45 -48 74 -149 61v59c86 0 136 19 136 70c0 34 -25 53 -67 53c-27 0 -58 -7 -83 -18l-9 59c34 12 75 19 110 19
c83 0 134 -35 134 -103c0 -50 -24 -81 -69 -97c54 -12 84 -52 84 -98zM804 -13h-67v-93h-78v93h-195l-6 56l162 269h117v-258h67v-67zM658 53v202l-122 -203c33 1 97 1 122 1z" />
    <glyph glyph-name="percent" unicode="%" horiz-adv-x="750" 
d="M706 153c0 -95 -60 -163 -150 -163c-97 0 -141 58 -141 153c0 92 59 160 150 160c94 0 141 -53 141 -150zM651 653l-497 -674l-58 42l497 673zM335 534c0 -95 -60 -162 -150 -162c-97 0 -141 57 -141 153c0 92 59 160 150 160c94 0 141 -53 141 -151zM632 146
c0 66 -22 97 -72 97c-42 0 -71 -37 -71 -94c0 -67 23 -98 74 -98c40 0 69 37 69 95zM261 528c0 66 -22 97 -72 97c-42 0 -71 -37 -71 -94c0 -67 23 -99 74 -99c40 0 69 38 69 96z" />
    <glyph glyph-name="perthousand" unicode="&#x2030;" horiz-adv-x="1026" 
d="M321 539c0 -101 -65 -160 -142 -160c-79 0 -132 45 -132 147c0 99 65 158 141 158s133 -41 133 -145zM249 532c0 62 -19 92 -64 92c-41 0 -66 -36 -66 -93c0 -62 19 -92 64 -92c41 0 66 36 66 93zM640 647l-528 -663l-55 42l527 665zM651 151c0 -102 -65 -161 -142 -161
c-79 0 -132 45 -132 147c0 100 65 158 141 158c77 0 133 -40 133 -144zM580 144c0 62 -19 91 -65 91c-41 0 -66 -36 -66 -92c0 -63 19 -92 64 -92c41 0 67 35 67 93zM969 151c0 -102 -64 -161 -141 -161c-79 0 -132 45 -132 147c0 100 65 158 141 158s132 -40 132 -144z
M898 144c0 62 -19 91 -64 91c-41 0 -67 -36 -67 -92c0 -63 20 -92 65 -92c41 0 66 35 66 93z" />
    <glyph glyph-name="zero.basic" 
d="M502 332c0 -249 -115 -342 -233 -342c-143 0 -222 88 -222 338c0 228 98 332 234 332c129 0 221 -77 221 -328zM405 326c0 193 -42 258 -131 258c-74 0 -130 -64 -130 -250c0 -184 34 -267 130 -267c82 0 131 83 131 259z" />
    <glyph glyph-name="one.basic" 
d="M496 0h-422v81h175v478l-160 -63l-16 84l197 70h72v-569h154v-81z" />
    <glyph glyph-name="two.basic" 
d="M484 0h-426v73l143 141c138 132 161 180 161 243c0 68 -46 122 -129 122c-59 0 -114 -25 -147 -51l-22 78c49 31 113 53 185 53c142 0 211 -89 211 -187c0 -85 -30 -151 -160 -272l-121 -115v-1c42 1 115 2 206 2h99v-86z" />
    <glyph glyph-name="three.basic" 
d="M474 199c0 -128 -107 -209 -273 -209c-45 0 -91 7 -124 16l10 81c36 -12 78 -20 123 -20c109 0 166 49 166 120s-56 116 -162 116c-36 0 -64 -1 -98 -5v72h23c140 0 224 38 224 120c0 59 -47 95 -123 95c-55 0 -102 -15 -143 -37l-9 79c47 19 102 33 168 33
c134 0 202 -67 202 -156c0 -77 -46 -129 -124 -152l-1 -1c81 -8 141 -74 141 -152z" />
    <glyph glyph-name="four.basic" 
d="M528 150h-107v-150h-89v150h-302l-7 73l276 427h122v-418h107v-82zM333 232v328h-1l-217 -331c60 3 178 3 218 3z" />
    <glyph glyph-name="five.basic" 
d="M475 213c0 -134 -108 -222 -270 -222c-44 0 -81 4 -120 13v83c37 -12 79 -19 127 -19c107 0 166 53 166 134c0 80 -67 121 -170 121c-42 0 -83 -3 -109 -8v335h352v-86h-268v-170c17 1 40 2 55 2c155 0 237 -80 237 -183z" />
    <glyph glyph-name="six.basic" 
d="M505 219c0 -138 -90 -229 -226 -229c-141 0 -227 100 -227 274c0 278 138 395 332 395c21 0 45 -1 59 -3v-79c-20 3 -40 5 -66 5c-133 0 -203 -77 -228 -209c-2 -10 -5 -27 -8 -49h1c32 55 92 85 161 85c130 0 202 -84 202 -190zM413 204c0 77 -44 130 -129 130
c-84 0 -133 -67 -133 -123c0 -81 47 -147 136 -147c80 0 126 58 126 140z" />
    <glyph glyph-name="seven.basic" 
d="M495 572c-101 -188 -192 -402 -250 -572h-105c66 181 156 389 251 564c-23 -1 -154 -2 -247 -2h-88v88h439v-78z" />
    <glyph glyph-name="eight.basic" 
d="M495 167c0 -109 -98 -177 -226 -177c-130 0 -215 64 -215 163c0 83 66 133 139 175c-76 39 -123 85 -123 160c0 99 85 172 210 172s199 -66 199 -158c0 -75 -57 -121 -124 -161c72 -37 140 -83 140 -174zM387 494c0 59 -45 94 -114 94c-70 0 -110 -42 -110 -92
c0 -54 37 -82 117 -121c58 33 107 66 107 119zM401 158c0 71 -63 103 -133 135c-63 -35 -120 -72 -120 -133c0 -56 46 -96 130 -96c69 0 123 34 123 94z" />
    <glyph glyph-name="nine.basic" 
d="M494 386c0 -284 -140 -395 -333 -395c-26 0 -54 2 -80 7v81c28 -7 60 -10 90 -10c128 0 198 66 221 195c3 19 5 31 9 48h-1c-32 -46 -87 -74 -156 -74c-128 0 -199 84 -199 196c0 137 94 226 224 226c136 0 225 -83 225 -274zM394 440c0 84 -46 146 -132 146
c-79 0 -126 -61 -126 -138c0 -81 46 -133 126 -133c85 0 132 57 132 125z" />
    <glyph glyph-name="Euro.basic" 
d="M514 24c-50 -22 -112 -34 -164 -34c-145 0 -230 72 -251 232h-88v60h83c-1 10 -1 21 -1 32c0 19 1 39 2 57h-84v60h93c25 134 106 229 265 229c47 0 100 -12 136 -27l-22 -72c-33 15 -80 26 -126 26c-97 0 -142 -68 -160 -156h190v-60h-200c0 -15 -1 -30 -1 -47
c0 -14 0 -29 1 -42h200v-60h-193c17 -105 69 -156 173 -156c40 0 87 11 126 28z" />
    <glyph glyph-name="dollar.basic" 
d="M460 201c0 -88 -62 -162 -168 -181v-105h-67v101c-47 0 -87 5 -125 14l9 84c36 -14 89 -22 128 -22c73 0 129 30 129 97c0 130 -283 81 -283 276c0 85 64 154 160 168v97h67v-92c39 -1 77 -6 108 -12l-10 -80c-37 12 -76 18 -111 18c-92 0 -123 -46 -123 -88
c0 -125 286 -85 286 -275z" />
    <glyph glyph-name="cent.basic" 
d="M470 136c-37 -18 -79 -30 -122 -33v-103h-70v103c-128 8 -199 88 -199 226c0 126 74 210 199 231v90h70v-87c36 -1 78 -9 114 -23l-17 -75c-33 15 -73 25 -115 25c-96 0 -157 -54 -157 -158c0 -90 44 -154 155 -154c43 0 86 11 119 30z" />
    <glyph glyph-name="sterling.basic" 
d="M480 0h-407v62c61 52 93 98 93 153c0 23 -2 48 -6 72h-106v70h96c-6 37 -12 75 -12 110c0 138 77 193 198 193c33 0 82 -6 120 -17l-20 -77c-32 11 -71 20 -107 20c-67 0 -100 -39 -100 -109c0 -39 7 -80 13 -120h159v-70h-150c4 -23 6 -45 6 -67
c0 -60 -25 -100 -76 -144c22 1 51 2 81 2h218v-78z" />
    <glyph glyph-name="florin.basic" 
d="M517 689l-13 -77c-30 10 -63 16 -89 16c-63 0 -94 -35 -102 -119l-15 -152h149v-70h-155l-24 -246c-13 -141 -84 -201 -204 -201c-27 0 -61 5 -91 13l13 76c29 -9 63 -15 89 -15c62 0 94 35 102 118l24 255h-115v70h122l14 143c14 141 83 201 204 201c28 0 62 -4 91 -12z
" />
    <glyph glyph-name="yen.basic" 
d="M517 650l-176 -354h143v-61h-165v-70h165v-61h-165v-104h-91v104h-165v61h165v70h-165v61h143l-172 354h100l94 -201c19 -41 33 -80 46 -115h2c14 39 33 83 52 121l92 195h97z" />
    <glyph glyph-name="numbersign.basic" 
d="M519 412h-93l-17 -168h86v-62h-93l-19 -182h-69l20 182h-146l-20 -182h-68l19 182h-88v62h95l17 168h-88v62h94l19 176h68l-18 -176h146l19 176h68l-19 -176h87v-62zM357 412h-146l-17 -168h146z" />
    <glyph glyph-name="percent.basic" horiz-adv-x="750" 
d="M706 153c0 -95 -60 -163 -150 -163c-97 0 -141 58 -141 153c0 92 59 160 150 160c94 0 141 -53 141 -150zM651 627l-497 -648l-58 42l497 648zM335 509c0 -95 -60 -162 -150 -162c-97 0 -141 57 -141 153c0 92 59 160 150 160c94 0 141 -53 141 -151zM632 146
c0 66 -22 97 -72 97c-42 0 -71 -37 -71 -94c0 -67 23 -98 74 -98c40 0 69 37 69 95zM261 502c0 67 -22 97 -72 97c-42 0 -71 -37 -71 -93c0 -67 23 -99 74 -99c40 0 69 38 69 95z" />
    <glyph glyph-name="perthousand.basic" horiz-adv-x="1026" 
d="M321 515c0 -102 -65 -160 -142 -160c-79 0 -132 45 -132 146c0 100 65 159 141 159s133 -41 133 -145zM249 508c0 62 -19 91 -64 91c-41 0 -66 -35 -66 -92c0 -63 19 -92 64 -92c41 0 66 36 66 93zM640 622l-528 -638l-55 42l527 640zM651 151c0 -102 -65 -161 -142 -161
c-79 0 -132 45 -132 147c0 100 65 158 141 158c77 0 133 -40 133 -144zM580 144c0 62 -19 91 -65 91c-41 0 -66 -36 -66 -92c0 -63 19 -92 64 -92c41 0 67 35 67 93zM969 151c0 -102 -64 -161 -141 -161c-79 0 -132 45 -132 147c0 100 65 158 141 158s132 -40 132 -144z
M898 144c0 62 -19 91 -64 91c-41 0 -67 -36 -67 -92c0 -63 20 -92 65 -92c41 0 66 35 66 93z" />
    <glyph glyph-name="zero.onum" horiz-adv-x="613" 
d="M562 268c0 -171 -121 -278 -266 -278c-140 0 -245 84 -245 266c0 169 123 274 263 274c170 0 248 -115 248 -262zM471 262c0 108 -53 192 -162 192c-92 0 -167 -74 -167 -191c0 -108 49 -196 162 -196c90 0 167 77 167 195z" />
    <glyph glyph-name="one.onum" horiz-adv-x="338" 
d="M246 0h-93v436l-113 -48l-15 77l148 57h73v-522z" />
    <glyph glyph-name="two.onum" horiz-adv-x="482" 
d="M432 0h-379v72l132 113c84 65 126 112 126 170c0 57 -37 99 -107 99c-47 0 -97 -20 -126 -38l-13 78c44 21 97 36 158 36c122 0 186 -67 186 -159c0 -73 -41 -136 -128 -204l-105 -86l-2 -4c48 3 153 4 258 4v-81z" />
    <glyph glyph-name="three.onum" horiz-adv-x="461" 
d="M408 36c0 -127 -100 -228 -275 -228c-30 0 -66 4 -93 10l9 81c24 -7 59 -13 92 -13c111 0 170 60 170 138c0 100 -93 140 -231 126v72c135 0 216 44 216 132c0 62 -43 101 -112 101c-42 0 -84 -12 -118 -31l-9 77c45 19 92 29 143 29c132 0 191 -75 191 -161
c0 -77 -50 -137 -121 -166v-1c84 -15 138 -81 138 -166z" />
    <glyph glyph-name="four.onum" horiz-adv-x="544" 
d="M530 0h-120v-187h-89v187h-291l-14 74l277 446h117v-439h120v-81zM322 81v351h-1l-218 -352c57 1 183 1 219 1z" />
    <glyph glyph-name="five.onum" horiz-adv-x="467" 
d="M418 52c0 -138 -123 -244 -290 -244c-25 0 -54 3 -78 6l11 84c20 -5 51 -9 76 -9c123 0 185 67 185 149c0 92 -67 143 -195 143c-14 0 -29 0 -49 -1v340h317v-88h-231v-174c164 0 254 -84 254 -206z" />
    <glyph glyph-name="six.onum" horiz-adv-x="582" 
d="M533 230c0 -140 -98 -240 -242 -240c-141 0 -225 107 -225 288c0 284 149 427 356 427c11 0 33 -1 46 -2v-80c-18 3 -37 5 -55 5c-142 0 -219 -92 -245 -229c-2 -10 -5 -21 -8 -39l1 -1c30 50 89 82 165 82c129 0 207 -84 207 -211zM437 217c0 90 -50 145 -131 145
c-92 0 -137 -68 -137 -137c0 -83 42 -158 134 -158c83 0 134 64 134 150z" />
    <glyph glyph-name="seven.onum" horiz-adv-x="459" 
d="M430 444c-81 -187 -155 -398 -208 -631h-102c58 233 133 442 210 621c-31 -2 -227 -2 -305 -2v88h405v-76z" />
    <glyph glyph-name="eight.onum" horiz-adv-x="551" 
d="M494 179c0 -122 -105 -189 -229 -189c-136 0 -209 73 -209 173c0 93 72 148 139 191h-1c-81 47 -128 100 -128 177c0 105 86 178 214 178c125 0 200 -67 200 -162c0 -72 -42 -124 -131 -180c72 -42 145 -93 145 -188zM387 538c0 53 -39 97 -112 97s-114 -43 -114 -99
c0 -55 43 -91 117 -132h1c76 48 108 83 108 134zM398 167c0 67 -53 106 -131 149h-1c-67 -40 -114 -83 -114 -143c0 -64 47 -107 124 -107c68 0 122 38 122 101z" />
    <glyph glyph-name="nine.onum" horiz-adv-x="582" 
d="M516 239c0 -280 -140 -431 -363 -431c-15 0 -40 1 -60 5v84c19 -6 46 -10 65 -10c145 0 218 76 249 213c3 13 7 38 9 53h-1c-32 -46 -92 -76 -161 -76c-128 0 -205 84 -205 212c0 138 95 241 238 241c133 0 229 -88 229 -291zM413 289c0 95 -47 164 -135 164
c-80 0 -134 -66 -134 -149c0 -93 48 -146 132 -146c83 0 137 62 137 131z" />
    <glyph glyph-name="plus" unicode="+" 
d="M508 260h-191v-201h-85v201h-190v75h190v200h85v-200h191v-75z" />
    <glyph glyph-name="minus" unicode="&#x2212;" 
d="M508 259h-466v78h466v-78z" />
    <glyph glyph-name="multiply" unicode="&#xd7;" 
d="M495 132l-55 -55l-168 168l-167 -168l-50 50l168 168l-168 167l55 55l167 -168l168 168l50 -50l-168 -167z" />
    <glyph glyph-name="divide" unicode="&#xf7;" 
d="M334 498c0 -33 -27 -60 -60 -60c-34 0 -61 27 -61 60s27 60 61 60c33 0 60 -27 60 -60zM508 260h-466v75h466v-75zM334 96c0 -34 -27 -61 -60 -61c-34 0 -61 27 -61 61c0 33 27 60 61 60c33 0 60 -27 60 -60z" />
    <glyph glyph-name="equal" unicode="=" 
d="M494 345h-438v75h438v-75zM494 175h-438v74h438v-74z" />
    <glyph glyph-name="notequal" unicode="&#x2260;" horiz-adv-x="557" 
d="M501 175h-232l-56 -139h-80l56 139h-133v74h162l38 96h-200v75h230l56 141h81l-57 -141h135v-75h-164l-39 -96h203v-74z" />
    <glyph glyph-name="less" unicode="&#x3c;" 
d="M446 81l-58 -62l-316 283l316 284l58 -58l-259 -225z" />
    <glyph glyph-name="greater" unicode="&#x3e;" 
d="M478 303l-316 -284l-58 58l259 225l-259 222l58 62z" />
    <glyph glyph-name="plusminus" unicode="&#xb1;" 
d="M508 336h-190v-197h-86v197h-190v74h190v196h86v-196h190v-74zM506 0h-462v75h462v-75z" />
    <glyph glyph-name="logicalnot" unicode="&#xac;" 
d="M482 103h-79v157h-361v75h440v-232z" />
    <glyph glyph-name="comma.arabic" unicode="&#x60c;" horiz-adv-x="228" 
d="M115 -9c-74 0 -107 126 48 267l38 -34c-64 -69 -66 -115 -43 -144c28 -35 5 -89 -43 -89z" />
    <glyph glyph-name="uni0615" unicode="&#x615;" horiz-adv-x="0" 
d="M-136 0v45h49v187h53v-73c0 -7 0 -37 -3 -46c18 32 56 51 93 51c73 0 95 -48 72 -164h-264zM-34 45h110c10 46 1 74 -30 74c-38 0 -69 -32 -80 -74z" />
    <glyph glyph-name="semicolon.arabic" unicode="&#x61b;" horiz-adv-x="286" 
d="M62 53c0 34 27 62 62 62c34 0 62 -28 62 -62s-28 -62 -62 -62c-35 0 -62 28 -62 62zM124 285c-73 0 -107 127 48 268l39 -34c-64 -69 -66 -115 -43 -144c28 -35 5 -90 -44 -90z" />
    <glyph glyph-name="questionmark.arabic" unicode="&#x61f;" horiz-adv-x="459" 
d="M313 175h-90c5 17 9 36 9 52c0 129 -160 158 -160 301c0 107 83 193 234 193c27 0 55 -3 82 -8l-14 -80c-26 6 -53 10 -76 10c-87 0 -127 -51 -127 -108c0 -106 153 -147 153 -291c0 -22 -4 -45 -11 -69zM266 -9c-34 0 -60 26 -60 59s26 59 60 59s61 -26 61 -59
s-27 -59 -61 -59z" />
    <glyph glyph-name="kashida" unicode="&#x640;" horiz-adv-x="115" 
d="M0 0v73h130v-73h-130z" />
    <glyph glyph-name="madda" unicode="&#x653;" horiz-adv-x="0" 
d="M-107 0l-37 48l89 67c7 -7 44 -41 94 -41c56 0 97 36 105 43v-73c-8 -7 -43 -38 -109 -38c-53 0 -85 27 -90 32z" />
    <glyph glyph-name="hamza_above" unicode="&#x654;" horiz-adv-x="0" 
d="M-121 0v53c28 0 54 -2 70 -5c-18 9 -27 31 -27 48c0 50 34 97 126 97c22 0 43 -2 54 -4l-9 -54c-9 2 -29 5 -49 5c-36 0 -55 -17 -55 -41c0 -26 21 -46 78 -46h54v-53h-242z" />
    <glyph glyph-name="hamza_below" unicode="&#x655;" horiz-adv-x="0" 
d="M-117 -179v55c22 0 42 0 58 -3c-10 6 -18 20 -18 37c0 49 39 90 117 90c22 0 42 -2 55 -5l-9 -56c-12 3 -30 6 -47 6c-30 0 -47 -13 -47 -33c0 -22 20 -36 66 -36h59v-55h-234z" />
    <glyph glyph-name="alef_subscript" unicode="&#x656;" horiz-adv-x="0" 
d="M-34 -188v188h69v-176z" />
    <glyph glyph-name="uni0658" unicode="&#x658;" horiz-adv-x="400" 
d="M263 915h62c0 -71 -39 -135 -127 -135s-123 65 -123 135h61c0 -37 21 -68 63 -68c39 0 64 25 64 68z" />
    <glyph glyph-name="zero.indic" unicode="&#x660;" horiz-adv-x="585" 
d="M537 344c0 -241 -113 -353 -252 -353c-144 0 -237 95 -237 340c0 241 113 352 252 352c145 0 237 -94 237 -339zM441 336c0 187 -50 272 -147 272c-85 0 -150 -73 -150 -269c0 -187 51 -272 148 -272c85 0 149 73 149 269z" />
    <glyph glyph-name="one.indic" unicode="&#x661;" horiz-adv-x="352" 
d="M261 0h-93v583l-127 -50l-15 84l162 58h73v-675z" />
    <glyph glyph-name="two.indic" unicode="&#x662;" horiz-adv-x="501" 
d="M453 0h-393v74l127 146c114 130 143 197 143 268c0 64 -38 116 -118 116c-44 0 -94 -17 -132 -41l-13 82c46 23 100 39 169 39c126 0 192 -79 192 -182c0 -93 -43 -178 -164 -315l-89 -104v-1c60 3 164 4 278 4v-86z" />
    <glyph glyph-name="three.indic" unicode="&#x663;" horiz-adv-x="489" 
d="M429 203c0 -123 -110 -211 -262 -211c-41 0 -83 4 -109 11l10 81c27 -9 66 -14 104 -14c100 0 160 56 160 128c0 70 -60 118 -176 118c-23 0 -43 -2 -62 -4v73c152 -4 213 45 213 125c0 61 -40 98 -111 98c-42 0 -82 -11 -117 -30l-8 77c42 18 93 29 145 29
c127 0 186 -70 186 -157c0 -77 -44 -136 -113 -161l-1 -2c83 -18 141 -78 141 -161z" />
    <glyph glyph-name="four.indic" unicode="&#x664;" horiz-adv-x="544" 
d="M524 158h-113v-158h-89v158h-299l-6 70l273 447h121v-435h113v-82zM323 239v351h-1l-217 -353c59 2 180 2 218 2z" />
    <glyph glyph-name="five.indic" unicode="&#x665;" horiz-adv-x="462" 
d="M426 223c0 -139 -113 -231 -270 -231c-36 0 -75 5 -100 10l10 82c25 -8 63 -13 97 -13c104 0 168 56 168 141c0 82 -60 125 -195 125c-17 0 -39 0 -57 -2v340h311v-86h-226v-178c178 1 262 -70 262 -188z" />
    <glyph glyph-name="six.indic" unicode="&#x666;" horiz-adv-x="576" 
d="M528 225c0 -134 -95 -235 -237 -235c-185 0 -225 168 -225 291c0 281 152 402 341 402c24 0 47 -1 60 -3v-80c-21 4 -43 5 -66 5c-126 0 -204 -66 -232 -209l-8 -42l1 -1c30 40 87 73 162 73c126 0 204 -81 204 -201zM434 211c0 83 -46 140 -132 140
c-83 0 -136 -61 -136 -131c0 -92 49 -153 133 -153c79 0 135 57 135 144z" />
    <glyph glyph-name="seven.indic" unicode="&#x667;" horiz-adv-x="455" 
d="M426 597c-80 -173 -159 -411 -199 -597h-102c51 213 141 460 200 589c-31 -2 -241 -2 -300 -2v88h401v-78z" />
    <glyph glyph-name="eight.indic" unicode="&#x668;" horiz-adv-x="551" 
d="M493 173c0 -117 -102 -183 -228 -183c-136 0 -209 71 -209 169c0 84 65 139 136 184c-80 46 -125 96 -125 167c0 107 87 178 217 178c121 0 195 -69 195 -160c0 -79 -62 -129 -130 -174c83 -45 144 -99 144 -181zM385 520c0 52 -36 95 -110 95c-72 0 -116 -39 -116 -95
c0 -54 45 -89 117 -128c77 48 109 82 109 128zM398 164c0 67 -64 105 -133 141c-61 -37 -114 -76 -114 -137c0 -62 47 -102 124 -102c68 0 123 34 123 98z" />
    <glyph glyph-name="nine.indic" unicode="&#x669;" horiz-adv-x="582" 
d="M516 394c0 -273 -137 -403 -342 -403c-27 0 -58 2 -81 6v84c29 -8 64 -11 91 -11c122 0 196 64 222 199c5 19 8 38 11 49l-1 1c-28 -40 -84 -73 -159 -73c-125 0 -203 80 -203 203c0 132 95 235 235 235c188 0 227 -168 227 -290zM414 454c0 94 -50 154 -133 154
c-76 0 -133 -57 -133 -145c0 -82 45 -140 131 -140c82 0 135 64 135 131z" />
    <glyph glyph-name="percentsign.arabic" unicode="&#x66a;" horiz-adv-x="698" 
d="M608 649l-455 -690l-64 35l454 690zM246 549c0 -36 -29 -64 -65 -64c-35 0 -64 28 -64 64s29 64 64 64c36 0 65 -28 65 -64zM451 95c0 35 28 64 64 64s64 -29 64 -64c0 -36 -28 -65 -64 -65s-64 29 -64 65z" />
    <glyph glyph-name="decimal.arabic" unicode="&#x66b;" horiz-adv-x="300" 
d="M112 113c74 0 107 -126 -48 -267l-38 34c64 69 66 115 43 144c-28 35 -5 89 43 89z" />
    <glyph glyph-name="thousands.arabic" unicode="&#x66c;" horiz-adv-x="300" 
d="M112 533c74 0 107 -126 -48 -267l-38 34c64 69 66 115 43 144c-28 35 -5 89 43 89z" />
    <glyph glyph-name="fivept_star.arabic" unicode="&#x66d;" horiz-adv-x="604" 
d="M209 35l-63 49l105 129l-162 41l26 75l154 -61l-9 167h81l-12 -166l154 61l28 -76l-162 -40l104 -130l-63 -48l-90 143z" />
    <glyph glyph-name="alef_superscript" unicode="&#x670;" horiz-adv-x="0" 
d="M35 13l-69 -13v230h69v-217z" />
    <glyph glyph-name="uni06C3" unicode="&#x6c3;" horiz-adv-x="594" 
d="M363 562c-30 0 -54 23 -54 54c0 29 24 53 54 53c29 0 52 -23 52 -53s-23 -54 -52 -54zM215 562c-30 0 -53 23 -53 54c0 29 23 53 53 53c29 0 53 -23 53 -53s-24 -54 -53 -54zM509 0h-202c-192 0 -262 91 -262 233c0 134 84 248 250 248c143 0 214 -82 214 -224v-257z
M419 73v168c0 120 -49 167 -132 167c-93 0 -149 -66 -149 -166c0 -114 54 -169 182 -169h99z" />
    <glyph glyph-name="arabicae" unicode="&#x6d5;" horiz-adv-x="594" 
d="M509 0h-202c-192 0 -262 91 -262 233c0 134 84 248 250 248c143 0 214 -82 214 -224v-257zM419 73v168c0 120 -49 167 -132 167c-93 0 -149 -66 -149 -166c0 -114 54 -169 182 -169h99z" />
    <glyph glyph-name="zero_ext.indic" unicode="&#x6f0;" horiz-adv-x="585" 
d="M537 344c0 -241 -113 -353 -252 -353c-144 0 -237 95 -237 340c0 241 113 352 252 352c145 0 237 -94 237 -339zM441 336c0 187 -50 272 -147 272c-85 0 -150 -73 -150 -269c0 -187 51 -272 148 -272c85 0 149 73 149 269z" />
    <glyph glyph-name="one_ext.indic" unicode="&#x6f1;" horiz-adv-x="352" 
d="M261 0h-93v583l-127 -50l-15 84l162 58h73v-675z" />
    <glyph glyph-name="two_ext.indic" unicode="&#x6f2;" horiz-adv-x="501" 
d="M453 0h-393v74l127 146c114 130 143 197 143 268c0 64 -38 116 -118 116c-44 0 -94 -17 -132 -41l-13 82c46 23 100 39 169 39c126 0 192 -79 192 -182c0 -93 -43 -178 -164 -315l-89 -104v-1c60 3 164 4 278 4v-86z" />
    <glyph glyph-name="three_ext.indic" unicode="&#x6f3;" horiz-adv-x="489" 
d="M429 203c0 -123 -110 -211 -262 -211c-41 0 -83 4 -109 11l10 81c27 -9 66 -14 104 -14c100 0 160 56 160 128c0 70 -60 118 -176 118c-23 0 -43 -2 -62 -4v73c152 -4 213 45 213 125c0 61 -40 98 -111 98c-42 0 -82 -11 -117 -30l-8 77c42 18 93 29 145 29
c127 0 186 -70 186 -157c0 -77 -44 -136 -113 -161l-1 -2c83 -18 141 -78 141 -161z" />
    <glyph glyph-name="four_ext.indic" unicode="&#x6f4;" horiz-adv-x="544" 
d="M524 158h-113v-158h-89v158h-299l-6 70l273 447h121v-435h113v-82zM323 239v351h-1l-217 -353c59 2 180 2 218 2z" />
    <glyph glyph-name="five_ext.indic" unicode="&#x6f5;" horiz-adv-x="462" 
d="M426 223c0 -139 -113 -231 -270 -231c-36 0 -75 5 -100 10l10 82c25 -8 63 -13 97 -13c104 0 168 56 168 141c0 82 -60 125 -195 125c-17 0 -39 0 -57 -2v340h311v-86h-226v-178c178 1 262 -70 262 -188z" />
    <glyph glyph-name="six_ext.indic" unicode="&#x6f6;" horiz-adv-x="576" 
d="M528 225c0 -134 -95 -235 -237 -235c-185 0 -225 168 -225 291c0 281 152 402 341 402c24 0 47 -1 60 -3v-80c-21 4 -43 5 -66 5c-126 0 -204 -66 -232 -209l-8 -42l1 -1c30 40 87 73 162 73c126 0 204 -81 204 -201zM434 211c0 83 -46 140 -132 140
c-83 0 -136 -61 -136 -131c0 -92 49 -153 133 -153c79 0 135 57 135 144z" />
    <glyph glyph-name="seven_ext.indic" unicode="&#x6f7;" horiz-adv-x="455" 
d="M426 597c-80 -173 -159 -411 -199 -597h-102c51 213 141 460 200 589c-31 -2 -241 -2 -300 -2v88h401v-78z" />
    <glyph glyph-name="eight_ext.indic" unicode="&#x6f8;" horiz-adv-x="551" 
d="M493 173c0 -117 -102 -183 -228 -183c-136 0 -209 71 -209 169c0 84 65 139 136 184c-80 46 -125 96 -125 167c0 107 87 178 217 178c121 0 195 -69 195 -160c0 -79 -62 -129 -130 -174c83 -45 144 -99 144 -181zM385 520c0 52 -36 95 -110 95c-72 0 -116 -39 -116 -95
c0 -54 45 -89 117 -128c77 48 109 82 109 128zM398 164c0 67 -64 105 -133 141c-61 -37 -114 -76 -114 -137c0 -62 47 -102 124 -102c68 0 123 34 123 98z" />
    <glyph glyph-name="nine_ext.indic" unicode="&#x6f9;" horiz-adv-x="582" 
d="M516 394c0 -273 -137 -403 -342 -403c-27 0 -58 2 -81 6v84c29 -8 64 -11 91 -11c122 0 196 64 222 199c5 19 8 38 11 49l-1 1c-28 -40 -84 -73 -159 -73c-125 0 -203 80 -203 203c0 132 95 235 235 235c188 0 227 -168 227 -290zM414 454c0 94 -50 154 -133 154
c-76 0 -133 -57 -133 -145c0 -82 45 -140 131 -140c82 0 135 64 135 131z" />
    <glyph glyph-name="parenthesis_left_ornate" unicode="&#xfd3e;" horiz-adv-x="341" 
d="M309 -199h-18c-114 0 -156 65 -156 195v175c0 79 -29 106 -106 110v71c79 4 106 27 106 108v117c0 115 38 194 156 194h18v-69c-69 0 -91 -28 -91 -122v-116c0 -89 -32 -135 -93 -146v-2c60 -9 93 -60 93 -148v-174c0 -94 22 -122 91 -122v-71z" />
    <glyph glyph-name="parenthesis_right_ornate" unicode="&#xfd3f;" horiz-adv-x="338" 
d="M318 281c-77 -4 -106 -31 -106 -110v-175c0 -130 -42 -195 -156 -195h-18v71c69 0 91 28 91 122v174c0 88 33 139 93 148v2c-62 8 -93 57 -93 142v120c0 94 -22 122 -91 122v69h18c118 0 156 -79 156 -194v-113c0 -85 27 -108 106 -112v-71z" />
    <glyph glyph-name="wasla" horiz-adv-x="0" 
d="M-36 53h123v13c0 57 -15 75 -42 75c-42 0 -69 -42 -81 -88zM-149 0v53h54c23 78 70 140 149 140c61 0 96 -33 96 -126v-67h-299z" />
    <glyph glyph-name="hamza_medial" horiz-adv-x="0" 
d="M-121 0v57c27 0 53 -2 69 -5c-18 8 -27 30 -27 48c0 49 35 99 127 99c22 0 43 -2 54 -4l-9 -56c-9 1 -29 4 -48 4c-37 0 -56 -16 -56 -41c0 -26 21 -45 78 -45h54v-57h-242z" />
    <glyph glyph-name="xx.TahAbove" horiz-adv-x="0" 
d="M75 113c0 32 -13 54 -43 54c-52 0 -103 -65 -110 -121h73c57 0 80 27 80 67zM-77 283v-83c0 -18 -3 -42 -7 -63h1c26 44 74 77 123 77c61 0 95 -35 95 -94c0 -73 -50 -120 -148 -120h-122v283h58z" />
    <glyph glyph-name="shadda_fathatan" horiz-adv-x="0" 
d="M-118 232l-7 41l204 31l7 -40zM-107 160l-7 41l204 31l7 -40zM15 33c-9 -20 -30 -33 -56 -33c-30 0 -46 17 -53 58l-7 37l41 7l6 -35c4 -17 10 -24 23 -24c17 0 26 14 22 35l-5 35l40 8l7 -36c4 -20 12 -27 24 -27c22 0 27 18 23 42l-6 36l42 8l6 -36
c10 -55 -14 -91 -68 -92c-15 0 -30 6 -39 17z" />
    <glyph glyph-name="hamza_above_damma" horiz-adv-x="0" 
d="M-95 0v43c28 0 52 -3 65 -5c-15 6 -33 24 -33 47c0 49 50 70 109 70c17 0 38 -3 53 -7l-7 -41c-14 3 -33 6 -49 6c-30 0 -52 -6 -52 -29c0 -21 23 -41 73 -41h49v-43h-208zM-111 148l-9 40l88 17s-6 18 -6 36c0 49 39 85 90 85c44 0 69 -25 69 -64c0 -44 -28 -73 -77 -83
zM12 214l23 5c26 6 41 17 41 41c0 16 -12 25 -29 25c-24 0 -40 -17 -40 -42c0 -15 5 -29 5 -29z" />
    <glyph glyph-name="hamza_above_sukun" horiz-adv-x="0" 
d="M3 192c-45 0 -78 19 -78 75c0 47 36 80 84 80c51 0 77 -26 77 -74c0 -49 -37 -81 -83 -81zM5 230c21 0 35 15 35 41c0 27 -15 38 -33 38c-19 0 -36 -14 -36 -38c0 -26 10 -41 34 -41zM-104 0v43c27 0 51 -3 65 -5c-15 6 -33 23 -33 47c0 49 50 69 109 69
c16 0 36 -2 53 -6l-8 -41c-13 2 -32 5 -48 5c-30 0 -52 -5 -52 -28c0 -21 23 -41 72 -41h50v-43h-208z" />
    <glyph glyph-name="hamza_above_fathatan" horiz-adv-x="0" 
d="M-105 240l-7 40l204 32l7 -40zM-93 168l-7 40l204 32l6 -41zM-96 0v42c28 0 52 -3 66 -5c-16 7 -34 24 -34 47c0 50 51 70 109 70c18 0 38 -3 53 -6l-7 -42c-14 3 -33 6 -48 6c-30 0 -53 -6 -53 -29c0 -21 24 -41 73 -41h50v-42h-209z" />
    <glyph glyph-name="hamza_above_dammatan" horiz-adv-x="0" 
d="M-87 0v43c28 0 52 -3 66 -5c-16 6 -34 24 -34 47c0 49 51 70 109 70c18 0 38 -3 53 -7l-7 -41c-14 3 -33 6 -48 6c-30 0 -53 -6 -53 -29c0 -21 24 -41 73 -41h50v-43h-209zM-103 147l-26 121l44 9l17 -80l44 9s-6 17 -6 35c1 49 40 85 90 85c45 0 69 -25 69 -64
c0 -44 -29 -72 -78 -83zM21 215l22 4c26 5 41 17 41 41c0 16 -12 25 -29 25c-24 0 -40 -17 -40 -42c0 -15 6 -28 6 -28z" />
    <glyph glyph-name="hamza_above_fatha" horiz-adv-x="0" 
d="M-99 170l-7 40l204 31l6 -40zM-101 0v43c27 0 51 -4 65 -5c-16 6 -34 23 -34 47c0 49 51 69 110 69c17 0 38 -3 52 -6l-7 -42c-13 3 -33 6 -48 6c-30 0 -53 -6 -53 -29c0 -21 24 -40 73 -40h50v-43h-208z" />
    <glyph glyph-name="hamza_below_kasratan" horiz-adv-x="0" 
d="M-101 -270v38h203v-38h-203zM-101 -209v38h203v-38h-203zM-101 -147v40c27 0 51 -3 64 -5c-15 6 -33 23 -33 46c0 47 49 66 107 66c16 0 36 -3 51 -6l-7 -39c-13 3 -32 5 -47 5c-30 0 -52 -5 -52 -27c0 -20 23 -40 71 -40h49v-40h-203z" />
    <glyph glyph-name="hamza_below_kasra" horiz-adv-x="0" 
d="M-104 -219v40h208v-40h-208zM-104 -154v43c27 0 51 -3 65 -5c-15 6 -33 24 -33 47c0 49 50 69 109 69c17 0 38 -2 53 -6l-8 -41c-13 3 -32 5 -48 5c-30 0 -52 -5 -52 -28c0 -21 23 -41 72 -41h50v-43h-208z" />
    <glyph glyph-name="wasle" horiz-adv-x="103" 
d="M0 0v73h117v-73h-117z" />
    <glyph glyph-name="Kashida.Narrow" horiz-adv-x="189" 
d="M0 0v73h209v-73h-209z" />
    <glyph glyph-name="kashida.long" horiz-adv-x="209" 
d="M-1 0v73h211v-73h-211z" />
    <glyph glyph-name="tooth.init" horiz-adv-x="326" 
d="M0 0v73h146v397h92v-470h-238z" />
    <glyph glyph-name="tooth.init.long" horiz-adv-x="380" 
d="M0 0v73h201v397h92v-470h-293z" />
    <glyph glyph-name="logo" unicode="&#xfb;" horiz-adv-x="2985" 
d="M1098 43v47c-34 -1 -60 -6 -60 -31c0 -18 11 -28 29 -28c10 0 23 4 31 12zM1300 7v277h51v-83c10 2 23 3 32 3c55 0 94 -20 94 -105c0 -66 -43 -103 -100 -103c-28 0 -53 4 -77 11zM1351 156v-116c9 -1 18 -2 27 -2c25 0 47 22 47 61c0 59 -24 61 -45 61
c-10 0 -20 -2 -29 -4zM2124 0h-60l-55 91h-16v-91h-51v283h51v-172l73 86h56l-71 -81zM376 0h-51v197h51v-197zM351 224c-15 0 -28 12 -28 28s13 28 28 28s28 -12 28 -28s-13 -28 -28 -28zM606 0h-51v100c0 35 -6 57 -40 57c-12 0 -25 -2 -37 -4v-153h-51v192
c22 6 61 12 94 12c59 0 85 -31 85 -85v-119zM1894 0h-51v100c0 35 -6 57 -40 57c-12 0 -25 -2 -37 -4v-153h-51v192c22 6 61 12 95 12c58 0 84 -31 84 -85v-119zM956 0h-51v100c0 35 -5 57 -39 57c-11 0 -27 -4 -39 -11c2 -7 3 -19 3 -27v-119h-51v100c0 35 -5 57 -39 57
c-11 0 -24 -2 -35 -4v-153h-51v192c22 6 60 12 92 12c26 0 46 -7 56 -15c21 10 47 15 70 15c58 0 84 -30 84 -85v-119zM290 39l1 -39h-32c-37 0 -56 18 -56 65v219h51v-216c0 -20 7 -29 22 -29h14zM2106 599v-100c0 -56 -27 -80 -71 -80c-21 0 -43 11 -58 29
c-12 -23 -34 -26 -53 -26h-425c-14 -56 -62 -78 -106 -78l-12 42c26 0 67 17 67 71v142h56v-136h65v105l56 17v-25c52 15 99 25 136 25c73 0 102 -47 110 -122h34c14 0 25 6 25 31v35c0 52 26 82 83 82c33 0 72 -6 93 -12zM1625 463h189c-7 49 -28 71 -62 71
c-28 0 -64 -6 -127 -23v-48zM2051 491v67c-7 1 -17 2 -29 2c-33 0 -37 -22 -37 -57v-4c10 -20 31 -39 45 -39c15 0 21 11 21 31zM1290 611c33 0 72 -6 94 -12v-107c0 -51 -36 -70 -85 -70h-170c-36 0 -67 27 -67 65v55l56 17v-65c0 -20 13 -31 33 -31h81
c-15 20 -25 43 -25 66c0 51 26 82 83 82zM1328 494v64c-7 1 -18 2 -28 2c-28 0 -37 -18 -37 -38c0 -27 25 -59 37 -59c19 0 28 11 28 31zM1305 641c-17 0 -30 13 -30 30s13 30 30 30s30 -13 30 -30s-13 -30 -30 -30zM933 422h-56v279h56v-279zM766 494v207h55v-209
c0 -64 -34 -70 -60 -70h-126l12 41h22v238h41v-238h32c13 0 24 6 24 31zM705 358h-40l4 13h6c-1 2 -2 5 -2 8c0 12 14 21 33 17l-3 -13c-8 1 -13 -2 -13 -6s3 -6 9 -6h9zM574 641c-17 0 -30 13 -30 30s13 30 30 30s30 -13 30 -30s-13 -30 -30 -30zM133 422h-129l13 41h20
c-5 8 -8 17 -8 29c0 41 46 66 110 55l-12 -44c-31 4 -43 -8 -43 -20s11 -20 29 -20h32zM526 422h-22c-16 0 -32 5 -46 15c-13 -13 -30 -18 -51 -18c-22 0 -43 11 -58 29c-12 -23 -34 -26 -53 -26h-55c-26 0 -61 6 -61 70v209h56v-207c0 -25 11 -31 24 -31h17
c14 0 25 6 25 31v35c1 52 26 82 83 82c33 0 72 -6 93 -12v-92c0 -31 16 -44 38 -44c16 0 30 6 30 31v105h56v-107c0 -61 -30 -70 -76 -70zM423 491v67c-7 1 -17 2 -29 2c-33 0 -37 -22 -37 -57v-4c10 -20 31 -39 45 -39c15 0 21 11 21 31zM2985 0h-703v701h703v-701z
M2717 123v511l-172 -56v-511zM1149 0h-40l-2 9c-14 -9 -34 -13 -52 -13c-40 0 -65 25 -65 61c0 47 42 65 108 68v1c0 28 -10 36 -35 36c-12 0 -32 -4 -52 -9l-11 40c23 5 54 11 76 11c35 0 73 -8 73 -70v-134zM1667 0h-40l-2 9c-14 -9 -34 -13 -52 -13c-40 0 -65 25 -65 61
c0 47 42 65 108 68v1c0 28 -10 36 -35 36c-12 0 -32 -4 -52 -9l-11 40c23 5 54 11 76 11c35 0 73 -8 73 -70v-134zM1616 43v47c-34 -1 -60 -6 -60 -31c0 -18 11 -28 29 -28c10 0 23 4 31 12zM159 0h-40l-2 9c-14 -9 -34 -13 -52 -13c-40 0 -65 25 -65 61c0 47 42 65 108 68
v1c0 28 -10 36 -35 36c-12 0 -32 -4 -52 -9l-11 40c23 5 54 11 76 11c35 0 73 -8 73 -70v-134zM108 43v47c-34 -1 -60 -6 -60 -31c0 -18 11 -28 29 -28c10 0 23 4 31 12z" />
    </font>
</defs>
</svg>
